#N canvas -1981 5 1512 916 12;
#X obj 117 176 soundfiler;
#X obj 112 313 bng 15 250 50 0 empty empty empty 17 7 0 10 #fcfcfc #000000 #000000;
#N canvas 121 159 450 278 (subpatch) 0;
#X array \$0-bufmfcc 1.57586e+07 float 0;
#X coords 0 0.5 1.57586e+07 -0.5 400 53 1 0 0;
#X restore 977 113 graph;
#X text 140 310 input -feature type and params;
#X obj 499 376 bng 19 250 50 0 empty empty empty 0 -10 0 12 #fcfcfc #000000 #000000;
#X msg 545 460 0;
#X obj 499 484 f;
#X obj 499 460 until;
#X obj 535 484 + 1;
#X obj 533 554 array get;
#X obj 606 527 list \$0;
#X obj 533 580 text set \$0-buffer 1e+06;
#X msg 671 503 clear;
#X obj 671 527 s \$0-buffer;
#X obj 499 673 text define \$0-buffer;
#X obj 606 503 f;
#X obj 499 582 f;
#X obj 499 508 t b b b f;
#X obj 117 99 receive filename;
#X obj 117 124 list \$0;
#X obj 716 140 send filename;
#X obj 499 614 list append;
#X obj 588 614 receive filename;
#X obj 496 98 loadbang;
#X obj 496 122 del 50;
#X text 535 375 write to file;
#X obj 499 401 t b b b;
#X msg 117 151 read -resize corpus/\$1.wav \$2-bufmfcc;
#X obj 389 509 del 100;
#X msg 389 535 \; pd quit;
#N canvas 121 159 450 278 (subpatch) 0;
#X array \$0-bufspectral-0 30779 float 0;
#X coords 0 10000 30778 -10000 400 53 1 0 0;
#X restore 973 201 graph;
#N canvas 121 159 450 278 (subpatch) 0;
#X array \$0-bufspectral-1 30779 float 0;
#X coords 0 10000 30778 -10000 400 53 1 0 0;
#X restore 974 291 graph;
#N canvas 121 159 450 278 (subpatch) 0;
#X array \$0-bufspectral-2 30779 float 0;
#X coords 0 10000 30778 -10000 400 53 1 0 0;
#X restore 973 388 graph;
#N canvas 121 159 450 278 (subpatch) 0;
#X array \$0-bufspectral-3 30779 float 0;
#X coords 0 10000 30778 -10000 400 53 1 0 0;
#X restore 974 478 graph;
#N canvas 121 159 450 278 (subpatch) 0;
#X array \$0-bufspectral-4 30779 float 0;
#X coords 0 10000 30778 -10000 400 53 1 0 0;
#X restore 976 573 graph;
#N canvas 121 159 450 278 (subpatch) 0;
#X array \$0-bufspectral-5 30779 float 0;
#X coords 0 10000 30778 -10000 400 53 1 0 0;
#X restore 975 670 graph;
#N canvas 121 159 450 278 (subpatch) 0;
#X array \$0-bufspectral-6 30779 float 0;
#X coords 0 10000 30778 -10000 400 53 1 0 0;
#X restore 976 760 graph;
#X obj 92 499 f \$0;
#X msg 92 526 \; \$1-bufspectral-0 xticks 0 0 0 \; \$1-bufspectral-1 xticks 0 0 0 \; \$1-bufspectral-2 xticks 0 0 0 \; \$1-bufspectral-3 xticks 0 0 0 \; \$1-bufspectral-4 xticks 0 0 0 \; \$1-bufspectral-5 xticks 0 0 0 \; \$1-bufspectral-6 xticks 0 0 0 \;;
#X obj 84 447 t b b;
#X obj 84 409 fluid.bufspectralshape -source \$0-bufmfcc -features \$0-bufspectral;
#X msg 606 553 symbol \$2-bufspectral-\$1;
#X msg 499 643 write spectral/\$2/bufspectral-\$1.txt;
#X msg 716 111 simple_sin-1;
#X msg 499 436 7;
#X connect 1 0 40 0;
#X connect 4 0 26 0;
#X connect 5 0 6 1;
#X connect 6 0 8 0;
#X connect 6 0 17 0;
#X connect 7 0 6 0;
#X connect 8 0 6 1;
#X connect 9 0 11 0;
#X connect 10 0 41 0;
#X connect 12 0 13 0;
#X connect 15 0 10 0;
#X connect 16 0 21 0;
#X connect 17 0 16 0;
#X connect 17 1 15 0;
#X connect 17 1 9 0;
#X connect 17 2 12 0;
#X connect 17 3 15 1;
#X connect 17 3 16 1;
#X connect 18 0 19 0;
#X connect 19 0 27 0;
#X connect 21 0 42 0;
#X connect 22 0 21 1;
#X connect 23 0 24 0;
#X connect 24 0 1 0;
#X connect 26 0 28 0;
#X connect 26 1 44 0;
#X connect 26 2 5 0;
#X connect 27 0 0 0;
#X connect 28 0 29 0;
#X connect 37 0 38 0;
#X connect 39 0 4 0;
#X connect 39 1 37 0;
#X connect 40 0 39 0;
#X connect 41 0 9 2;
#X connect 42 0 14 0;
#X connect 43 0 20 0;
#X connect 44 0 7 0;
