#N canvas 1 39 1512 916 12;
#X obj 612 73 inlet~;
#X obj 552 179 fluid.loudness~;
#X obj 552 234 unpack f f, f 11;
#X obj 552 284 dbtorms;
#X obj 552 259 + 100;
#X obj 127 178 vsl 8 100 0 1 0 0 empty empty empty 0 -9 0 12 #fcfcfc #000000 #000000 0 1;
#X obj 135 178 vsl 8 100 0 1 0 0 empty empty empty 0 -9 0 12 #fcfcfc #000000 #000000 0 1;
#X obj 143 178 vsl 8 100 0 1 0 0 empty empty empty 0 -9 0 12 #fcfcfc #000000 #000000 0 1;
#N canvas 0 22 450 278 (subpatch) 0;
#X array \$0-mfcc.plot 13 float 3;
#A 0 -1980.04 -7.51435e-14 2.44748e-13 -9.98277e-14 4.23265e-14 -1.14812e-13 1.61098e-13 -4.53178e-14 9.04209e-14 -5.35277e-13 1.14261e-13 -3.12209e-13 -2.84217e-14;
#X coords 0 1000 13 -1000 150 90 1 0 0;
#X restore 167 190 graph;
#X obj 731 259 list length;
#X obj 731 181 fluid.mfcc~ 13 -maxnumcoeffs 40;
#X obj 731 235 array set \$0-mfcc.plot;
#X obj 731 282 array size \$0-mfcc.plot;
#X obj 961 181 fluid.chroma~ 12 -numchroma 12;
#X obj 552 207 fluid.stats -history 50;
#X obj 550 332 fluid.spectralshape~;
#X obj 126 320 vsl 8 100 0 1 0 0 empty empty empty 0 -9 0 12 #fcfcfc #000000 #000000 0 1;
#X obj 134 320 vsl 8 100 0 1 0 0 empty empty empty 0 -9 0 12 #fcfcfc #000000 #000000 0 1;
#X obj 142 320 vsl 8 100 0 1 0 0 empty empty empty 0 -9 0 12 #fcfcfc #000000 #000000 0 1;
#X obj 150 320 vsl 8 100 0 1 0 0 empty empty empty 0 -9 0 12 #fcfcfc #000000 #000000 0 1;
#X obj 158 320 vsl 8 100 0 1 0 0 empty empty empty 0 -9 0 12 #fcfcfc #000000 #000000 0 1;
#X obj 166 320 vsl 8 100 0 1 0 0 empty empty empty 0 -9 0 12 #fcfcfc #000000 #000000 0 1;
#X obj 174 320 vsl 8 100 0 1 0 0 empty empty empty 0 -9 0 12 #fcfcfc #000000 #000000 0 1;
#X obj 731 332 fluid.sinefeature~ 10;
#N canvas 0 22 450 278 (subpatch) 0;
#X array \$0-chroma 12 float 3;
#A 0 0 0 0 0 0 0 0 0 0 0 0 0;
#X coords 0 20 12 0 150 90 1 0 0;
#X restore 326 190 graph;
#N canvas 0 22 450 278 (subpatch) 0;
#X array \$0-sinefeature.freqs 10 float 3;
#A 0 0 0 0 0 0 0 0 0 0 0;
#X coords 0 2000 10 0 150 45 1 0 0;
#X restore 200 313 graph;
#N canvas 0 22 450 278 (subpatch) 0;
#X array \$0-sinefeature.mags 10 float 3;
#A 0 0 0 0 0 0 0 0 0 0 0;
#X coords 0 1 10 0 150 45 1 0 0;
#X restore 200 379 graph;
#X obj 731 206 fluid.stats -history 50;
#X obj 961 205 fluid.stats -history 50;
#X obj 550 358 fluid.stats -history 50;
#X obj 731 358 fluid.stats -history 50;
#X obj 960 361 fluid.stats -history 50;
#X obj 961 257 list length;
#X obj 961 233 array set \$0-chroma;
#X obj 961 280 array size \$0-chroma;
#X obj 731 408 list length;
#X obj 731 384 array set \$0-sinefeature.freqs;
#X obj 731 431 array size \$0-sinefeature.freqs;
#X obj 960 406 list length;
#X obj 960 383 array set \$0-sinefeature.mags;
#X obj 960 429 array size \$0-sinefeature.mags;
#X obj 550 382 unpack f f f f f f f;
#X floatatom 227 133 5 0 0 0 - - - 0;
#X msg 821 90 \$1 history;
#X floatatom 325 131 5 0 0 0 - - - 0;
#X msg 930 90 \$1 fftsettings \$1 -1 -1;
#X obj 821 63 inlet;
#X obj 930 62 inlet;
#X obj 129 134 tgl 19 0 empty empty empty 0 -10 0 12 #fcfcfc #000000 #000000 0 1;
#X connect 0 0 1 0;
#X connect 0 0 10 0;
#X connect 0 0 13 0;
#X connect 0 0 15 0;
#X connect 0 0 23 0;
#X connect 1 0 14 0;
#X connect 2 0 4 0;
#X connect 2 0 5 0;
#X connect 2 1 6 0;
#X connect 3 0 7 0;
#X connect 4 0 3 0;
#X connect 9 0 12 0;
#X connect 10 0 27 0;
#X connect 13 0 28 0;
#X connect 14 0 2 0;
#X connect 15 0 29 0;
#X connect 23 0 30 0;
#X connect 23 1 31 0;
#X connect 27 0 11 0;
#X connect 27 0 9 0;
#X connect 28 0 33 0;
#X connect 28 0 32 0;
#X connect 29 0 41 0;
#X connect 30 0 36 0;
#X connect 30 0 35 0;
#X connect 31 0 39 0;
#X connect 31 0 38 0;
#X connect 32 0 34 0;
#X connect 35 0 37 0;
#X connect 38 0 40 0;
#X connect 41 0 16 0;
#X connect 41 1 17 0;
#X connect 41 2 18 0;
#X connect 41 3 19 0;
#X connect 41 4 20 0;
#X connect 41 5 21 0;
#X connect 41 6 22 0;
#X connect 42 0 43 0;
#X connect 43 0 29 0;
#X connect 43 0 30 0;
#X connect 43 0 28 0;
#X connect 43 0 27 0;
#X connect 43 0 14 0;
#X connect 43 0 31 0;
#X connect 44 0 45 0;
#X connect 45 0 15 0;
#X connect 45 0 23 0;
#X connect 45 0 13 0;
#X connect 45 0 10 0;
#X connect 46 0 43 0;
#X connect 47 0 45 0;
#X coords 0 -1 1 1 400 350 1 100 100;
