#N canvas -1690 30 1512 1072 12;
#X declare -lib zexy;
#X obj 84 93 oscparse;
#X obj 84 119 route list;
#X obj 84 171 symbol \$1;
#X obj 84 67 netreceive -u -b 6667;
#X obj 1036 90 declare -lib zexy;
#X obj 84 196 s2l;
#X text 111 197 SYNTH;
#X obj 108 452 *~;
#X obj 108 486 dac~;
#X obj 146 452 hsl 162 19 0 1 0 0 empty empty empty -2 -10 0 12 #fcfcfc #000000 #000000 0 1;
#X obj 1036 119 loadbang;
#X msg 1036 143 \; pd dsp 1;
#X msg 1133 222 4096;
#X msg 1040 223 2;
#X obj 76 527 live-analysis 1;
#X obj 1040 247 s 1-history;
#X obj 1133 246 s 1-fftsettings;
#X obj 1254 246 s 1-lop-freq;
#X obj 673 63 netreceive -u -b 6668;
#X obj 673 86 oscparse;
#X obj 673 112 route list;
#X obj 673 164 symbol \$1;
#X obj 673 189 s2l;
#X text 700 190 SYNTH;
#X obj 703 447 *~;
#X obj 703 481 dac~;
#X obj 741 447 hsl 162 19 0 1 0 0 empty empty empty -2 -10 0 12 #fcfcfc #000000 #000000 0 1;
#X obj 1133 270 s 2-fftsettings;
#X obj 1254 270 s 2-lop-freq;
#X obj 1040 271 s 2-history;
#X obj 649 529 live-analysis 2;
#X text 709 33 TARGET;
#X text 132 40 AGENT;
#X msg 1254 221 20000;
#X msg 369 961 disconnect;
#X text 418 991 UDP \, FUDI;
#X obj 313 1016 tgl 19 0 empty empty empty 0 -10 0 12 #dfdfdf #000000 #000000 0 1;
#X obj 313 987 netsend -u -b;
#X msg 313 933 connect localhost 6666;
#X obj 313 905 loadbang;
#X msg 499 968 bang;
#X obj 499 992 s agent-send-time;
#X obj 313 960 spigot;
#X obj 385 875 tgl 50 0 empty empty INTERACTION 0 -10 0 12 #faff00 #000000 #000000 0 1;
#X obj 499 942 oscformat feats loudness;
#X obj 525 876 list append;
#X obj 161 199 s agent-params;
#X obj 616 876 r agent-params;
#X msg 165 94 bang;
#X obj 165 118 s agent-response-time;
#X obj 1272 135 r agent-response-time;
#X obj 1240 110 r agent-send-time;
#X obj 1240 162 timer;
#X floatatom 1240 186 8 0 0 0 - - - 0;
#X text 1238 86 AGENT RESPONSE TIME [ms];
#X obj 84 145 route agent-params;
#X msg 618 852 0 0;
#X obj 649 852 loadbang;
#X obj 84 231 synth 1, f 12;
#X obj 673 219 synth 2, f 12;
#X obj 673 138 route target-params;
#X obj 525 852 list prepend;
#X obj 499 910 list;
#X obj 148 870 bng 19 250 50 0 empty empty empty 0 -10 0 12 #fcfcfc #000000 #000000;
#X obj 148 821 tgl 19 0 empty empty empty 0 -10 0 12 #fcfcfc #000000 #000000 0 1;
#X obj 148 845 metro 100;
#X floatatom 208 821 5 0 0 0 - - - 0;
#N canvas 92 130 309 238 controls 0;
#X obj 79 51 ctlin 19;
#X obj 147 51 ctlin 23;
#X obj 93 129 pack f f;
#X obj 79 75 / 127;
#X obj 147 75 / 127;
#X obj 147 99 t b f;
#X obj 93 153 outlet;
#X connect 0 0 3 0;
#X connect 1 0 4 0;
#X connect 2 0 6 0;
#X connect 3 0 2 0;
#X connect 4 0 5 0;
#X connect 5 0 2 0;
#X connect 5 1 2 1;
#X restore 757 191 pd controls;
#X connect 0 0 1 0;
#X connect 1 0 55 0;
#X connect 2 0 5 0;
#X connect 3 0 0 0;
#X connect 3 0 48 0;
#X connect 5 0 46 0;
#X connect 5 0 58 0;
#X connect 7 0 8 0;
#X connect 7 0 8 1;
#X connect 9 0 7 1;
#X connect 10 0 11 0;
#X connect 12 0 16 0;
#X connect 12 0 27 0;
#X connect 13 0 15 0;
#X connect 13 0 29 0;
#X connect 14 0 61 1;
#X connect 18 0 19 0;
#X connect 19 0 20 0;
#X connect 20 0 60 0;
#X connect 21 0 22 0;
#X connect 22 0 59 0;
#X connect 24 0 25 0;
#X connect 24 0 25 1;
#X connect 26 0 24 1;
#X connect 30 0 61 0;
#X connect 33 0 17 0;
#X connect 33 0 28 0;
#X connect 34 0 37 0;
#X connect 37 0 36 0;
#X connect 38 0 37 0;
#X connect 39 0 38 0;
#X connect 40 0 41 0;
#X connect 42 0 37 0;
#X connect 43 0 42 1;
#X connect 44 0 40 0;
#X connect 44 0 42 0;
#X connect 45 0 62 1;
#X connect 45 0 44 0;
#X connect 47 0 45 1;
#X connect 48 0 49 0;
#X connect 50 0 52 1;
#X connect 51 0 52 0;
#X connect 52 0 53 0;
#X connect 55 0 2 0;
#X connect 56 0 45 1;
#X connect 57 0 56 0;
#X connect 58 0 7 0;
#X connect 58 0 14 0;
#X connect 59 0 24 0;
#X connect 59 0 30 0;
#X connect 60 0 21 0;
#X connect 61 0 45 0;
#X connect 63 0 62 0;
#X connect 64 0 65 0;
#X connect 65 0 63 0;
#X connect 66 0 65 1;
#X connect 67 0 59 0;
