#N canvas 0 38 1411 568 12;
#X obj 754 73 inlet~;
#X obj 694 179 fluid.loudness~;
#X obj 694 234 unpack f f, f 11;
#X obj 694 284 dbtorms;
#X obj 694 259 + 100;
#X obj 873 259 list length;
#X obj 873 181 fluid.mfcc~ 13 -maxnumcoeffs 40;
#X obj 873 235 array set \$0-mfcc.plot;
#X obj 873 282 array size \$0-mfcc.plot;
#X obj 1103 181 fluid.chroma~ 12 -numchroma 12;
#X obj 694 207 fluid.stats -history 50;
#X obj 692 332 fluid.spectralshape~;
#X obj 873 332 fluid.sinefeature~ 10;
#N canvas 0 22 450 278 (subpatch) 0;
#X array \$0-chroma 12 float 3;
#A 0 0 0 0 0 0 0 0 0 0 0 0 0;
#X coords 0 20 12 0 150 40 1 0 0;
#X restore 197 290 graph;
#X obj 873 206 fluid.stats -history 50;
#X obj 1103 205 fluid.stats -history 50;
#X obj 692 358 fluid.stats -history 50;
#X obj 873 358 fluid.stats -history 50;
#X obj 1102 361 fluid.stats -history 50;
#X obj 1103 257 list length;
#X obj 1103 233 array set \$0-chroma;
#X obj 1103 280 array size \$0-chroma;
#X obj 873 408 list length;
#X obj 873 384 array set \$0-sinefeature.freqs;
#X obj 873 431 array size \$0-sinefeature.freqs;
#X obj 1102 406 list length;
#X obj 1102 383 array set \$0-sinefeature.mags;
#X obj 1102 429 array size \$0-sinefeature.mags;
#X obj 692 382 unpack f f f f f f f;
#X msg 963 90 \$1 history;
#X msg 1072 90 \$1 fftsettings \$1 -1 -1;
#X obj 963 63 inlet;
#X obj 1072 62 inlet;
#X obj 464 165 cnv 19 160 175 empty empty sinefeature 40 12 0 12 #e3c6ff #000000 0;
#N canvas 0 22 450 278 (subpatch) 0;
#X array \$0-sinefeature.freqs 10 float 3;
#A 0 0 0 0 0 0 0 0 0 0 0;
#X coords 0 2000 10 0 150 45 1 0 0;
#X restore 469 212 graph;
#N canvas 0 22 450 278 (subpatch) 0;
#X array \$0-sinefeature.mags 10 float 3;
#A 0 0 0 0 0 0 0 0 0 0 0;
#X coords 0 1 10 0 150 45 1 0 0;
#X restore 469 280 graph;
#X obj 360 165 cnv 19 100 175 empty empty specshape 20 12 0 12 #ffe3c6 #202020 0;
#X obj 382 210 vsl 8 100 0 1 0 0 empty empty empty 0 -9 0 12 #fcfcfc #000000 #000000 0 1;
#X obj 390 210 vsl 8 100 0 1 0 0 empty empty empty 0 -9 0 12 #fcfcfc #000000 #000000 0 1;
#X obj 398 210 vsl 8 100 0 1 0 0 empty empty empty 0 -9 0 12 #fcfcfc #000000 #000000 0 1;
#X obj 406 210 vsl 8 100 0 1 0 0 empty empty empty 0 -9 0 12 #fcfcfc #000000 #000000 0 1;
#X obj 414 210 vsl 8 100 0 1 0 0 empty empty empty 0 -9 0 12 #fcfcfc #000000 #000000 0 1;
#X obj 422 210 vsl 8 100 0 1 0 0 empty empty empty 0 -9 0 12 #fcfcfc #000000 #000000 0 1;
#X obj 430 210 vsl 8 100 0 1 0 0 empty empty empty 0 -9 0 12 #fcfcfc #000000 #000000 0 1;
#X obj 186 255 cnv 19 170 85 empty empty chroma 60 12 0 12 #c6feff #000000 0;
#N canvas 0 22 450 278 (subpatch) 0;
#X array \$0-mfcc.plot 13 float 3;
#A 0 -1980.04 1.42109e-14 2.70006e-13 -2.13163e-13 2.84217e-14 -1.7053e-13 8.52651e-14 -1.42109e-14 9.9476e-14 -5.25802e-13 1.13687e-13 -3.83693e-13 0;
#X coords 0 1000 13 -1000 150 40 1 0 0;
#X restore 197 201 graph;
#X obj 186 165 cnv 19 170 85 empty empty mfcc 60 12 0 12 #ffc7c6 #000000 0;
#X obj 101 165 cnv 19 80 175 empty empty loudness 10 12 0 12 #feffc6 #202020 0;
#X obj 129 211 vsl 8 100 0 1 0 0 empty empty empty 0 -9 0 12 #fcfcfc #000000 #000000 0 1;
#X obj 137 211 vsl 8 100 0 1 0 0 empty empty empty 0 -9 0 12 #fcfcfc #000000 #000000 0 1;
#X obj 145 211 vsl 8 100 0 1 0 0 empty empty empty 0 -9 0 12 #fcfcfc #000000 #000000 0 1;
#X obj 101 101 cnv 19 523 60 empty empty ANALYSIS 330 30 0 20 #e8ebeb #202020 0;
#X floatatom 219 110 5 2 1000 1 running\ avg - - 0;
#X floatatom 220 133 5 0 0 1 fft\ window\ size - - 0;
#X obj 122 112 tgl 30 0 empty empty START 40 15 0 12 #ff0400 #000000 #000000 0 1;
#X obj 794 115 *~;
#X obj 812 84 spigot;
#X obj 130 61 loadbang;
#X connect 0 0 55 0;
#X connect 1 0 10 0;
#X connect 2 0 4 0;
#X connect 2 0 48 0;
#X connect 2 1 49 0;
#X connect 3 0 50 0;
#X connect 4 0 3 0;
#X connect 5 0 8 0;
#X connect 6 0 14 0;
#X connect 9 0 15 0;
#X connect 10 0 2 0;
#X connect 11 0 16 0;
#X connect 12 0 17 0;
#X connect 12 1 18 0;
#X connect 14 0 7 0;
#X connect 14 0 5 0;
#X connect 15 0 20 0;
#X connect 15 0 19 0;
#X connect 16 0 28 0;
#X connect 17 0 23 0;
#X connect 17 0 22 0;
#X connect 18 0 26 0;
#X connect 18 0 25 0;
#X connect 19 0 21 0;
#X connect 22 0 24 0;
#X connect 25 0 27 0;
#X connect 28 0 37 0;
#X connect 28 1 38 0;
#X connect 28 2 39 0;
#X connect 28 3 40 0;
#X connect 28 4 41 0;
#X connect 28 5 42 0;
#X connect 28 6 43 0;
#X connect 29 0 16 0;
#X connect 29 0 17 0;
#X connect 29 0 15 0;
#X connect 29 0 14 0;
#X connect 29 0 10 0;
#X connect 29 0 18 0;
#X connect 30 0 11 0;
#X connect 30 0 12 0;
#X connect 30 0 9 0;
#X connect 30 0 6 0;
#X connect 31 0 29 0;
#X connect 31 0 52 0;
#X connect 32 0 30 0;
#X connect 32 0 53 0;
#X connect 54 0 56 0;
#X connect 55 0 1 0;
#X connect 55 0 11 0;
#X connect 55 0 6 0;
#X connect 55 0 12 0;
#X connect 55 0 9 0;
#X connect 56 0 55 1;
#X connect 57 0 54 0;
#X coords 0 -1 1 1 526 242 1 100 100;
