#N canvas -1661 306 902 628 12;
#X declare -lib zexy;
#X obj 93 108 oscparse;
#X obj 93 134 route list;
#X obj 93 186 symbol \$1;
#X text 134 56 OSC RECEIVE;
#X obj 93 82 netreceive -u -b 6667;
#X obj 283 81 declare -lib zexy;
#X obj 93 211 s2l;
#X text 120 212 SYNTH;
#X obj 93 327 *~;
#X obj 93 361 dac~;
#X obj 131 327 hsl 162 19 0 1 0 0 empty empty empty -2 -10 0 12 #fcfcfc #000000 #000000 0 1;
#X obj 93 160 route params;
#X obj 93 239 synth, f 12;
#X obj 283 110 loadbang;
#X msg 283 134 \; pd dsp 1;
#X obj 393 237 live-analysis;
#X connect 0 0 1 0;
#X connect 1 0 11 0;
#X connect 2 0 6 0;
#X connect 4 0 0 0;
#X connect 6 0 12 0;
#X connect 8 0 9 0;
#X connect 8 0 9 1;
#X connect 10 0 8 1;
#X connect 11 0 2 0;
#X connect 12 0 8 0;
#X connect 12 0 15 0;
#X connect 13 0 14 0;
