#N canvas -1628 -220 1214 949 12;
#X declare -lib zexy;
#X obj 626 56 cnv 19 380 550 empty empty Musician 100 35 0 30 #c6feff #000000 0;
#X obj 65 61 cnv 19 380 550 empty empty Agent 100 35 0 30 #feffc6 #000000 0;
#X obj 102 166 oscparse;
#X obj 102 192 route list;
#X obj 102 244 symbol \$1;
#X obj 102 140 netreceive -u -b 6667;
#X obj 102 269 s2l;
#X obj 117 518 *~;
#X obj 155 518 hsl 162 19 0 1 0 0 empty empty volume 10 10 0 12 #fcfcfc #000000 #000000 0 1;
#X obj 51 648 live-analysis 1;
#X obj 727 501 *~;
#X obj 765 501 hsl 162 19 0 1 0 0 empty empty volume 10 10 0 12 #fcfcfc #000000 #000000 0 1;
#X obj 612 647 live-analysis 2;
#X obj 1036 127 tgl 50 0 empty empty INTERACTION 0 -10 0 12 #faff00 #000000 #000000 0 1;
#X obj 135 270 s agent-params;
#X msg 183 167 bang;
#X obj 183 191 s agent-response-time;
#X obj 102 218 route agent-params;
#X obj 102 299 synth 1, f 12;
#X obj 612 898 s target-analysis;
#X obj 51 899 s agent-analysis;
#N canvas 208 246 961 307 init-interaction 0;
#X obj 740 55 declare -lib zexy;
#X obj 740 84 loadbang;
#X msg 740 108 \; pd dsp 1;
#X obj 543 213 s 1-history;
#X obj 636 212 s 1-fftsettings;
#X obj 757 212 s 1-lop-freq;
#X obj 636 236 s 2-fftsettings;
#X obj 757 236 s 2-lop-freq;
#X obj 543 237 s 2-history;
#X msg 757 187 20000;
#X msg 150 161 disconnect;
#X text 199 191 UDP \, FUDI;
#X obj 94 216 tgl 19 0 empty empty empty 0 -10 0 12 #dfdfdf #000000 #000000 0 1;
#X obj 94 187 netsend -u -b;
#X msg 94 133 connect localhost 6666;
#X obj 94 105 loadbang;
#X msg 280 168 bang;
#X obj 280 192 s agent-send-time;
#X obj 94 160 spigot;
#X obj 166 75 tgl 50 0 empty empty INTERACTION 0 -10 0 12 #faff00 #000000 #000000 0 1;
#X obj 280 142 oscformat feats loudness;
#X obj 280 114 list append;
#X obj 371 114 r agent-params;
#X obj 572 97 r agent-response-time;
#X obj 540 72 r agent-send-time;
#X obj 540 124 timer;
#X floatatom 540 148 8 0 0 0 - - - 0;
#X text 538 48 AGENT RESPONSE TIME [ms];
#X obj 421 90 loadbang;
#X obj 280 90 list prepend;
#X msg 636 188 256;
#X msg 543 189 100;
#X obj 280 57 r target-analysis;
#X obj 407 57 r agent-analysis;
#X obj 111 29 inlet;
#X msg 373 90 0 0;
#X connect 1 0 2 0;
#X connect 1 0 30 0;
#X connect 1 0 31 0;
#X connect 9 0 5 0;
#X connect 9 0 7 0;
#X connect 10 0 13 0;
#X connect 13 0 12 0;
#X connect 14 0 13 0;
#X connect 15 0 14 0;
#X connect 16 0 17 0;
#X connect 18 0 13 0;
#X connect 19 0 18 1;
#X connect 20 0 16 0;
#X connect 20 0 18 0;
#X connect 21 0 20 0;
#X connect 22 0 21 1;
#X connect 23 0 25 1;
#X connect 24 0 25 0;
#X connect 25 0 26 0;
#X connect 28 0 35 0;
#X connect 29 0 21 0;
#X connect 30 0 4 0;
#X connect 30 0 6 0;
#X connect 31 0 3 0;
#X connect 31 0 8 0;
#X connect 32 0 29 0;
#X connect 33 0 29 1;
#X connect 34 0 18 1;
#X connect 35 0 21 1;
#X restore 1036 185 pd init-interaction;
#X obj 117 552 dac~ 1;
#X obj 727 531 dac~ 2;
#X obj 176 552 s~ \$0-L-out;
#X obj 792 530 s~ \$0-R-out;
#X obj 1039 241 tgl 25 0 empty empty RECORD 0 -10 0 12 #ff0400 #000000 #000000 0 1;
#N canvas 121 159 239 297 record 0;
#X obj 51 50 inlet;
#X obj 38 233 writesf~ 2;
#X obj 38 181 r~ \$0-L-out;
#X obj 105 207 r~ \$0-R-out;
#X msg 51 158 start;
#X msg 98 158 stop;
#X msg 38 132 open recording.wav;
#X obj 51 80 sel 1, f 7;
#X obj 51 104 t b b, f 7;
#X connect 0 0 7 0;
#X connect 2 0 1 0;
#X connect 3 0 1 1;
#X connect 4 0 1 0;
#X connect 5 0 1 0;
#X connect 6 0 1 0;
#X connect 7 0 8 0;
#X connect 7 1 5 0;
#X connect 8 0 4 0;
#X connect 8 1 6 0;
#X restore 1039 274 pd record;
#X obj 700 291 synth 2, f 12;
#X obj 700 136 netreceive -u -b 6668;
#X obj 700 159 oscparse;
#X obj 700 185 route list;
#X obj 700 237 symbol \$1;
#X obj 700 262 s2l;
#X obj 700 211 route target-params;
#N canvas 92 130 309 238 MIDI-controller 0;
#X obj 79 51 ctlin 19;
#X obj 147 51 ctlin 23;
#X obj 79 75 / 127;
#X obj 147 75 / 127;
#X obj 147 99 t b f;
#X obj 93 153 outlet;
#X obj 214 75 / 127;
#X obj 214 99 t b f;
#X obj 214 51 ctlin 27;
#X obj 93 129 pack f f f;
#X connect 0 0 2 0;
#X connect 1 0 3 0;
#X connect 2 0 9 0;
#X connect 3 0 4 0;
#X connect 4 0 9 0;
#X connect 4 1 9 1;
#X connect 6 0 7 0;
#X connect 7 0 9 0;
#X connect 7 1 9 2;
#X connect 8 0 6 0;
#X connect 9 0 5 0;
#X restore 734 261 pd MIDI-controller;
#X connect 2 0 3 0;
#X connect 3 0 17 0;
#X connect 4 0 6 0;
#X connect 5 0 2 0;
#X connect 5 0 15 0;
#X connect 6 0 14 0;
#X connect 6 0 18 0;
#X connect 7 0 22 0;
#X connect 7 0 24 0;
#X connect 8 0 7 1;
#X connect 9 0 20 0;
#X connect 10 0 23 0;
#X connect 10 0 25 0;
#X connect 11 0 10 1;
#X connect 12 0 19 0;
#X connect 13 0 21 0;
#X connect 15 0 16 0;
#X connect 17 0 4 0;
#X connect 18 0 7 0;
#X connect 18 0 9 0;
#X connect 26 0 27 0;
#X connect 28 0 12 0;
#X connect 28 0 10 0;
#X connect 29 0 30 0;
#X connect 30 0 31 0;
#X connect 31 0 34 0;
#X connect 32 0 33 0;
#X connect 33 0 28 0;
#X connect 34 0 32 0;
#X connect 35 0 28 0;
