#N canvas 280 185 401 300 12;
#X obj 274 200 osc~;
#X obj 274 224 *~;
#X obj 274 149 *~ 2500;
#X obj 274 173 +~ 20;
#X obj 274 248 outlet~;
#X obj 114 68 unpack f f;
#X obj 114 41 inlet;
#X obj 117 149 hsl 120 19 0 1 0 0 empty empty amplitude 3 10 0 12 #dfdfdf #000000 #000000 0 1;
#X obj 117 123 hsl 120 19 0 1 0 0 empty empty frequency 3 10 0 12 #ffe3c6 #000000 #000000 0 1;
#X msg 173 192 \$1 1.4;
#X obj 173 216 line~;
#X msg 114 192 \$1 1.4;
#X obj 114 216 line~;
#X connect 0 0 1 0;
#X connect 1 0 4 0;
#X connect 2 0 3 0;
#X connect 3 0 0 0;
#X connect 5 0 8 0;
#X connect 5 1 7 0;
#X connect 6 0 5 0;
#X connect 7 0 11 0;
#X connect 8 0 9 0;
#X connect 9 0 10 0;
#X connect 10 0 2 0;
#X connect 11 0 12 0;
#X connect 12 0 1 1;
#X coords 0 -1 1 1 150 80 1 100 100;
