#N canvas 266 304 569 326 12;
#X obj 132 60 tgl 19 0 empty empty empty 0 -10 0 12 #fcfcfc #000000 #000000 0 1;
#X obj 86 120 random 1000;
#X obj 86 144 / 1000;
#X obj 173 119 random 1000;
#X obj 173 143 / 1000;
#X obj 109 185 pack f f;
#X obj 132 84 metro 200;
#X obj 346 70 netreceive -u -b 6668;
#X obj 346 93 oscparse;
#X obj 346 119 route list;
#X obj 346 171 symbol \$1;
#X obj 346 196 s2l;
#X text 373 197 SYNTH;
#X obj 346 145 route target-params;
#N canvas 92 130 309 238 MIDI-controller 0;
#X obj 79 51 ctlin 19;
#X obj 147 51 ctlin 23;
#X obj 93 129 pack f f;
#X obj 79 75 / 127;
#X obj 147 75 / 127;
#X obj 147 99 t b f;
#X obj 93 153 outlet;
#X connect 0 0 3 0;
#X connect 1 0 4 0;
#X connect 2 0 6 0;
#X connect 3 0 2 0;
#X connect 4 0 5 0;
#X connect 5 0 2 0;
#X connect 5 1 2 1;
#X restore 158 260 pd MIDI-controller;
#X connect 0 0 6 0;
#X connect 1 0 2 0;
#X connect 2 0 5 0;
#X connect 3 0 4 0;
#X connect 4 0 5 1;
#X connect 6 0 1 0;
#X connect 6 0 3 0;
#X connect 7 0 8 0;
#X connect 8 0 9 0;
#X connect 9 0 13 0;
#X connect 10 0 11 0;
#X connect 13 0 10 0;
