#N canvas 215 38 699 552 12;
#X declare -lib zexy;
#X obj 150 185 vsl 19 162 0 1 0 0 empty empty empty 0 -9 0 12 #ffc7c6 #000000 #000000 0 1;
#X obj 405 324 line~;
#X obj 405 372 osc~;
#X obj 405 396 *~;
#X obj 225 184 vsl 19 162 0 1 0 0 empty empty empty 0 -9 0 12 #ffe3c6 #000000 #000000 0 1;
#X obj 493 325 line~;
#X text 125 153 frequency;
#X text 210 153 amplitude;
#X obj 412 237 unpack 0 0, f 13;
#X obj 412 104 oscparse;
#X obj 412 130 route list;
#X obj 412 182 symbol \$1;
#X text 434 54 OSC RECEIVE;
#X obj 412 78 netreceive -u -b 6667;
#X obj 412 156 route result;
#X obj 156 50 declare -lib zexy;
#X obj 412 207 s2l;
#X obj 405 429 throw~ agent;
#X obj 405 348 *~ 2500;
#X msg 405 300 \$1 5;
#X msg 493 301 \$1 5;
#X obj 102 450 outlet;
#X obj 204 451 outlet;
#X connect 0 0 19 0;
#X connect 1 0 18 0;
#X connect 2 0 3 0;
#X connect 3 0 17 0;
#X connect 4 0 20 0;
#X connect 5 0 3 1;
#X connect 8 0 0 0;
#X connect 8 0 21 0;
#X connect 8 1 4 0;
#X connect 8 1 22 0;
#X connect 9 0 10 0;
#X connect 10 0 14 0;
#X connect 11 0 16 0;
#X connect 13 0 9 0;
#X connect 14 0 11 0;
#X connect 16 0 8 0;
#X connect 18 0 2 0;
#X connect 19 0 1 0;
#X connect 20 0 5 0;
#X coords 0 -1 1 1 200 300 1 100 100;
