#N canvas 158 55 933 815 12;
#X obj 150 198 vsl 19 162 0 1 0 0 empty empty empty 0 -9 0 12 #ffc7c6 #000000 #000000 0 1;
#X msg 431 260 \$1 20;
#X obj 431 284 line~;
#X obj 431 332 osc~;
#X obj 431 356 *~;
#X obj 227 200 vsl 19 162 0 1 0 0 empty empty empty 0 -9 0 12 #ffe3c6 #000000 #000000 0 1;
#X msg 519 261 \$1 20;
#X obj 519 285 line~;
#X text 125 166 frequency;
#X text 210 166 amplitude;
#X obj 452 133 ctlin 19;
#X obj 540 134 ctlin 23;
#X floatatom 452 157 5 0 0 0 - - - 0;
#X floatatom 540 158 5 0 0 0 - - - 0;
#X obj 452 180 / 127;
#X obj 540 181 / 127;
#X obj 431 435 throw~ target;
#X text 451 90 AUDIO IN - TARGET SOUND;
#X obj 431 308 *~ 2500;
#X obj 634 589 throw~ target;
#X obj 431 399 *~;
#X obj 145 131 tgl 19 0 empty empty record 25 10 0 12 #ff0400 #000000 #000000 0 1;
#X obj 499 399 loadbang;
#X obj 634 501 adc~ 1;
#X floatatom 675 531 5 0 0 0 - - - 0;
#X obj 634 531 *~ 3;
#X obj 634 559 *~;
#X obj 670 559 tgl 19 0 empty empty empty 0 -10 0 12 #fcfcfc #000000 #000000 0 1;
#X connect 0 0 1 0;
#X connect 1 0 2 0;
#X connect 2 0 18 0;
#X connect 3 0 4 0;
#X connect 4 0 20 0;
#X connect 5 0 6 0;
#X connect 6 0 7 0;
#X connect 7 0 4 1;
#X connect 10 0 12 0;
#X connect 11 0 13 0;
#X connect 12 0 14 0;
#X connect 13 0 15 0;
#X connect 14 0 0 0;
#X connect 15 0 5 0;
#X connect 18 0 3 0;
#X connect 20 0 16 0;
#X connect 21 0 20 1;
#X connect 22 0 21 0;
#X connect 23 0 25 0;
#X connect 24 0 25 1;
#X connect 25 0 26 0;
#X connect 26 0 19 0;
#X connect 27 0 26 1;
#X coords 0 -1 1 1 200 300 1 100 100;
