#N canvas -1266 -220 1265 931 12;
#X obj 117 445 server-connector;
#X obj 382 78 sin-agent;
#X obj 243 1033 sin-musician;
#X obj 614 1137 writesf~ 2;
#X msg 616 1075 start;
#X msg 676 1089 stop;
#X obj 794 1030 catch~ out-1;
#X obj 795 1064 catch~ out-2;
#X obj 145 164 adc~ 1;
#X obj 145 212 throw~ target;
#X obj 145 188 *~ 3;
#X floatatom 184 189 5 0 0 0 - - - 0;
#X msg 600 1039 open guit-sin-agent.wav;
#X text 137 106 MUSICIAN SOUND;
#X text 447 40 AGENT;
#X connect 1 0 0 0;
#X connect 1 1 0 1;
#X connect 4 0 3 0;
#X connect 5 0 3 0;
#X connect 6 0 3 0;
#X connect 7 0 3 1;
#X connect 8 0 10 0;
#X connect 10 0 9 0;
#X connect 11 0 10 1;
#X connect 12 0 3 0;
