#N canvas -2516 -52 1190 914 12;
#X declare -lib zexy;
#X obj 100 409 vsl 19 162 0 1 0 0 empty empty empty 0 -9 0 12 #fcfcfc #000000 #000000 0 1;
#X msg 100 579 \$1 20;
#X obj 100 603 line~;
#X obj 100 651 osc~;
#X obj 100 675 *~;
#X obj 188 410 vsl 19 162 0 1 0 0 empty empty empty 0 -9 0 12 #fcfcfc #000000 #000000 0 1;
#X msg 188 580 \$1 20;
#X obj 188 604 line~;
#X text 75 377 frequency;
#X text 171 376 amplitude;
#X obj 100 330 unpack 0 0, f 13;
#X obj 100 197 oscparse;
#X obj 100 223 route list;
#X obj 100 275 symbol \$1;
#X obj 100 171 netreceive -u -b 6667;
#X obj 100 249 route result;
#X obj 75 33 declare -lib zexy;
#X obj 100 300 s2l;
#X obj 100 627 *~ 2500;
#X text 122 147 AGENT;
#X obj 332 406 vsl 19 162 0 1 0 0 empty empty empty 0 -9 0 12 #fcfcfc #000000 #000000 0 1;
#X msg 332 576 \$1 20;
#X obj 332 600 line~;
#X obj 332 648 osc~;
#X obj 332 672 *~;
#X obj 420 407 vsl 19 162 0 1 0 0 empty empty empty 0 -9 0 12 #fcfcfc #000000 #000000 0 1;
#X msg 420 577 \$1 20;
#X obj 420 601 line~;
#X text 307 374 frequency;
#X text 403 373 amplitude;
#X obj 332 327 unpack 0 0, f 13;
#X obj 332 194 oscparse;
#X obj 332 220 route list;
#X obj 332 272 symbol \$1;
#X obj 332 246 route result;
#X obj 332 297 s2l;
#X obj 332 624 *~ 2500;
#X text 354 144 TARGET;
#X obj 332 168 netreceive -u -b 6668;
#X obj 208 778 dac~, f 5;
#X obj 208 745 *~;
#X obj 247 744 hsl 162 19 0 1 0 0 empty empty empty -2 -10 0 12 #fcfcfc #000000 #000000 0 1;
#X obj 661 576 fluid.loudness~;
#X obj 661 651 dbtorms;
#X obj 661 626 + 100;
#X obj 661 601 unpack f;
#X obj 543 576 fluid.loudness~;
#X obj 543 651 dbtorms;
#X obj 543 626 + 100;
#X obj 543 601 unpack f;
#X floatatom 661 717 5 0 0 0 - - - 0;
#X floatatom 543 717 5 0 0 0 - - - 0;
#X obj 543 677 fluid.stats -history 350, f 12;
#X obj 661 677 fluid.stats -history 350, f 13;
#X obj 790 576 fluid.spectralshape~;
#X floatatom 790 666 10 0 0 0 - - - 0;
#X obj 790 600 fluid.stats -history 50, f 13;
#X obj 790 640 unpack 0;
#X obj 950 575 fluid.spectralshape~;
#X floatatom 950 665 10 0 0 0 - - - 0;
#X obj 950 599 fluid.stats -history 50, f 13;
#X obj 950 639 unpack 0;
#X connect 0 0 1 0;
#X connect 1 0 2 0;
#X connect 2 0 18 0;
#X connect 3 0 4 0;
#X connect 4 0 40 0;
#X connect 4 0 46 0;
#X connect 4 0 54 0;
#X connect 5 0 6 0;
#X connect 6 0 7 0;
#X connect 7 0 4 1;
#X connect 10 0 0 0;
#X connect 10 1 5 0;
#X connect 11 0 12 0;
#X connect 12 0 15 0;
#X connect 13 0 17 0;
#X connect 14 0 11 0;
#X connect 15 0 13 0;
#X connect 17 0 10 0;
#X connect 18 0 3 0;
#X connect 20 0 21 0;
#X connect 21 0 22 0;
#X connect 22 0 36 0;
#X connect 23 0 24 0;
#X connect 24 0 40 0;
#X connect 24 0 42 0;
#X connect 24 0 58 0;
#X connect 25 0 26 0;
#X connect 26 0 27 0;
#X connect 27 0 24 1;
#X connect 30 0 20 0;
#X connect 30 1 25 0;
#X connect 31 0 32 0;
#X connect 32 0 34 0;
#X connect 33 0 35 0;
#X connect 34 0 33 0;
#X connect 35 0 30 0;
#X connect 36 0 23 0;
#X connect 38 0 31 0;
#X connect 40 0 39 0;
#X connect 40 0 39 1;
#X connect 41 0 40 1;
#X connect 42 0 45 0;
#X connect 43 0 53 0;
#X connect 44 0 43 0;
#X connect 45 0 44 0;
#X connect 46 0 49 0;
#X connect 47 0 52 0;
#X connect 48 0 47 0;
#X connect 49 0 48 0;
#X connect 52 0 51 0;
#X connect 53 0 50 0;
#X connect 54 0 56 0;
#X connect 56 0 57 0;
#X connect 57 0 55 0;
#X connect 58 0 60 0;
#X connect 60 0 61 0;
#X connect 61 0 59 0;
