#N canvas -2557 -218 2560 1387 12;
#X declare -lib zexy;
#X obj 509 379 vsl 19 162 0 1 0 0 empty empty empty 0 -9 0 12 #fcfcfc #000000 #000000 0 1;
#X obj 509 573 line~;
#X obj 509 621 osc~;
#X obj 509 645 *~;
#X obj 597 380 vsl 19 162 0 1 0 0 empty empty empty 0 -9 0 12 #fcfcfc #000000 #000000 0 1;
#X obj 597 574 line~;
#X text 484 347 frequency;
#X text 580 346 amplitude;
#X obj 509 300 unpack 0 0, f 13;
#X obj 509 167 oscparse;
#X obj 509 193 route list;
#X obj 509 245 symbol \$1;
#X text 531 117 OSC RECEIVE;
#X obj 509 141 netreceive -u -b 6667;
#X obj 509 219 route result;
#X obj 685 141 declare -lib zexy;
#X obj 509 270 s2l;
#X obj 490 1216 fluid.loudness~;
#X obj 490 1301 unpack f f, f 11;
#X floatatom 490 1362 5 0 0 2 loudness - - 0;
#X floatatom 563 1360 5 0 0 2 peak - - 0;
#X obj 607 1303 dbtorms;
#X floatatom 611 1351 5 0 0 2 loudness\ (RMS) - - 0;
#X obj 607 1275 + 100;
#X obj 105 342 vsl 19 162 0 1 0 0 empty empty empty 0 -9 0 12 #fcfcfc #000000 #000000 0 1;
#X msg 105 512 \$1 20;
#X obj 105 536 line~;
#X obj 105 584 osc~;
#X obj 105 608 *~;
#X obj 193 343 vsl 19 162 0 1 0 0 empty empty empty 0 -9 0 12 #fcfcfc #000000 #000000 0 1;
#X msg 193 513 \$1 20;
#X obj 193 537 line~;
#X text 80 310 frequency;
#X text 176 309 amplitude;
#X obj 1176 1234 fluid.loudness~;
#X obj 1176 1292 unpack f f;
#X floatatom 1176 1354 5 0 0 2 loudness - - 0;
#X floatatom 1243 1354 5 0 0 2 peak - - 0;
#X obj 1291 1318 dbtorms;
#X floatatom 1292 1354 5 0 0 2 loudness\ (RMS) - - 0;
#X obj 1291 1290 + 100;
#X msg 259 1540 disconnect;
#X text 344 1606 UDP \, FUDI;
#X obj 240 1633 tgl 19 0 empty empty empty 0 -10 0 12 #dfdfdf #000000 #000000 0 1;
#X obj 240 1604 netsend -u -b;
#X msg 240 1510 connect localhost 6666;
#X obj 240 1480 loadbang;
#X obj 105 222 ctlin 19;
#X obj 193 223 ctlin 23;
#X floatatom 105 246 5 0 0 0 - - - 0;
#X floatatom 193 247 5 0 0 0 - - - 0;
#X obj 105 269 / 127;
#X obj 193 270 / 127;
#X obj 549 1563 oscformat feats loudness;
#X obj 539 918 tgl 19 0 empty empty empty 0 -10 0 12 #fcfcfc #000000 #000000 0 1;
#X obj 539 942 metro 100;
#X obj 539 966 bng 19 250 50 0 empty empty empty 0 -10 0 12 #fcfcfc #000000 #000000;
#X floatatom 599 917 5 0 0 0 - - - 0;
#N canvas 0 22 450 278 (subpatch) 0;
#X array \$0-mfcc.plot 13 float 3;
#A 0 -1980.04 1.42109e-14 2.70006e-13 -2.13163e-13 2.84217e-14 -1.7053e-13 8.52651e-14 -1.42109e-14 9.9476e-14 -5.25802e-13 1.13687e-13 -3.83693e-13 0;
#X coords 0 1000 13 -1000 200 140 1 0 0;
#X restore 1146 147 graph;
#X obj 719 1318 list length;
#X obj 716 1257 fluid.mfcc~ 13 -maxnumcoeffs 40;
#X obj 717 1288 array set \$0-mfcc.plot;
#X obj 719 1340 array size \$0-mfcc.plot;
#X obj 666 1432 unpack f f f f f f f f f f f f f;
#X obj 1402 1300 list length;
#X obj 1402 1273 fluid.mfcc~ 13 -maxnumcoeffs 40;
#X obj 1147 1438 unpack f f f f f f f f f f f f f;
#X obj 1402 1347 array set \$0-mfcc-target.plot;
#X obj 1402 1322 array size \$0-mfcc-target.plot;
#N canvas 0 22 450 278 (subpatch) 0;
#X array \$0-mfcc-target.plot 13 float 3;
#A 0 -1980.04 1.42109e-14 2.70006e-13 -2.13163e-13 2.84217e-14 -1.7053e-13 8.52651e-14 -1.42109e-14 9.9476e-14 -5.25802e-13 1.13687e-13 -3.83693e-13 0;
#X coords 0 1000 13 -1000 200 140 1 0 0;
#X restore 1144 377 graph;
#X obj 926 1386 fluid.spectralshape~;
#X obj 926 1439 unpack 0 0 0 0 0 0 0;
#X floatatom 968 1220 10 0 0 0 - - - 0;
#X floatatom 968 1241 10 0 0 0 - - - 0;
#X floatatom 968 1262 10 0 0 0 - - - 0;
#X floatatom 968 1283 10 0 0 0 - - - 0;
#X floatatom 968 1304 10 0 0 0 - - - 0;
#X floatatom 968 1325 10 0 0 0 - - - 0;
#X floatatom 968 1346 10 0 0 0 - - - 0;
#X text 1043 1220 centroid(Hz):;
#X text 1043 1241 spread(Hz):;
#X text 1043 1262 skewness(ratio):;
#X text 1043 1283 kurtosis(ratio):;
#X text 1043 1304 rolloff(Hz):;
#X text 1043 1325 flatness(dB):;
#X text 1043 1346 crest(dB):;
#X obj 1435 1388 fluid.spectralshape~;
#X obj 1435 1437 unpack 0 0 0 0 0 0 0;
#X floatatom 1682 1335 10 0 0 0 - - - 0;
#X floatatom 1682 1356 10 0 0 0 - - - 0;
#X floatatom 1682 1377 10 0 0 0 - - - 0;
#X floatatom 1682 1398 10 0 0 0 - - - 0;
#X floatatom 1682 1419 10 0 0 0 - - - 0;
#X floatatom 1682 1440 10 0 0 0 - - - 0;
#X floatatom 1682 1461 10 0 0 0 - - - 0;
#X text 1757 1335 centroid(Hz):;
#X text 1757 1356 spread(Hz):;
#X text 1757 1377 skewness(ratio):;
#X text 1757 1398 kurtosis(ratio):;
#X text 1757 1419 rolloff(Hz):;
#X text 1757 1440 flatness(dB):;
#X text 1757 1461 crest(dB):;
#X obj 551 1469 pack 0 f f f f f f f f f f f f f f f f f f f f f f f f f f f f f f f f f f f f f f f f f f f f f f f f, f 152;
#X obj 551 1498 unpack 0 f f f f f f f f f f f f f f f f f f f f f f f f f f f f f f f f f f f f f f f f f f f f f f f f, f 152;
#X obj 549 1533 pack f f f f f f f f f f f f f f f f f f f f f f f f f f f f f f f f f f f f f f f f f f f f f f f f, f 152;
#X obj 509 678 throw~ agent;
#X obj 716 1038 catch~ agent;
#X obj 105 687 throw~ target;
#X obj 1259 1034 catch~ target;
#X text 104 179 AUDIO IN - TARGET SOUND;
#X obj 509 597 *~ 2500;
#X obj 105 560 *~ 2500;
#X msg 509 549 \$1 5;
#X msg 597 550 \$1 5;
#X obj 287 678 throw~ target;
#X obj 105 651 *~;
#X obj 144 651 tgl 19 0 empty empty empty 0 -10 0 12 #fcfcfc #000000 #000000 0 1;
#X obj 810 752 *~;
#X obj 849 752 tgl 19 0 empty empty empty 0 -10 0 12 #fcfcfc #000000 #000000 0 1;
#X obj 173 651 loadbang;
#X obj 810 698 catch~ audio-in;
#X floatatom 849 722 5 0 0 0 - - - 0;
#X obj 810 722 *~ 5;
#X obj 287 590 adc~ 1;
#X obj 952 1158 dac~, f 5;
#X obj 952 1125 *~;
#X obj 991 1124 hsl 162 19 0 1 0 0 empty empty empty -2 -10 0 12 #fcfcfc #000000 #000000 0 1;
#X floatatom 328 620 5 0 0 0 - - - 0;
#X obj 871 1659 vsl 19 64 0 1 0 0 empty empty loudness 0 -9 0 12 #feffc6 #000000 #000000 0 1;
#X obj 808 1659 vsl 19 64 0 2500 0 0 empty empty centroid 0 -9 0 12 #ffc7c6 #000000 #000000 0 1;
#X obj 1049 1666 vsl 19 64 0 1 0 0 empty empty loudness 0 -9 0 12 #feffc6 #000000 #000000 0 1;
#X obj 986 1666 vsl 19 64 0 2500 0 0 empty empty centroid 0 -9 0 12 #ffc7c6 #000000 #000000 0 1;
#X obj 287 620 *~ 3;
#X obj 287 648 *~;
#X obj 323 648 tgl 19 0 empty empty empty 0 -10 0 12 #fcfcfc #000000 #000000 0 1;
#X obj 666 1404 fluid.stats history -100;
#X obj 926 1412 fluid.stats history -100;
#X obj 490 1242 fluid.stats history -100;
#X obj 1176 1265 fluid.stats history -100;
#X obj 1435 1413 fluid.stats history -100;
#X obj 1147 1412 fluid.stats history -100;
#X obj 1244 1619 vsl 19 64 0 2500 0 0 empty empty empty 0 -9 0 12 #c6ffc7 #000000 #000000 0 1;
#X obj 1263 1619 vsl 19 64 0 2500 0 0 empty empty empty 0 -9 0 12 #c6ffc7 #000000 #000000 0 1;
#X obj 1282 1619 vsl 19 64 0 2500 0 0 empty empty empty 0 -9 0 12 #c6ffc7 #000000 #000000 0 1;
#X obj 1301 1619 vsl 19 64 0 2500 0 0 empty empty empty 0 -9 0 12 #c6ffc7 #000000 #000000 0 1;
#X obj 1320 1619 vsl 19 64 0 2500 0 0 empty empty empty 0 -9 0 12 #c6ffc7 #000000 #000000 0 1;
#X obj 1339 1619 vsl 19 64 0 2500 0 0 empty empty empty 0 -9 0 12 #c6ffc7 #000000 #000000 0 1;
#X obj 1358 1619 vsl 19 64 0 2500 0 0 empty empty empty 0 -9 0 12 #c6ffc7 #000000 #000000 0 1;
#X obj 1625 747 server-connector;
#X connect 0 0 112 0;
#X connect 1 0 110 0;
#X connect 2 0 3 0;
#X connect 3 0 105 0;
#X connect 4 0 113 0;
#X connect 5 0 3 1;
#X connect 8 0 0 0;
#X connect 8 0 102 47;
#X connect 8 0 148 0;
#X connect 8 1 4 0;
#X connect 8 1 102 48;
#X connect 8 1 148 1;
#X connect 9 0 10 0;
#X connect 10 0 14 0;
#X connect 11 0 16 0;
#X connect 13 0 9 0;
#X connect 14 0 11 0;
#X connect 16 0 8 0;
#X connect 17 0 137 0;
#X connect 18 0 19 0;
#X connect 18 0 102 1;
#X connect 18 1 20 0;
#X connect 18 1 102 2;
#X connect 19 0 23 0;
#X connect 21 0 22 0;
#X connect 21 0 102 3;
#X connect 21 0 128 0;
#X connect 23 0 21 0;
#X connect 24 0 25 0;
#X connect 25 0 26 0;
#X connect 26 0 111 0;
#X connect 27 0 28 0;
#X connect 28 0 115 0;
#X connect 29 0 30 0;
#X connect 30 0 31 0;
#X connect 31 0 28 1;
#X connect 34 0 138 0;
#X connect 35 0 36 0;
#X connect 35 0 102 24;
#X connect 35 1 37 0;
#X connect 36 0 40 0;
#X connect 37 0 102 25;
#X connect 38 0 39 0;
#X connect 38 0 102 26;
#X connect 38 0 130 0;
#X connect 40 0 38 0;
#X connect 41 0 44 0;
#X connect 44 0 43 0;
#X connect 45 0 44 0;
#X connect 46 0 45 0;
#X connect 47 0 49 0;
#X connect 48 0 50 0;
#X connect 49 0 51 0;
#X connect 50 0 52 0;
#X connect 51 0 24 0;
#X connect 52 0 29 0;
#X connect 53 0 44 0;
#X connect 54 0 55 0;
#X connect 55 0 56 0;
#X connect 56 0 102 0;
#X connect 57 0 55 1;
#X connect 59 0 62 0;
#X connect 60 0 59 0;
#X connect 60 0 61 0;
#X connect 60 0 135 0;
#X connect 63 0 102 4;
#X connect 63 1 102 5;
#X connect 63 2 102 6;
#X connect 63 3 102 7;
#X connect 63 4 102 8;
#X connect 63 5 102 9;
#X connect 63 6 102 10;
#X connect 63 7 102 11;
#X connect 63 8 102 12;
#X connect 63 9 102 13;
#X connect 63 10 102 14;
#X connect 63 11 102 15;
#X connect 63 12 102 16;
#X connect 64 0 68 0;
#X connect 65 0 64 0;
#X connect 65 0 67 0;
#X connect 65 0 140 0;
#X connect 66 0 102 27;
#X connect 66 1 102 28;
#X connect 66 2 102 29;
#X connect 66 3 102 30;
#X connect 66 4 102 31;
#X connect 66 5 102 32;
#X connect 66 6 102 33;
#X connect 66 7 102 34;
#X connect 66 8 102 35;
#X connect 66 9 102 36;
#X connect 66 10 102 37;
#X connect 66 11 102 38;
#X connect 66 12 102 39;
#X connect 70 0 136 0;
#X connect 71 0 72 0;
#X connect 71 0 102 17;
#X connect 71 0 129 0;
#X connect 71 1 73 0;
#X connect 71 1 102 18;
#X connect 71 2 74 0;
#X connect 71 2 102 19;
#X connect 71 3 75 0;
#X connect 71 3 102 20;
#X connect 71 4 76 0;
#X connect 71 4 102 21;
#X connect 71 5 77 0;
#X connect 71 5 102 22;
#X connect 71 6 78 0;
#X connect 71 6 102 23;
#X connect 86 0 139 0;
#X connect 87 0 88 0;
#X connect 87 0 102 40;
#X connect 87 0 131 0;
#X connect 87 0 141 0;
#X connect 87 1 89 0;
#X connect 87 1 102 41;
#X connect 87 1 142 0;
#X connect 87 2 90 0;
#X connect 87 2 102 42;
#X connect 87 2 143 0;
#X connect 87 3 91 0;
#X connect 87 3 102 43;
#X connect 87 3 144 0;
#X connect 87 4 92 0;
#X connect 87 4 102 44;
#X connect 87 4 145 0;
#X connect 87 5 93 0;
#X connect 87 5 102 45;
#X connect 87 5 146 0;
#X connect 87 6 94 0;
#X connect 87 6 102 46;
#X connect 87 6 147 0;
#X connect 102 0 103 0;
#X connect 103 1 104 0;
#X connect 103 2 104 1;
#X connect 103 3 104 2;
#X connect 103 4 104 3;
#X connect 103 5 104 4;
#X connect 103 6 104 5;
#X connect 103 7 104 6;
#X connect 103 8 104 7;
#X connect 103 9 104 8;
#X connect 103 10 104 9;
#X connect 103 11 104 10;
#X connect 103 12 104 11;
#X connect 103 13 104 12;
#X connect 103 14 104 13;
#X connect 103 15 104 14;
#X connect 103 16 104 15;
#X connect 103 17 104 16;
#X connect 103 18 104 17;
#X connect 103 19 104 18;
#X connect 103 20 104 19;
#X connect 103 21 104 20;
#X connect 103 22 104 21;
#X connect 103 23 104 22;
#X connect 103 24 104 23;
#X connect 103 25 104 24;
#X connect 103 26 104 25;
#X connect 103 27 104 26;
#X connect 103 28 104 27;
#X connect 103 29 104 28;
#X connect 103 30 104 29;
#X connect 103 31 104 30;
#X connect 103 32 104 31;
#X connect 103 33 104 32;
#X connect 103 34 104 33;
#X connect 103 35 104 34;
#X connect 103 36 104 35;
#X connect 103 37 104 36;
#X connect 103 38 104 37;
#X connect 103 39 104 38;
#X connect 103 40 104 39;
#X connect 103 41 104 40;
#X connect 103 42 104 41;
#X connect 103 43 104 42;
#X connect 103 44 104 43;
#X connect 103 45 104 44;
#X connect 103 46 104 45;
#X connect 103 47 104 46;
#X connect 103 48 104 47;
#X connect 104 0 53 0;
#X connect 106 0 17 0;
#X connect 106 0 60 0;
#X connect 106 0 70 0;
#X connect 106 0 125 0;
#X connect 108 0 34 0;
#X connect 108 0 65 0;
#X connect 108 0 86 0;
#X connect 108 0 125 0;
#X connect 110 0 2 0;
#X connect 111 0 27 0;
#X connect 112 0 1 0;
#X connect 113 0 5 0;
#X connect 115 0 107 0;
#X connect 116 0 115 1;
#X connect 118 0 117 1;
#X connect 119 0 116 0;
#X connect 120 0 122 0;
#X connect 121 0 122 1;
#X connect 122 0 117 0;
#X connect 123 0 132 0;
#X connect 125 0 124 0;
#X connect 125 0 124 1;
#X connect 126 0 125 1;
#X connect 127 0 132 1;
#X connect 132 0 133 0;
#X connect 133 0 114 0;
#X connect 134 0 133 1;
#X connect 135 0 63 0;
#X connect 136 0 71 0;
#X connect 137 0 18 0;
#X connect 138 0 35 0;
#X connect 139 0 87 0;
#X connect 140 0 66 0;
