#N canvas -1665 18 1262 844 12;
#X declare -lib zexy;
#X obj 92 94 oscparse;
#X obj 92 120 route list;
#X obj 92 172 symbol \$1;
#X obj 92 68 netreceive -u -b 6667;
#X obj 1037 100 declare -lib zexy;
#X obj 92 197 s2l;
#X text 119 198 SYNTH;
#X obj 139 453 *~;
#X obj 139 487 dac~;
#X obj 189 454 hsl 162 19 0 1 0 0 empty empty empty -2 -10 0 12 #fcfcfc #000000 #000000 0 1;
#X obj 92 146 route params;
#X obj 1037 139 loadbang;
#X msg 1037 163 \; pd dsp 1;
#X msg 1038 208 4096;
#X msg 1040 364 2;
#X obj 92 535 live-analysis 1;
#X obj 1040 388 s 1-history;
#X obj 1038 232 s 1-fftsettings;
#X obj 1038 312 s 1-lop-freq;
#X obj 640 69 netreceive -u -b 6668;
#X obj 640 92 oscparse;
#X obj 640 118 route list;
#X obj 640 170 symbol \$1;
#X obj 640 195 s2l;
#X text 667 196 SYNTH;
#X obj 710 451 *~;
#X obj 710 485 dac~;
#X obj 748 451 hsl 162 19 0 1 0 0 empty empty empty -2 -10 0 12 #fcfcfc #000000 #000000 0 1;
#X obj 640 144 route params;
#X obj 1038 256 s 2-fftsettings;
#X obj 1038 336 s 2-lop-freq;
#X obj 1040 412 s 2-history;
#X obj 640 534 live-analysis 2;
#X text 676 39 TARGET;
#X text 140 41 AGENT;
#X msg 1038 287 20000;
#X obj 640 232 synth 2, f 12;
#X obj 92 226 synth 1, f 12;
#X connect 0 0 1 0;
#X connect 1 0 10 0;
#X connect 2 0 5 0;
#X connect 3 0 0 0;
#X connect 5 0 37 0;
#X connect 7 0 8 0;
#X connect 7 0 8 1;
#X connect 9 0 7 1;
#X connect 10 0 2 0;
#X connect 11 0 12 0;
#X connect 13 0 17 0;
#X connect 13 0 29 0;
#X connect 14 0 16 0;
#X connect 14 0 31 0;
#X connect 19 0 20 0;
#X connect 20 0 21 0;
#X connect 21 0 28 0;
#X connect 22 0 23 0;
#X connect 23 0 36 0;
#X connect 25 0 26 0;
#X connect 25 0 26 1;
#X connect 27 0 25 1;
#X connect 28 0 22 0;
#X connect 35 0 18 0;
#X connect 35 0 30 0;
#X connect 36 0 25 0;
#X connect 36 0 32 0;
#X connect 37 0 7 0;
#X connect 37 0 15 0;
