#N canvas 0 38 1103 886 12;
#N canvas 0 22 450 278 (subpatch) 0;
#X array \$1-buffer 1.30926e+06 float 2;
#X coords 0 1 1.30926e+06 -1 200 50 1 0 0;
#X restore 129 126 graph;
#X obj 130 198 tgl 25 0 empty empty empty 0 -10 0 12 #fcfcfc #000000 #000000 0 1;
#X obj 116 615 metro 100;
#X obj 597 124 openpanel;
#X obj 597 202 soundfiler;
#X msg 597 177 read -resize \$1 \$2-buffer;
#X obj 672 124 bng 19 250 50 0 empty empty empty 0 -10 0 12 #fcfcfc #000000 #000000;
#X obj 597 149 pack s f;
#X obj 350 200 bng 19 250 50 0 empty empty empty 0 -10 0 12 #fcfcfc #000000 #000000;
#X obj 116 643 f;
#X obj 149 643 + 1;
#X obj 116 670 % 200;
#X obj 462 206 f;
#X obj 430 183 t f b;
#X obj 430 231 *;
#X obj 165 223 hsl 160 17 0 1 0 0 empty empty grain-start\ [%] 10 9 0 12 #fcfcfc #000000 #000000 0 1;
#X obj 445 580 * 44100;
#X obj 165 273 hsl 160 17 0.1 2 0 0 empty empty grain-pitch 10 9 0 12 #fcfcfc #000000 #000000 0 1;
#X obj 192 346 loadbang;
#X msg 192 372 1;
#X obj 445 556 line;
#X msg 445 532 \$1 50;
#X obj 165 248 hsl 160 17 0 1 0 0 empty empty grain-dur\ [ms] 10 9 0 12 #fcfcfc #000000 #000000 0 1;
#X obj 849 356 *;
#X obj 849 380 *;
#X obj 849 404 *;
#X obj 880 404 / 2;
#X obj 849 428 + 1;
#X obj 880 429 clip 1 10000;
#X obj 116 714 pack f f f f;
#X obj 132 176 hsl 195 10 0 1 0 0 empty empty empty -2 -10 0 12 #fcfcfc #000000 #000000 0 1;
#X floatatom 497 206 8 0 0 0 - - - 0;
#N canvas 0 0 450 300 (subpatch) 0;
#X array \$1-env 2048 float 0;
#X coords 0 1 2047 -1 50 50 1 0 0;
#X restore 329 126 graph;
#X obj 264 344 loadbang;
#N canvas 737 338 274 267 make-grain-env 0;
#X obj 16 43 t b b;
#X obj 16 117 f;
#X obj 44 117 + 1;
#X msg 54 67 0;
#X obj 16 93 until;
#X obj 16 143 t f f;
#X obj 16 20 inlet;
#X msg 16 67 2048;
#X obj 16 169 expr ($f1-1024)/1024;
#X obj 16 195 expr 0.5+(cos($f1 * 3.141)/2);
#X obj 16 221 tabwrite \$1-env;
#X connect 0 0 7 0;
#X connect 0 1 3 0;
#X connect 1 0 2 0;
#X connect 1 0 5 0;
#X connect 2 0 1 1;
#X connect 3 0 1 1;
#X connect 4 0 1 0;
#X connect 5 0 8 0;
#X connect 5 1 10 1;
#X connect 6 0 0 0;
#X connect 7 0 4 0;
#X connect 8 0 9 0;
#X connect 9 0 10 0;
#X restore 264 371 pd make-grain-env;
#X obj 175 589 / 2;
#X obj 221 588 + 10;
#X obj 175 556 t b f f;
#X obj 672 148 f \$1;
#X obj 144 248 bng 17 250 50 0 empty empty empty 0 -10 0 12 #fcfcfc #000000 #000000;
#X obj 165 198 hsl 160 17 1 40 0 0 empty empty density 10 9 0 12 #fcfcfc #000000 #000000 0 1;
#X obj 116 768 outlet~;
#X obj 652 348 unpack f f f f;
#X obj 652 322 inlet;
#X obj 652 400 + 1;
#X obj 747 377 * 1.9;
#X obj 747 401 + 0.1;
#X obj 416 100 r \$1-grain-start;
#X obj 417 135 s \$1-grain-start;
#X obj 480 182 r \$1-filesize;
#X obj 430 258 s \$1-grainstart;
#X obj 880 380 r \$1-filesize;
#X obj 849 466 s \$1-grain-dur;
#X obj 445 605 s \$1-grainpitch;
#X obj 197 641 r \$1-grainstart;
#X obj 197 665 r \$1-grainpitch;
#X obj 197 689 r \$1-grain-dur;
#X obj 597 227 s \$1-filesize;
#X obj 729 56 loadbang;
#X obj 729 81 bng 19 250 50 0 empty empty empty 0 -10 0 12 #fcfcfc #000000 #000000;
#X obj 729 105 f \$1;
#X obj 120 54 loadbang;
#X obj 116 740 clone grain-voice 200 \$1;
#X msg 729 131 read -resize 00_Funk1-97-C_comp_mic.wav \$1-buffer;
#X obj 175 431 int;
#X obj 652 427 int;
#X obj 652 376 * 39;
#X obj 175 508 /;
#X msg 175 483 1000;
#X obj 175 458 t b f;
#X floatatom 175 532 5 0 0 0 - - - 0;
#X obj 445 506 pow 3;
#X obj 612 529 *;
#X obj 612 553 *;
#X obj 612 577 *;
#X obj 652 574 / 2;
#X obj 612 601 + 1;
#X obj 652 599 clip 1 441000;
#X obj 652 550 r \$1-filesize;
#X text 655 517 GRAIN DURATION;
#X obj 757 597 * 44100;
#X msg 757 568 0.1;
#X obj 612 627 s \$1-grain-dur;
#X msg 65 570 0;
#X obj 65 544 sel 1;
#X connect 1 0 2 0;
#X connect 1 0 84 0;
#X connect 2 0 9 0;
#X connect 3 0 6 0;
#X connect 3 0 7 0;
#X connect 4 0 57 0;
#X connect 5 0 4 0;
#X connect 6 0 38 0;
#X connect 7 0 5 0;
#X connect 8 0 3 0;
#X connect 9 0 10 0;
#X connect 9 0 11 0;
#X connect 10 0 9 1;
#X connect 11 0 29 0;
#X connect 12 0 14 1;
#X connect 13 0 14 0;
#X connect 13 1 12 0;
#X connect 14 0 50 0;
#X connect 15 0 13 0;
#X connect 15 0 48 0;
#X connect 16 0 53 0;
#X connect 17 0 71 0;
#X connect 18 0 19 0;
#X connect 19 0 17 0;
#X connect 20 0 16 0;
#X connect 21 0 20 0;
#X connect 22 0 72 0;
#X connect 22 0 72 1;
#X connect 23 0 24 0;
#X connect 23 0 24 1;
#X connect 24 0 25 0;
#X connect 25 0 27 0;
#X connect 26 0 28 0;
#X connect 28 0 25 1;
#X connect 29 0 62 0;
#X connect 33 0 34 0;
#X connect 35 0 2 1;
#X connect 36 0 11 1;
#X connect 37 0 35 0;
#X connect 37 1 35 1;
#X connect 38 0 7 1;
#X connect 39 0 19 0;
#X connect 40 0 64 0;
#X connect 40 0 36 0;
#X connect 42 0 66 0;
#X connect 42 1 13 0;
#X connect 42 2 23 0;
#X connect 42 2 23 1;
#X connect 42 2 72 0;
#X connect 42 2 72 1;
#X connect 42 3 45 0;
#X connect 43 0 42 0;
#X connect 44 0 65 0;
#X connect 45 0 46 0;
#X connect 46 0 71 0;
#X connect 47 0 30 0;
#X connect 49 0 12 1;
#X connect 49 0 31 0;
#X connect 51 0 26 0;
#X connect 54 0 29 1;
#X connect 55 0 29 2;
#X connect 56 0 29 3;
#X connect 58 0 59 0;
#X connect 58 0 81 0;
#X connect 59 0 60 0;
#X connect 60 0 63 0;
#X connect 61 0 1 0;
#X connect 62 0 41 0;
#X connect 63 0 4 0;
#X connect 64 0 69 0;
#X connect 65 0 37 0;
#X connect 65 0 69 0;
#X connect 66 0 44 0;
#X connect 67 0 70 0;
#X connect 68 0 67 0;
#X connect 69 0 68 0;
#X connect 69 1 67 1;
#X connect 70 0 37 0;
#X connect 71 0 21 0;
#X connect 72 0 73 0;
#X connect 72 0 73 1;
#X connect 73 0 74 0;
#X connect 74 0 76 0;
#X connect 75 0 77 0;
#X connect 76 0 82 0;
#X connect 77 0 74 1;
#X connect 78 0 75 0;
#X connect 80 0 77 2;
#X connect 81 0 80 0;
#X connect 83 0 9 0;
#X connect 84 0 83 0;
#X coords 0 -1 1 1 300 200 1 100 100;
