#N canvas -1661 308 960 629 12;
#X obj 113 336 soundfiler;
#X obj 113 441 fluid.waveform 400 100 1 empty empty 0;
#X msg 113 408 waveformcolor #666666 \, waveform \$1-help.src;
#X obj 113 360 bng 19 250 50 0 empty empty empty 0 -10 0 12 #fcfcfc #000000 #000000;
#X obj 113 114 s filename;
#X obj 113 144 r filename;
#X obj 113 214 bng 19 250 50 0 empty empty empty 0 -10 0 12 #fcfcfc #000000 #000000;
#X obj 113 237 f \$0;
#X obj 113 261 list append;
#X obj 113 168 t b a;
#X obj 113 383 f \$0;
#X msg 303 76 \; pd dsp 1;
#X obj 303 50 loadbang;
#X msg 470 346 \; pd quit;
#X obj 470 319 spigot;
#X obj 509 262 tgl 50 1 RENDER empty RENDER\ MODE 60 25 0 12 #faff00 #000000 #000000 1 1;
#X obj 509 213 loadbang;
#X msg 509 237 1;
#X obj 166 171 print analyzing;
#N canvas -2350 -167 1407 731 analysis 1;
#X obj 97 120 inlet;
#X obj 336 247 bng 15 250 50 0 empty empty empty 17 7 0 10 #ffffff #000000 #000000;
#X obj 336 269 fluid.bufmfcc 13 -source \$0-help.src -features \$0-mfcc.features;
#X obj 336 307 bng 19 250 50 0 empty empty empty 0 -10 0 12 #fcfcfc #000000 #000000;
#X msg 336 354 features \$1-mfcc.features;
#X obj 97 149 bng 15 250 50 0 empty empty empty 17 7 0 10 #fcfcfc #000000 #000000;
#X obj 97 169 fluid.bufloudness -source \$0-help.src -features \$0-loudness.features;
#X obj 97 207 bng 19 250 50 0 empty empty empty 0 -10 0 12 #fcfcfc #000000 #000000;
#X msg 97 256 featurescolor #ff99cc \, features \$1-loudness.features, f 30;
#X obj 531 319 bng 15 250 50 0 empty empty empty 17 7 0 10 #fcfcfc #000000 #000000;
#X obj 531 377 bng 19 250 50 0 empty empty empty 0 -10 0 12 #fcfcfc #000000 #000000;
#X obj 531 339 fluid.bufspectralshape -source \$0-help.src -features \$0-specshape.features -numchans 1;
#X msg 531 426 features \$1-specshape.features;
#X obj 97 231 f \$0;
#X obj 336 330 f \$0;
#X obj 531 401 f \$0;
#X obj 923 30 bng 19 250 50 0 empty empty empty 0 -10 0 12 #fcfcfc #000000 #000000;
#X floatatom 923 108 5 0 0 0 - - - 0;
#X obj 923 131 until;
#X obj 923 159 f;
#X obj 959 159 + 1;
#X obj 923 54 t b b;
#X msg 976 130 0;
#X obj 923 242 dbtorms;
#X obj 923 217 + 100;
#X obj 976 295 f \$0;
#X obj 923 321 pack f f;
#X obj 923 295 t f b;
#X obj 923 80 array size \$0-loudness.features-0;
#X obj 923 188 tabread \$0-loudness.features-0;
#X msg 923 349 \; \$2-loudness.features-2 resize \$1;
#X obj 923 271 tabwrite \$0-loudness.features-2;
#X obj 761 393 bng 15 250 50 0 empty empty empty 17 7 0 10 #fcfcfc #000000 #000000;
#X obj 761 456 bng 19 250 50 0 empty empty empty 0 -10 0 12 #fcfcfc #000000 #000000;
#X obj 761 480 f \$0;
#X msg 761 505 features \$1-chroma.features;
#X obj 761 415 fluid.bufchroma 12 -source \$0-help.src -features \$0-chroma.features, f 39;
#X text 426 103 window size (1024) \, hop size (-1) \, fft size (-1), f 24;
#X obj 272 58 r fftsize;
#X floatatom 272 82 5 0 0 0 - - - 0;
#X obj 349 61 loadbang;
#X obj 972 464 bng 15 250 50 0 empty empty empty 17 7 0 10 #fcfcfc #000000 #000000;
#X obj 972 528 bng 19 250 50 0 empty empty empty 0 -10 0 12 #fcfcfc #000000 #000000;
#X obj 972 552 f \$0;
#X obj 805 652 outlet done;
#X obj 982 649 outlet sinefeatures;
#X msg 972 577 features \$1-sinefeaturefreqs;
#X msg 272 111 fftsettings \$1 -1 -1;
#X obj 972 488 fluid.bufsinefeature -source \$0-help.src -frequency \$0-sinefeaturefreqs -magnitude \$0-sinefeaturemags;
#X msg 349 84 1024;
#X msg 155 133 hopsize \$1;
#X obj 155 104 / 2;
#X connect 0 0 5 0;
#X connect 1 0 2 0;
#X connect 2 0 3 0;
#X connect 3 0 9 0;
#X connect 3 0 14 0;
#X connect 5 0 6 0;
#X connect 6 0 7 0;
#X connect 7 0 1 0;
#X connect 7 0 16 0;
#X connect 7 0 13 0;
#X connect 9 0 11 0;
#X connect 10 0 15 0;
#X connect 10 0 32 0;
#X connect 11 0 10 0;
#X connect 12 0 45 0;
#X connect 13 0 8 0;
#X connect 14 0 4 0;
#X connect 15 0 12 0;
#X connect 16 0 21 0;
#X connect 17 0 18 0;
#X connect 18 0 19 0;
#X connect 19 0 20 0;
#X connect 19 0 29 0;
#X connect 19 0 31 1;
#X connect 20 0 19 1;
#X connect 21 0 28 0;
#X connect 21 1 22 0;
#X connect 22 0 19 1;
#X connect 23 0 31 0;
#X connect 24 0 23 0;
#X connect 25 0 26 1;
#X connect 26 0 30 0;
#X connect 27 0 26 0;
#X connect 27 1 25 0;
#X connect 28 0 17 0;
#X connect 28 0 27 0;
#X connect 29 0 24 0;
#X connect 32 0 36 0;
#X connect 33 0 34 0;
#X connect 33 0 41 0;
#X connect 34 0 35 0;
#X connect 36 0 33 0;
#X connect 38 0 39 0;
#X connect 38 0 51 0;
#X connect 39 0 47 0;
#X connect 40 0 49 0;
#X connect 41 0 48 0;
#X connect 42 0 43 0;
#X connect 42 0 44 0;
#X connect 43 0 46 0;
#X connect 47 0 36 0;
#X connect 47 0 11 0;
#X connect 47 0 2 0;
#X connect 47 0 48 0;
#X connect 48 0 42 0;
#X connect 49 0 39 0;
#X connect 50 0 6 0;
#X connect 51 0 50 0;
#X restore 470 132 pd analysis;
#N canvas -2478 -75 1563 960 save 0;
#X obj 279 149 bng 19 250 50 0 empty empty empty 0 -10 0 12 #fcfcfc #000000 #000000;
#X msg 325 224 0;
#X obj 279 248 f;
#X msg 279 200 13;
#X obj 279 224 until;
#X obj 315 248 + 1;
#X obj 313 318 array get;
#X obj 386 291 list \$0;
#X msg 451 267 clear;
#X obj 386 267 f;
#X obj 279 346 f;
#X obj 279 272 t b b b f;
#X msg 386 317 symbol \$2-mfcc.features-\$1;
#X obj 279 174 t b b;
#X obj 366 371 r filename;
#X obj 279 372 list append;
#X obj 602 156 bng 19 250 50 0 empty empty empty 0 -10 0 12 #fcfcfc #000000 #000000;
#X msg 648 231 0;
#X obj 602 255 f;
#X obj 602 231 until;
#X obj 638 255 + 1;
#X obj 636 325 array get;
#X obj 709 298 list \$0;
#X msg 774 274 clear;
#X obj 709 274 f;
#X obj 602 353 f;
#X obj 602 279 t b b b f;
#X obj 602 181 t b b;
#X obj 689 378 r filename;
#X obj 602 379 list append;
#X obj 975 156 bng 19 250 50 0 empty empty empty 0 -10 0 12 #fcfcfc #000000 #000000;
#X msg 1021 231 0;
#X obj 975 255 f;
#X obj 975 231 until;
#X obj 1011 255 + 1;
#X obj 1009 325 array get;
#X obj 1082 298 list \$0;
#X msg 1147 274 clear;
#X obj 1082 274 f;
#X obj 975 353 f;
#X obj 975 279 t b b b f;
#X obj 975 181 t b b;
#X obj 1062 378 r filename;
#X obj 975 379 list append;
#X msg 975 207 7;
#X msg 709 324 symbol \$2-loudness.features-\$1;
#X msg 1082 324 symbol \$2-specshape.features-\$1;
#X obj 313 344 text set \$0-1-buffer 1e+06;
#X obj 279 449 text define \$0-1-buffer;
#X obj 636 351 text set \$0-2-buffer 1e+06;
#X obj 602 459 text define \$0-2-buffer;
#X obj 1009 351 text set \$0-3-buffer 1e+06;
#X obj 975 459 text define \$0-3-buffer;
#X obj 451 291 s \$0-1-buffer;
#X obj 774 298 s \$0-2-buffer;
#X obj 1147 298 s \$0-3-buffer;
#X msg 602 207 3;
#X obj 95 541 bng 19 250 50 0 empty empty empty 0 -10 0 12 #fcfcfc #000000 #000000;
#X msg 141 616 0;
#X obj 95 640 f;
#X obj 95 616 until;
#X obj 131 640 + 1;
#X obj 129 710 array get;
#X obj 202 683 list \$0;
#X msg 267 659 clear;
#X obj 202 659 f;
#X obj 95 738 f;
#X obj 95 664 t b b b f;
#X obj 95 566 t b b;
#X obj 182 763 r filename;
#X obj 95 764 list append;
#X msg 202 709 symbol \$2-chroma.features-\$1;
#X obj 129 736 text set \$0-4-buffer 1e+06;
#X obj 95 847 text define \$0-4-buffer;
#X msg 95 592 12;
#X obj 123 231 outlet done;
#X obj 282 88 inlet;
#X obj 442 547 bng 19 250 50 0 empty empty empty 0 -10 0 12 #fcfcfc #000000 #000000;
#X msg 488 622 0;
#X obj 442 646 f;
#X obj 442 622 until;
#X obj 478 646 + 1;
#X obj 476 716 array get;
#X obj 549 689 list \$0;
#X msg 614 665 clear;
#X obj 549 665 f;
#X obj 442 744 f;
#X obj 442 670 t b b b f;
#X obj 442 572 t b b;
#X obj 529 769 r filename;
#X obj 442 770 list append;
#X obj 442 863 text define \$0-5-buffer;
#X obj 614 689 s \$0-5-buffer;
#X obj 476 742 text set \$0-5-buffer 1e+06;
#X obj 267 683 s \$0-4-buffer;
#X obj 886 547 bng 19 250 50 0 empty empty empty 0 -10 0 12 #fcfcfc #000000 #000000;
#X msg 932 622 0;
#X obj 886 646 f;
#X obj 886 622 until;
#X obj 922 646 + 1;
#X obj 920 716 array get;
#X obj 993 689 list \$0;
#X msg 1058 665 clear;
#X obj 993 665 f;
#X obj 886 744 f;
#X obj 886 670 t b b b f;
#X obj 886 572 t b b;
#X obj 973 769 r filename;
#X obj 886 770 list append;
#X msg 442 598 10;
#X msg 886 598 10;
#X obj 282 115 t b b b b b b b;
#X obj 1058 689 s \$0-6-buffer;
#X obj 920 742 text set \$0-6-buffer 1e+06;
#X obj 886 865 text define \$0-6-buffer;
#X msg 549 715 symbol \$2-sinefeaturefreqs-\$1;
#X msg 993 715 symbol \$2-sinefeaturemags-\$1;
#X obj 279 396 list append;
#X obj 602 405 list append;
#X obj 975 404 list append;
#X obj 886 796 list append;
#X obj 442 796 list append;
#X obj 95 792 list append;
#X obj 368 396 r corpusname;
#X obj 691 405 r corpusname;
#X obj 1064 404 r corpusname;
#X obj 975 796 r corpusname;
#X obj 531 796 r corpusname;
#X obj 184 792 r corpusname;
#X msg 279 421 write ./\$3/features/\$2/mfcc/\$2-mfcc-\$1.txt;
#X msg 602 431 write ./\$3/features/\$2/loudness/\$2-loudness-\$1.txt;
#X msg 975 431 write ./\$3/features/\$2/specshape/\$2-specshape-\$1.txt;
#X msg 886 823 write ./\$3/features/\$2/sinefeaturemags/\$2-sinefeaturemags-\$1.txt;
#X msg 442 822 write ./\$3/features/\$2/sinefeaturefreqs/\$2-sinefeaturefreqs-\$1.txt;
#X msg 95 819 write ./\$3/features/\$2/chroma/\$2-chroma-\$1.txt;
#X connect 0 0 13 0;
#X connect 1 0 2 1;
#X connect 2 0 5 0;
#X connect 2 0 11 0;
#X connect 3 0 4 0;
#X connect 4 0 2 0;
#X connect 5 0 2 1;
#X connect 6 0 47 0;
#X connect 7 0 12 0;
#X connect 8 0 53 0;
#X connect 9 0 7 0;
#X connect 10 0 15 0;
#X connect 11 0 10 0;
#X connect 11 1 9 0;
#X connect 11 1 6 0;
#X connect 11 2 8 0;
#X connect 11 3 9 1;
#X connect 11 3 10 1;
#X connect 12 0 6 2;
#X connect 13 0 3 0;
#X connect 13 1 1 0;
#X connect 14 0 15 1;
#X connect 15 0 117 0;
#X connect 16 0 27 0;
#X connect 17 0 18 1;
#X connect 18 0 20 0;
#X connect 18 0 26 0;
#X connect 19 0 18 0;
#X connect 20 0 18 1;
#X connect 21 0 49 0;
#X connect 22 0 45 0;
#X connect 23 0 54 0;
#X connect 24 0 22 0;
#X connect 25 0 29 0;
#X connect 26 0 25 0;
#X connect 26 1 24 0;
#X connect 26 1 21 0;
#X connect 26 2 23 0;
#X connect 26 3 24 1;
#X connect 26 3 25 1;
#X connect 27 0 56 0;
#X connect 27 1 17 0;
#X connect 28 0 29 1;
#X connect 29 0 118 0;
#X connect 30 0 41 0;
#X connect 31 0 32 1;
#X connect 32 0 34 0;
#X connect 32 0 40 0;
#X connect 33 0 32 0;
#X connect 34 0 32 1;
#X connect 35 0 51 0;
#X connect 36 0 46 0;
#X connect 37 0 55 0;
#X connect 38 0 36 0;
#X connect 39 0 43 0;
#X connect 40 0 39 0;
#X connect 40 1 38 0;
#X connect 40 1 35 0;
#X connect 40 2 37 0;
#X connect 40 3 38 1;
#X connect 40 3 39 1;
#X connect 41 0 44 0;
#X connect 41 1 31 0;
#X connect 42 0 43 1;
#X connect 43 0 119 0;
#X connect 44 0 33 0;
#X connect 45 0 21 2;
#X connect 46 0 35 2;
#X connect 56 0 19 0;
#X connect 57 0 68 0;
#X connect 58 0 59 1;
#X connect 59 0 61 0;
#X connect 59 0 67 0;
#X connect 60 0 59 0;
#X connect 61 0 59 1;
#X connect 62 0 72 0;
#X connect 63 0 71 0;
#X connect 64 0 94 0;
#X connect 65 0 63 0;
#X connect 66 0 70 0;
#X connect 67 0 66 0;
#X connect 67 1 65 0;
#X connect 67 1 62 0;
#X connect 67 2 64 0;
#X connect 67 3 65 1;
#X connect 67 3 66 1;
#X connect 68 0 74 0;
#X connect 68 1 58 0;
#X connect 69 0 70 1;
#X connect 70 0 122 0;
#X connect 71 0 62 2;
#X connect 74 0 60 0;
#X connect 76 0 111 0;
#X connect 77 0 88 0;
#X connect 78 0 79 1;
#X connect 79 0 81 0;
#X connect 79 0 87 0;
#X connect 80 0 79 0;
#X connect 81 0 79 1;
#X connect 82 0 93 0;
#X connect 83 0 115 0;
#X connect 84 0 92 0;
#X connect 85 0 83 0;
#X connect 86 0 90 0;
#X connect 87 0 86 0;
#X connect 87 1 85 0;
#X connect 87 1 82 0;
#X connect 87 2 84 0;
#X connect 87 3 85 1;
#X connect 87 3 86 1;
#X connect 88 0 109 0;
#X connect 88 1 78 0;
#X connect 89 0 90 1;
#X connect 90 0 121 0;
#X connect 95 0 106 0;
#X connect 96 0 97 1;
#X connect 97 0 99 0;
#X connect 97 0 105 0;
#X connect 98 0 97 0;
#X connect 99 0 97 1;
#X connect 100 0 113 0;
#X connect 101 0 116 0;
#X connect 102 0 112 0;
#X connect 103 0 101 0;
#X connect 104 0 108 0;
#X connect 105 0 104 0;
#X connect 105 1 103 0;
#X connect 105 1 100 0;
#X connect 105 2 102 0;
#X connect 105 3 103 1;
#X connect 105 3 104 1;
#X connect 106 0 110 0;
#X connect 106 1 96 0;
#X connect 107 0 108 1;
#X connect 108 0 120 0;
#X connect 109 0 80 0;
#X connect 110 0 98 0;
#X connect 111 0 75 0;
#X connect 111 1 0 0;
#X connect 111 2 16 0;
#X connect 111 3 30 0;
#X connect 111 4 57 0;
#X connect 111 5 77 0;
#X connect 111 6 95 0;
#X connect 115 0 82 2;
#X connect 116 0 100 2;
#X connect 117 0 129 0;
#X connect 118 0 130 0;
#X connect 119 0 131 0;
#X connect 120 0 132 0;
#X connect 121 0 133 0;
#X connect 122 0 134 0;
#X connect 123 0 117 1;
#X connect 124 0 118 1;
#X connect 125 0 119 1;
#X connect 126 0 120 1;
#X connect 127 0 121 1;
#X connect 128 0 122 1;
#X connect 129 0 48 0;
#X connect 130 0 50 0;
#X connect 131 0 52 0;
#X connect 132 0 114 0;
#X connect 133 0 91 0;
#X connect 134 0 73 0;
#X restore 470 181 pd save;
#X obj 676 124 array define \$0-help.src;
#X obj 676 149 clone fluid.multiarray 13 \$0-mfcc.features, f 27;
#X obj 676 227 clone 7 fluid.multiarray \$0-specshape.features, f 31;
#X obj 676 188 clone 3 fluid.multiarray \$0-loudness.features, f 33;
#X obj 676 266 clone 12 fluid.multiarray \$0-chroma.features, f 31;
#X obj 676 303 clone 10 fluid.multiarray \$0-sinefeaturefreqs, f 25;
#X obj 676 340 clone 10 fluid.multiarray \$0-sinefeaturemags, f 25;
#X obj 470 156 del 5;
#X obj 113 288 list append;
#X obj 113 190 del 2;
#X msg 113 312 read -resize ./\$3/audio/\$2.wav \$1-help.src;
#X obj 202 288 r corpusname;
#X msg 114 40 GuitarSet;
#X msg 113 90 00_BN2-166-Ab_comp_mic;
#X obj 114 64 s corpusname;
#X connect 0 0 3 0;
#X connect 2 0 1 0;
#X connect 3 0 10 0;
#X connect 3 0 19 0;
#X connect 5 0 9 0;
#X connect 5 0 18 0;
#X connect 6 0 7 0;
#X connect 7 0 8 0;
#X connect 8 0 29 0;
#X connect 9 0 30 0;
#X connect 9 1 8 1;
#X connect 10 0 2 0;
#X connect 12 0 11 0;
#X connect 14 0 13 0;
#X connect 15 0 14 1;
#X connect 16 0 17 0;
#X connect 17 0 15 0;
#X connect 19 0 28 0;
#X connect 19 1 1 0;
#X connect 20 0 14 0;
#X connect 28 0 20 0;
#X connect 29 0 31 0;
#X connect 30 0 6 0;
#X connect 31 0 0 0;
#X connect 32 0 29 1;
#X connect 33 0 35 0;
#X connect 34 0 4 0;
