#N canvas 41 78 894 698 12;
#X declare -lib zexy;
#X obj 534 95 oscparse;
#X obj 534 121 route list;
#X obj 534 173 symbol \$1;
#X text 575 43 OSC RECEIVE;
#X obj 534 69 netreceive -u -b 6667;
#X obj 534 147 route result;
#X obj 729 67 declare -lib zexy;
#X obj 534 198 s2l;
#X text 575 221 SYNTH;
#X obj 152 194 vsl 16 136 0 1 0 0 empty empty empty 0 -9 0 10 #ffc7c6 #000000 #000000 0 1;
#X obj 534 488 line~;
#X obj 231 192 vsl 16 136 0 1 0 0 empty empty empty 0 -9 0 10 #c6ffc7 #000000 #000000 0 1;
#X obj 613 486 line~;
#X obj 310 190 vsl 16 136 0 1 0 0 empty empty empty 0 -9 0 10 #c6feff #000000 #000000 0 1;
#X obj 692 484 line~;
#X obj 534 509 *~ 400;
#X text 146 168 freq;
#X text 210 166 harmonicity;
#X text 295 166 mod index;
#X obj 613 507 *~ 5;
#X obj 692 505 *~ 5;
#X obj 566 553 fm_synth;
#X obj 552 636 throw~ agent;
#X obj 534 248 unpack 0 0 0, f 23;
#X msg 534 467 \$1 5;
#X msg 613 465 \$1 5;
#X msg 692 463 \$1 5;
#X obj 123 515 outlet;
#X obj 212 511 outlet;
#X obj 330 514 outlet;
#X connect 0 0 1 0;
#X connect 1 0 5 0;
#X connect 2 0 7 0;
#X connect 4 0 0 0;
#X connect 5 0 2 0;
#X connect 7 0 23 0;
#X connect 9 0 24 0;
#X connect 10 0 15 0;
#X connect 11 0 25 0;
#X connect 12 0 19 0;
#X connect 13 0 26 0;
#X connect 14 0 20 0;
#X connect 15 0 21 0;
#X connect 19 0 21 1;
#X connect 20 0 21 2;
#X connect 21 0 22 0;
#X connect 23 0 9 0;
#X connect 23 0 27 0;
#X connect 23 1 11 0;
#X connect 23 1 28 0;
#X connect 23 2 13 0;
#X connect 23 2 29 0;
#X connect 24 0 10 0;
#X connect 25 0 12 0;
#X connect 26 0 14 0;
#X coords 0 -1 1 1 300 300 1 100 100;
