#N canvas 106 83 818 743 12;
#X obj 154 199 vsl 16 136 0 1 0 0 empty empty empty 0 -9 0 10 #ffc7c6 #000000 #000000 0 1;
#X msg 497 441 \$1 20;
#X obj 497 462 line~;
#X obj 234 197 vsl 16 136 0 1 0 0 empty empty empty 0 -9 0 10 #c6ffc7 #000000 #000000 0 1;
#X msg 577 439 \$1 20;
#X obj 577 460 line~;
#X obj 316 197 vsl 16 136 0 1 0 0 empty empty empty 0 -9 0 10 #c6feff #000000 #000000 0 1;
#X msg 658 437 \$1 20;
#X obj 658 458 line~;
#X obj 497 483 *~ 400;
#X text 212 171 harmonicity;
#X text 301 173 mod index;
#X obj 577 481 *~ 5;
#X obj 658 479 *~ 5;
#X obj 529 527 fm_synth;
#X obj 496 159 ctlin 19;
#X obj 577 160 ctlin 23;
#X floatatom 496 183 5 0 0 0 - - - 0;
#X floatatom 577 184 5 0 0 0 - - - 0;
#X obj 496 206 / 127;
#X obj 577 207 / 127;
#X text 495 116 AUDIO IN - TARGET SOUND;
#X floatatom 658 183 5 0 0 0 - - - 0;
#X obj 658 206 / 127;
#X obj 658 159 ctlin 27;
#X obj 529 598 throw~ target;
#X text 131 170 frequency;
#X obj 529 565 *~;
#X obj 149 128 tgl 19 0 empty empty record 25 10 0 12 #ff0400 #000000 #000000 0 1;
#X connect 0 0 1 0;
#X connect 1 0 2 0;
#X connect 2 0 9 0;
#X connect 3 0 4 0;
#X connect 4 0 5 0;
#X connect 5 0 12 0;
#X connect 6 0 7 0;
#X connect 7 0 8 0;
#X connect 8 0 13 0;
#X connect 9 0 14 0;
#X connect 12 0 14 1;
#X connect 13 0 14 2;
#X connect 14 0 27 0;
#X connect 15 0 17 0;
#X connect 16 0 18 0;
#X connect 17 0 19 0;
#X connect 18 0 20 0;
#X connect 19 0 0 0;
#X connect 20 0 3 0;
#X connect 22 0 23 0;
#X connect 23 0 6 0;
#X connect 24 0 22 0;
#X connect 27 0 25 0;
#X connect 28 0 27 1;
#X coords 0 -1 1 1 300 300 1 100 100;
