#N canvas -1266 -220 1266 931 12;
#X obj 223 468 server-connector;
#X obj 130 71 FM3-musician;
#X obj 522 74 FM3-agent;
#X obj 920 252 adc~ 1;
#X obj 920 308 throw~ target;
#X obj 920 276 *~ 3;
#X floatatom 959 277 5 0 0 0 - - - 0;
#X text 912 194 MUSICIAN SOUND;
#X connect 2 0 0 0;
#X connect 2 1 0 1;
#X connect 2 2 0 2;
#X connect 3 0 5 0;
#X connect 5 0 4 0;
#X connect 6 0 5 1;
