#N canvas 0 38 577 375 12;
#X obj 133 163 hsl 160 17 0 1 0 0 empty empty harmonicity 10 9 0 12 #fcfcfc #000000 #000000 0 1;
#X obj 133 213 hsl 160 17 0 1 0 0 empty empty amplitude 10 9 0 12 #fcfcfc #000000 #000000 0 1;
#X obj 133 188 hsl 160 17 0 1 0 0 empty empty mod\ index 10 9 0 12 #fcfcfc #000000 #000000 0 1;
#X obj 133 138 hsl 160 17 0 1 0 0 empty empty frequency 10 9 0 12 #fcfcfc #000000 #000000 0 1;
#X obj 130 72 unpack f f f f;
#X obj 130 42 inlet;
#X obj 359 103 *~ 400;
#X obj 419 102 *~ 5;
#X obj 453 146 *~ 5;
#X obj 401 137 *~;
#X obj 374 175 osc~ 40;
#X obj 395 206 *~;
#X obj 435 174 *~;
#X obj 359 230 +~;
#X obj 359 256 osc~;
#X obj 359 280 *~;
#X obj 359 304 outlet~;
#X connect 0 0 7 0;
#X connect 1 0 15 1;
#X connect 2 0 8 0;
#X connect 3 0 6 0;
#X connect 4 0 3 0;
#X connect 4 1 0 0;
#X connect 4 2 2 0;
#X connect 4 3 1 0;
#X connect 5 0 4 0;
#X connect 6 0 9 0;
#X connect 6 0 13 0;
#X connect 7 0 9 1;
#X connect 8 0 12 1;
#X connect 9 0 10 0;
#X connect 9 0 12 0;
#X connect 10 0 11 0;
#X connect 11 0 13 1;
#X connect 12 0 11 1;
#X connect 13 0 14 0;
#X connect 14 0 15 0;
#X connect 15 0 16 0;
#X coords 0 -1 1 1 230 150 1 100 100;
