#N canvas 0 38 960 593 12;
#X obj 228 382 *~;
#X obj 481 300 osc~;
#X obj 415 381 *~;
#X floatatom 499 241 5 0 0 0 - - - 0;
#X obj 372 382 *~;
#X obj 573 224 *~;
#X obj 573 247 lop~ 1;
#X obj 573 273 sqrt~;
#X obj 573 297 *~ 40;
#X floatatom 217 108 5 0 0 0 pitch - - 0;
#X obj 169 226 mtof;
#X obj 499 191 + 14;
#X obj 430 192 + 11;
#X obj 499 215 mtof;
#X obj 430 216 mtof;
#X obj 350 217 mtof;
#X obj 322 382 *~;
#X obj 77 220 mtof;
#X obj 175 383 *~;
#X obj 77 196 - 4;
#X obj 261 219 mtof;
#X obj 277 382 *~;
#X obj 350 193 + 9;
#X obj 261 195 + 7;
#X obj 760 189 snapshot~;
#X obj 733 296 vcf~, f 8;
#X floatatom 802 267 5 0 0 0 - - - 0;
#X obj 802 243 + 1;
#X obj 802 219 * 2;
#X obj 747 265 +~ 100;
#X obj 747 241 *~ 100;
#X obj 802 135 tgl 15 0 empty empty empty 17 7 0 10 #fcfcfc #000000 #000000 0 1;
#X obj 802 155 metro 100;
#X obj 733 320 *~ 0.1;
#X obj 802 111 loadbang;
#X obj 481 275 +~;
#X obj 412 299 osc~;
#X floatatom 430 241 5 0 0 0 - - - 0;
#X obj 412 274 +~;
#X obj 332 301 osc~;
#X floatatom 350 242 5 0 0 0 - - - 0;
#X obj 332 276 +~;
#X obj 243 303 osc~;
#X floatatom 261 246 5 0 0 0 - - - 0;
#X obj 243 278 +~;
#X obj 151 302 osc~;
#X floatatom 169 249 5 0 0 0 - - - 0;
#X obj 151 277 +~;
#X obj 59 299 osc~;
#X floatatom 77 244 5 0 0 0 - - - 0;
#X obj 59 274 +~;
#X obj 217 56 loadbang;
#X obj 278 473 outlet~;
#X obj 648 222 *~;
#X obj 648 245 lop~ 1;
#X obj 648 271 sqrt~;
#X obj 648 295 *~ 40;
#X obj 385 78 noise~;
#X obj 465 77 noise~;
#X obj 278 440 *~ 1;
#X obj 646 158 lop~ 0.5;
#X obj 646 107 lop~ 0.5;
#X obj 646 132 lop~ 0.5;
#X obj 565 165 lop~ 0.5;
#X obj 565 114 lop~ 0.5;
#X obj 565 139 lop~ 0.5;
#X obj 727 120 +~ 1;
#X obj 727 146 *~ 0.5;
#X obj 727 96 osc~ 0.01;
#X msg 217 80 56;
#X connect 0 0 59 0;
#X connect 1 0 2 0;
#X connect 2 0 59 0;
#X connect 3 0 35 1;
#X connect 4 0 59 0;
#X connect 5 0 6 0;
#X connect 6 0 7 0;
#X connect 7 0 8 0;
#X connect 8 0 18 1;
#X connect 8 0 21 1;
#X connect 8 0 2 1;
#X connect 9 0 11 0;
#X connect 9 0 12 0;
#X connect 9 0 10 0;
#X connect 9 0 19 0;
#X connect 9 0 22 0;
#X connect 9 0 23 0;
#X connect 10 0 46 0;
#X connect 11 0 13 0;
#X connect 12 0 14 0;
#X connect 13 0 3 0;
#X connect 14 0 37 0;
#X connect 15 0 40 0;
#X connect 16 0 59 0;
#X connect 17 0 49 0;
#X connect 18 0 59 0;
#X connect 19 0 17 0;
#X connect 20 0 43 0;
#X connect 21 0 59 0;
#X connect 22 0 15 0;
#X connect 23 0 20 0;
#X connect 24 0 28 0;
#X connect 25 0 33 0;
#X connect 26 0 25 2;
#X connect 27 0 26 0;
#X connect 28 0 27 0;
#X connect 29 0 25 1;
#X connect 30 0 29 0;
#X connect 31 0 32 0;
#X connect 32 0 24 0;
#X connect 33 0 59 0;
#X connect 34 0 31 0;
#X connect 35 0 1 0;
#X connect 36 0 4 0;
#X connect 37 0 38 1;
#X connect 38 0 36 0;
#X connect 39 0 16 0;
#X connect 40 0 41 1;
#X connect 41 0 39 0;
#X connect 42 0 21 0;
#X connect 43 0 44 1;
#X connect 44 0 42 0;
#X connect 45 0 0 0;
#X connect 46 0 47 1;
#X connect 47 0 45 0;
#X connect 48 0 18 0;
#X connect 49 0 50 1;
#X connect 50 0 48 0;
#X connect 51 0 69 0;
#X connect 53 0 54 0;
#X connect 54 0 55 0;
#X connect 55 0 56 0;
#X connect 56 0 0 1;
#X connect 56 0 16 1;
#X connect 56 0 4 1;
#X connect 57 0 38 0;
#X connect 57 0 50 0;
#X connect 57 0 44 0;
#X connect 57 0 25 0;
#X connect 57 0 64 0;
#X connect 58 0 35 0;
#X connect 58 0 47 0;
#X connect 58 0 41 0;
#X connect 58 0 61 0;
#X connect 59 0 52 0;
#X connect 60 0 53 0;
#X connect 60 0 53 1;
#X connect 61 0 62 0;
#X connect 62 0 60 0;
#X connect 63 0 5 0;
#X connect 63 0 5 1;
#X connect 64 0 65 0;
#X connect 65 0 63 0;
#X connect 66 0 67 0;
#X connect 67 0 24 0;
#X connect 67 0 30 0;
#X connect 68 0 66 0;
#X connect 69 0 9 0;
