#N canvas -1916 -148 1487 1093 12;
#X declare -lib zexy;
#X obj 84 93 oscparse;
#X obj 84 119 route list;
#X obj 84 171 symbol \$1;
#X obj 84 67 netreceive -u -b 6667;
#X obj 1036 90 declare -lib zexy;
#X obj 84 196 s2l;
#X text 111 197 SYNTH;
#X obj 108 452 *~;
#X obj 108 486 dac~;
#X obj 146 452 hsl 162 19 0 1 0 0 empty empty empty -2 -10 0 12 #fcfcfc #000000 #000000 0 1;
#X obj 1036 119 loadbang;
#X msg 1036 143 \; pd dsp 1;
#X obj 76 527 live-analysis 1;
#X obj 1040 247 s 1-history;
#X obj 1133 246 s 1-fftsettings;
#X obj 1254 246 s 1-lop-freq;
#X obj 673 63 netreceive -u -b 6668;
#X obj 673 86 oscparse;
#X obj 673 112 route list;
#X obj 673 164 symbol \$1;
#X obj 673 189 s2l;
#X text 700 190 SYNTH;
#X obj 703 447 *~;
#X obj 703 481 dac~;
#X obj 741 447 hsl 162 19 0 1 0 0 empty empty empty -2 -10 0 12 #fcfcfc #000000 #000000 0 1;
#X obj 1133 270 s 2-fftsettings;
#X obj 1254 270 s 2-lop-freq;
#X obj 1040 271 s 2-history;
#X obj 649 529 live-analysis 2;
#X text 709 33 TARGET;
#X text 132 40 AGENT;
#X obj 471 846 list append;
#X msg 348 952 disconnect;
#X text 397 982 UDP \, FUDI;
#X obj 292 1007 tgl 19 0 empty empty empty 0 -10 0 12 #dfdfdf #000000 #000000 0 1;
#X obj 292 978 netsend -u -b;
#X msg 292 924 connect localhost 6666;
#X obj 292 896 loadbang;
#X msg 471 923 bang;
#X obj 471 947 s agent-send-time;
#X obj 292 951 spigot;
#X obj 364 866 tgl 50 0 empty empty INTERACTION 0 -10 0 12 #faff00 #000000 #000000 0 1;
#X obj 471 897 oscformat feats loudness;
#X obj 471 870 list append;
#X obj 161 199 s agent-params;
#X obj 562 870 r agent-params;
#X msg 165 94 bang;
#X obj 165 118 s agent-response-time;
#X obj 1272 135 r agent-response-time;
#X obj 1240 110 r agent-send-time;
#X obj 1240 162 timer;
#X floatatom 1240 186 8 0 0 0 - - - 0;
#X text 1238 86 AGENT RESPONSE TIME [ms];
#X obj 84 145 route agent-params;
#X obj 614 846 loadbang;
#X obj 84 231 synth 1, f 12;
#X obj 673 219 synth 2, f 12;
#X obj 673 138 route target-params;
#X msg 1040 223 100;
#X msg 1254 221 10000;
#X msg 1133 222 256;
#X msg 564 846 0 0 0;
#X connect 0 0 1 0;
#X connect 1 0 53 0;
#X connect 2 0 5 0;
#X connect 3 0 0 0;
#X connect 3 0 46 0;
#X connect 5 0 44 0;
#X connect 5 0 55 0;
#X connect 7 0 8 0;
#X connect 7 0 8 1;
#X connect 9 0 7 1;
#X connect 10 0 11 0;
#X connect 12 0 31 0;
#X connect 16 0 17 0;
#X connect 17 0 18 0;
#X connect 18 0 57 0;
#X connect 19 0 20 0;
#X connect 20 0 56 0;
#X connect 22 0 23 0;
#X connect 22 0 23 1;
#X connect 24 0 22 1;
#X connect 28 0 31 1;
#X connect 31 0 43 0;
#X connect 32 0 35 0;
#X connect 35 0 34 0;
#X connect 36 0 35 0;
#X connect 37 0 36 0;
#X connect 38 0 39 0;
#X connect 40 0 35 0;
#X connect 41 0 40 1;
#X connect 42 0 38 0;
#X connect 42 0 40 0;
#X connect 43 0 42 0;
#X connect 45 0 43 1;
#X connect 46 0 47 0;
#X connect 48 0 50 1;
#X connect 49 0 50 0;
#X connect 50 0 51 0;
#X connect 53 0 2 0;
#X connect 54 0 61 0;
#X connect 55 0 7 0;
#X connect 55 0 12 0;
#X connect 56 0 28 0;
#X connect 56 0 22 0;
#X connect 57 0 19 0;
#X connect 58 0 13 0;
#X connect 58 0 27 0;
#X connect 59 0 15 0;
#X connect 59 0 26 0;
#X connect 60 0 14 0;
#X connect 60 0 25 0;
#X connect 61 0 43 1;
