#N canvas -1489 327 1414 583 12;
#X obj 739 47 inlet~;
#X obj 694 179 fluid.loudness~;
#X obj 694 234 unpack f f, f 11;
#X obj 694 284 dbtorms;
#X obj 694 259 + 100;
#X obj 873 259 list length;
#X obj 873 181 fluid.mfcc~ 13 -maxnumcoeffs 40;
#X obj 1103 181 fluid.chroma~ 12 -numchroma 12;
#X obj 694 207 fluid.stats -history 50;
#X obj 692 332 fluid.spectralshape~;
#X obj 873 332 fluid.sinefeature~ 10;
#N canvas 0 22 450 278 (subpatch) 0;
#X array \$1-chroma 12 float 3;
#A 0 4.45094e-09 4.41538e-09 4.36336e-09 4.43307e-09 4.45083e-09 4.41303e-09 4.31798e-09 4.16639e-09 4.03546e-09 4.22305e-09 4.35604e-09 4.43195e-09;
#X coords 0 20 12 0 150 40 1 0 0;
#X restore 197 290 graph;
#X obj 873 206 fluid.stats -history 50;
#X obj 1103 205 fluid.stats -history 50;
#X obj 692 358 fluid.stats -history 50;
#X obj 873 358 fluid.stats -history 50;
#X obj 1102 361 fluid.stats -history 50;
#X obj 1103 257 list length;
#X obj 873 408 list length;
#X obj 1102 406 list length;
#X obj 692 382 unpack f f f f f f f;
#X msg 946 71 \$1 history;
#X obj 946 44 inlet;
#X obj 1112 44 inlet;
#X obj 464 165 cnv 19 160 175 empty empty sinefeature 40 12 0 12 #e3c6ff #000000 0;
#N canvas 0 22 450 278 (subpatch) 0;
#X array \$1-sinefeature.freqs 10 float 3;
#A 0 0 0 0 0 0 0 0 0 0 0;
#X coords 0 20000 10 0 150 45 1 0 0;
#X restore 469 212 graph;
#N canvas 0 22 450 278 (subpatch) 0;
#X array \$1-sinefeature.mags 10 float 3;
#A 0 0 0 0 0 0 0 0 0 0 0;
#X coords 0 1 10 0 150 45 1 0 0;
#X restore 469 280 graph;
#X obj 360 165 cnv 19 100 175 empty empty specshape 20 12 0 12 #ffe3c6 #202020 0;
#X obj 382 210 vsl 8 100 0 10000 0 0 empty empty empty 0 -9 0 12 #fcfcfc #000000 #000000 0 1;
#X obj 390 210 vsl 8 100 0 10000 0 0 empty empty empty 0 -9 0 12 #fcfcfc #000000 #000000 0 1;
#X obj 398 210 vsl 8 100 0 400 0 0 empty empty empty 0 -9 0 12 #fcfcfc #000000 #000000 0 1;
#X obj 406 210 vsl 8 100 0 20000 0 0 empty empty empty 0 -9 0 12 #fcfcfc #000000 #000000 0 1;
#X obj 414 210 vsl 8 100 0 20000 0 0 empty empty empty 0 -9 0 12 #fcfcfc #000000 #000000 0 1;
#X obj 422 210 vsl 8 100 -100 0 0 0 empty empty empty 0 -9 0 12 #fcfcfc #000000 #000000 0 1;
#X obj 430 210 vsl 8 100 0 100 0 0 empty empty empty 0 -9 0 12 #fcfcfc #000000 #000000 0 1;
#X obj 186 255 cnv 19 170 85 empty empty chroma 60 12 0 12 #c6feff #000000 0;
#N canvas 0 22 450 278 (subpatch) 0;
#X array \$1-mfcc 13 float 3;
#A 0 -1899.97 111.76 107.391 100.263 90.603 78.715 64.9724 49.8031 33.6753 17.0806 0.517261 -15.5274 -30.5932;
#X coords 0 1000 13 -1000 150 40 1 0 0;
#X restore 197 201 graph;
#X obj 186 165 cnv 19 170 85 empty empty mfcc 60 12 0 12 #ffc7c6 #000000 0;
#X obj 101 165 cnv 19 80 175 empty empty loudness 10 12 0 12 #feffc6 #202020 0;
#X obj 129 211 vsl 8 100 -150 0 0 0 empty empty empty 0 -9 0 12 #fcfcfc #000000 #000000 0 1;
#X obj 137 211 vsl 8 100 -290 1 0 0 empty empty empty 0 -9 0 12 #fcfcfc #000000 #000000 0 1;
#X obj 145 211 vsl 8 100 0 1 0 0 empty empty empty 0 -9 0 12 #fcfcfc #000000 #000000 0 1;
#X obj 101 101 cnv 19 523 60 empty empty ANALYSIS 330 30 0 20 #e8ebeb #202020 0;
#X floatatom 219 110 5 2 1000 1 avg - - 0;
#X floatatom 220 133 5 215 4096 1 fft\ Ws - - 0;
#X obj 122 112 tgl 30 0 empty empty START 40 15 0 12 #ff0400 #000000 #000000 0 1;
#X obj 739 97 *~;
#X obj 122 61 loadbang;
#X obj 549 386 list append;
#X obj 549 362 pack f f f;
#X obj 549 410 list append;
#X obj 549 434 list append;
#X obj 549 458 list append;
#X obj 549 482 list append;
#X obj 549 508 outlet;
#X obj 739 71 lop~ 20000;
#X obj 806 43 inlet;
#X obj 873 235 array set \$1-mfcc;
#X obj 873 282 array size \$1-mfcc;
#X obj 873 384 array set \$1-sinefeature.freqs;
#X obj 873 431 array size \$1-sinefeature.freqs;
#X obj 1102 429 array size \$1-sinefeature.mags;
#X obj 1102 383 array set \$1-sinefeature.mags;
#X obj 1103 233 array set \$1-chroma;
#X obj 1103 280 array size \$1-chroma;
#X obj 820 71 r \$1-lop-freq;
#X obj 992 44 r \$1-history;
#X obj 1159 43 r \$1-fftsettings;
#X floatatom 320 110 5 1 20000 1 lop-f - - 0;
#X msg 1112 70 fftsettings \$1 \$1 -1;
#X connect 0 0 55 0;
#X connect 1 0 8 0;
#X connect 2 0 4 0;
#X connect 2 0 39 0;
#X connect 2 0 49 0;
#X connect 2 1 40 0;
#X connect 2 1 49 1;
#X connect 3 0 41 0;
#X connect 3 0 49 2;
#X connect 4 0 3 0;
#X connect 5 0 58 0;
#X connect 6 0 12 0;
#X connect 7 0 13 0;
#X connect 8 0 2 0;
#X connect 9 0 14 0;
#X connect 9 0 51 1;
#X connect 10 0 15 0;
#X connect 10 1 16 0;
#X connect 12 0 5 0;
#X connect 12 0 48 1;
#X connect 12 0 57 0;
#X connect 13 0 17 0;
#X connect 13 0 50 1;
#X connect 13 0 63 0;
#X connect 14 0 20 0;
#X connect 15 0 18 0;
#X connect 15 0 52 1;
#X connect 15 0 59 0;
#X connect 16 0 19 0;
#X connect 16 0 53 1;
#X connect 16 0 62 0;
#X connect 17 0 64 0;
#X connect 18 0 60 0;
#X connect 19 0 61 0;
#X connect 20 0 28 0;
#X connect 20 1 29 0;
#X connect 20 2 30 0;
#X connect 20 3 31 0;
#X connect 20 4 32 0;
#X connect 20 5 33 0;
#X connect 20 6 34 0;
#X connect 21 0 14 0;
#X connect 21 0 15 0;
#X connect 21 0 13 0;
#X connect 21 0 12 0;
#X connect 21 0 8 0;
#X connect 21 0 16 0;
#X connect 22 0 21 0;
#X connect 22 0 43 0;
#X connect 23 0 69 0;
#X connect 23 0 44 0;
#X connect 45 0 46 1;
#X connect 46 0 1 0;
#X connect 46 0 9 0;
#X connect 46 0 6 0;
#X connect 46 0 10 0;
#X connect 46 0 7 0;
#X connect 47 0 45 0;
#X connect 48 0 50 0;
#X connect 49 0 48 0;
#X connect 50 0 51 0;
#X connect 51 0 52 0;
#X connect 52 0 53 0;
#X connect 53 0 54 0;
#X connect 55 0 46 0;
#X connect 56 0 55 1;
#X connect 56 0 68 0;
#X connect 65 0 55 1;
#X connect 65 0 68 0;
#X connect 66 0 21 0;
#X connect 66 0 43 0;
#X connect 67 0 69 0;
#X connect 67 0 44 0;
#X connect 69 0 9 0;
#X connect 69 0 10 0;
#X connect 69 0 7 0;
#X connect 69 0 6 0;
#X coords 0 -1 1 1 526 242 1 100 100;
