#N canvas 0 38 1512 916 12;
#X obj 117 176 soundfiler;
#X obj 112 363 bng 15 250 50 0 empty empty empty 17 7 0 10 #fcfcfc #000000 #000000;
#N canvas 0 22 450 278 (subpatch) 0;
#X array \$0-bufmfcc_feats-0 3789 float 0;
#X coords 0 300 3788 -300 400 30 1 0 0;
#X restore 977 188 graph;
#N canvas 121 159 450 278 (subpatch) 0;
#X array \$0-bufmfcc 1.93958e+06 float 0;
#X coords 0 0.5 1.93958e+06 -0.5 400 53 1 0 0;
#X restore 977 113 graph;
#N canvas 0 22 450 278 (subpatch) 0;
#X array \$0-bufmfcc_feats-1 3789 float 0;
#X coords 0 200 3788 -200 400 30 1 0 0;
#X restore 977 238 graph;
#N canvas 0 22 450 278 (subpatch) 0;
#X array \$0-bufmfcc_feats-2 3789 float 0;
#X coords 0 100 3788 -100 400 30 1 0 0;
#X restore 977 287 graph;
#N canvas 0 22 450 278 (subpatch) 0;
#X array \$0-bufmfcc_feats-3 3789 float 0;
#X coords 0 100 3788 -100 400 30 1 0 0;
#X restore 977 336 graph;
#N canvas 0 22 450 278 (subpatch) 0;
#X array \$0-bufmfcc_feats-4 3789 float 0;
#X coords 0 100 3788 -100 400 30 1 0 0;
#X restore 977 385 graph;
#N canvas 0 22 450 278 (subpatch) 0;
#X array \$0-bufmfcc_feats-5 3789 float 0;
#X coords 0 100 3788 -100 400 30 1 0 0;
#X restore 977 434 graph;
#N canvas 0 22 450 278 (subpatch) 0;
#X array \$0-bufmfcc_feats-6 3789 float 0;
#X coords 0 300 3788 -300 400 30 1 0 0;
#X restore 977 484 graph;
#N canvas 0 22 450 278 (subpatch) 0;
#X array \$0-bufmfcc_feats-7 3789 float 0;
#X coords 0 200 3788 -200 400 30 1 0 0;
#X restore 977 533 graph;
#N canvas 0 22 450 278 (subpatch) 0;
#X array \$0-bufmfcc_feats-8 3789 float 0;
#X coords 0 100 3788 -100 400 30 1 0 0;
#X restore 977 583 graph;
#N canvas 0 22 450 278 (subpatch) 0;
#X array \$0-bufmfcc_feats-9 3789 float 0;
#X coords 0 100 3788 -100 400 30 1 0 0;
#X restore 977 634 graph;
#N canvas 0 22 450 278 (subpatch) 0;
#X array \$0-bufmfcc_feats-10 3789 float 0;
#X coords 0 100 3788 -100 400 30 1 0 0;
#X restore 977 684 graph;
#N canvas 0 22 450 278 (subpatch) 0;
#X array \$0-bufmfcc_feats-11 3789 float 0;
#X coords 0 100 3788 -100 400 30 1 0 0;
#X restore 977 733 graph;
#N canvas 0 22 450 278 (subpatch) 0;
#X array \$0-bufmfcc_feats-12 3789 float 0;
#X coords 0 100 3788 -100 400 30 1 0 0;
#X restore 977 783 graph;
#X obj 112 479 f \$0;
#X msg 112 506 \; \$1-bufmfcc_feats-0 xticks 0 0 0 \; \$1-bufmfcc_feats-1 xticks 0 0 0 \; \$1-bufmfcc_feats-2 xticks 0 0 0 \; \$1-bufmfcc_feats-3 xticks 0 0 0 \; \$1-bufmfcc_feats-4 xticks 0 0 0 \; \$1-bufmfcc_feats-5 xticks 0 0 0 \; \$1-bufmfcc_feats-6 xticks 0 0 0 \; \$1-bufmfcc_feats-7 xticks 0 0 0 \; \$1-bufmfcc_feats-8 xticks 0 0 0 \; \$1-bufmfcc_feats-9 xticks 0 0 0 \; \$1-bufmfcc_feats-10 xticks 0 0 0 \; \$1-bufmfcc_feats-11 xticks 0 0 0 \; \$1-bufmfcc_feats-12 xticks 0 0 0;
#X obj 112 385 fluid.bufmfcc 13 -source \$0-bufmfcc -features \$0-bufmfcc_feats, f 27;
#X text 140 360 input -feature type and params;
#X obj 499 376 bng 19 250 50 0 empty empty empty 0 -10 0 12 #fcfcfc #000000 #000000;
#X msg 545 460 0;
#X obj 499 484 f;
#X obj 499 460 until;
#X obj 535 484 + 1;
#X obj 533 554 array get;
#X msg 606 553 symbol \$2-bufmfcc_feats-\$1;
#X obj 606 527 list \$0;
#X obj 533 580 text set \$0-buffer 1e+06;
#X msg 671 503 clear;
#X obj 671 527 s \$0-buffer;
#X obj 499 673 text define \$0-buffer;
#X obj 606 503 f;
#X obj 499 582 f;
#X obj 499 508 t b b b f;
#X obj 117 99 receive filename;
#X obj 117 124 list \$0;
#X obj 716 140 send filename;
#X obj 499 614 list append;
#X obj 588 614 receive filename;
#X obj 496 98 loadbang;
#X obj 496 122 del 50;
#X obj 112 439 t b b;
#X text 535 375 write to file;
#X obj 499 401 t b b b;
#X msg 499 643 write mfcc/\$2/bufmfcc_feats-\$1.txt;
#X msg 117 151 read -resize corpus/\$1.wav \$2-bufmfcc;
#X obj 389 509 del 100;
#X msg 389 535 \; pd quit;
#X msg 716 111 impro-0;
#X msg 499 436 7;
#X connect 1 0 18 0;
#X connect 16 0 17 0;
#X connect 18 0 42 0;
#X connect 20 0 44 0;
#X connect 21 0 22 1;
#X connect 22 0 24 0;
#X connect 22 0 34 0;
#X connect 23 0 22 0;
#X connect 24 0 22 1;
#X connect 25 0 28 0;
#X connect 26 0 25 2;
#X connect 27 0 26 0;
#X connect 29 0 30 0;
#X connect 32 0 27 0;
#X connect 33 0 38 0;
#X connect 34 0 33 0;
#X connect 34 1 32 0;
#X connect 34 1 25 0;
#X connect 34 2 29 0;
#X connect 34 3 32 1;
#X connect 34 3 33 1;
#X connect 35 0 36 0;
#X connect 36 0 46 0;
#X connect 38 0 45 0;
#X connect 39 0 38 1;
#X connect 40 0 41 0;
#X connect 41 0 1 0;
#X connect 42 0 20 0;
#X connect 42 1 16 0;
#X connect 44 0 47 0;
#X connect 44 1 50 0;
#X connect 44 2 21 0;
#X connect 45 0 31 0;
#X connect 46 0 0 0;
#X connect 47 0 48 0;
#X connect 49 0 37 0;
#X connect 50 0 23 0;
