#N canvas 111 112 1023 707 12;
#X obj 141 191 vsl 16 136 0 1 0 0 empty empty empty 0 -9 0 10 #ffc7c6 #000000 #000000 0 1;
#X obj 520 392 line~;
#X obj 215 190 vsl 16 136 0 1 0 0 empty empty empty 0 -9 0 10 #c6ffc7 #000000 #000000 0 1;
#X obj 600 390 line~;
#X obj 297 191 vsl 16 136 0 1 0 0 empty empty empty 0 -9 0 10 #c6feff #000000 #000000 0 1;
#X obj 681 388 line~;
#X obj 520 413 *~ 400;
#X text 132 165 freq;
#X text 181 165 harmonicity;
#X text 279 167 mod index;
#X obj 600 411 *~ 5;
#X obj 681 409 *~ 5;
#X obj 552 457 fm_synth;
#X obj 382 191 vsl 16 136 0 1 0 0 empty empty empty 0 -9 0 10 #ffe3c6 #000000 #000000 0 1;
#X obj 762 388 line~;
#X obj 552 487 *~;
#X obj 519 89 ctlin 19;
#X obj 600 90 ctlin 23;
#X floatatom 519 113 5 0 0 0 - - - 0;
#X floatatom 600 114 5 0 0 0 - - - 0;
#X obj 519 136 / 127;
#X obj 600 137 / 127;
#X floatatom 681 113 5 0 0 0 - - - 0;
#X floatatom 762 114 5 0 0 0 - - - 0;
#X obj 681 136 / 127;
#X obj 762 137 / 127;
#X obj 681 89 ctlin 27;
#X obj 762 90 ctlin 31;
#X obj 575 554 throw~ target;
#X msg 520 371 \$1 5;
#X msg 600 369 \$1 5;
#X msg 681 367 \$1 5;
#X msg 762 365 \$1 5;
#X text 361 166 amplitude;
#X obj 158 123 tgl 19 0 empty empty record 25 10 0 12 #ff0400 #000000 #000000 0 1;
#X obj 555 518 *~;
#X connect 0 0 29 0;
#X connect 1 0 6 0;
#X connect 2 0 30 0;
#X connect 3 0 10 0;
#X connect 4 0 31 0;
#X connect 5 0 11 0;
#X connect 6 0 12 0;
#X connect 10 0 12 1;
#X connect 11 0 12 2;
#X connect 12 0 15 0;
#X connect 13 0 32 0;
#X connect 14 0 15 1;
#X connect 15 0 35 0;
#X connect 16 0 18 0;
#X connect 17 0 19 0;
#X connect 18 0 20 0;
#X connect 19 0 21 0;
#X connect 20 0 0 0;
#X connect 21 0 2 0;
#X connect 22 0 24 0;
#X connect 23 0 25 0;
#X connect 24 0 4 0;
#X connect 25 0 13 0;
#X connect 26 0 22 0;
#X connect 27 0 23 0;
#X connect 29 0 1 0;
#X connect 30 0 3 0;
#X connect 31 0 5 0;
#X connect 32 0 14 0;
#X connect 34 0 35 1;
#X connect 35 0 28 0;
#X coords 0 -1 1 1 350 300 1 100 100;
