#N canvas 92 130 1152 717 12;
#X declare -lib zexy;
#X obj 696 84 oscparse;
#X obj 696 110 route list;
#X obj 696 162 symbol \$1;
#X text 737 32 OSC RECEIVE;
#X obj 696 58 netreceive -u -b 6667;
#X obj 696 136 route result;
#X obj 918 56 declare -lib zexy;
#X obj 696 187 s2l;
#X text 737 210 SYNTH;
#X obj 145 202 vsl 16 136 0 1 0 0 empty empty empty 0 -9 0 10 #ffc7c6 #000000 #000000 0 1;
#X obj 696 477 line~;
#X obj 225 201 vsl 16 136 0 1 0 0 empty empty empty 0 -9 0 10 #c6ffc7 #000000 #000000 0 1;
#X obj 776 475 line~;
#X obj 303 199 vsl 16 136 0 1 0 0 empty empty empty 0 -9 0 10 #c6feff #000000 #000000 0 1;
#X obj 857 473 line~;
#X obj 696 498 *~ 400;
#X text 139 176 freq;
#X text 198 175 harmonicity;
#X text 288 175 mod index;
#X obj 776 496 *~ 5;
#X obj 857 494 *~ 5;
#X obj 728 542 fm_synth;
#X obj 387 200 vsl 16 136 0 1 0 0 empty empty empty 0 -9 0 10 #ffe3c6 #000000 #000000 0 1;
#X obj 938 473 line~;
#X obj 696 237 unpack 0 0 0 0, f 35;
#X obj 728 572 *~;
#X obj 701 638 throw~ agent;
#X msg 696 456 \$1 5;
#X msg 776 454 \$1 5;
#X msg 857 452 \$1 5;
#X msg 938 450 \$1 5;
#X text 368 173 amplitude;
#X obj 185 557 outlet;
#X obj 241 557 outlet;
#X obj 297 557 outlet;
#X obj 353 557 outlet;
#X connect 0 0 1 0;
#X connect 1 0 5 0;
#X connect 2 0 7 0;
#X connect 4 0 0 0;
#X connect 5 0 2 0;
#X connect 7 0 24 0;
#X connect 9 0 27 0;
#X connect 10 0 15 0;
#X connect 11 0 28 0;
#X connect 12 0 19 0;
#X connect 13 0 29 0;
#X connect 14 0 20 0;
#X connect 15 0 21 0;
#X connect 19 0 21 1;
#X connect 20 0 21 2;
#X connect 21 0 25 0;
#X connect 22 0 30 0;
#X connect 23 0 25 1;
#X connect 24 0 9 0;
#X connect 24 0 32 0;
#X connect 24 1 11 0;
#X connect 24 1 33 0;
#X connect 24 2 13 0;
#X connect 24 2 34 0;
#X connect 24 3 22 0;
#X connect 24 3 35 0;
#X connect 25 0 26 0;
#X connect 27 0 10 0;
#X connect 28 0 12 0;
#X connect 29 0 14 0;
#X connect 30 0 23 0;
#X coords 0 -1 1 1 350 300 1 100 100;
