#N canvas 0 38 1257 916 12;
#X declare -lib zexy;
#X obj 93 108 oscparse;
#X obj 93 134 route list;
#X obj 93 186 symbol \$1;
#X text 134 56 OSC RECEIVE;
#X obj 93 82 netreceive -u -b 6667;
#X obj 93 160 route result;
#X obj 110 28 declare -lib zexy;
#X obj 93 211 s2l;
#X text 134 234 SYNTH;
#X obj 93 336 vsl 16 136 0 1 0 0 empty empty empty 0 -9 0 10 #fcfcfc #000000 #000000 0 1;
#X obj 93 501 line~;
#X obj 173 334 vsl 16 136 0 1 0 0 empty empty empty 0 -9 0 10 #fcfcfc #000000 #000000 0 1;
#X obj 173 499 line~;
#X obj 254 332 vsl 16 136 0 1 0 0 empty empty empty 0 -9 0 10 #fcfcfc #000000 #000000 0 1;
#X obj 254 497 line~;
#X obj 93 522 *~ 400;
#X text 87 310 freq;
#X text 152 308 harmonicity;
#X text 239 308 mod index;
#X obj 173 520 *~ 5;
#X obj 254 518 *~ 5;
#X obj 125 566 fm_synth;
#X obj 335 330 vsl 16 136 0 1 0 0 empty empty empty 0 -9 0 10 #fcfcfc #000000 #000000 0 1;
#X obj 335 497 line~;
#X obj 93 261 unpack 0 0 0 0, f 35;
#X obj 125 596 *~;
#X obj 523 107 oscparse;
#X obj 523 133 route list;
#X obj 523 185 symbol \$1;
#X text 564 55 OSC RECEIVE;
#X obj 523 159 route result;
#X obj 523 210 s2l;
#X text 619 232 SYNTH;
#X obj 523 335 vsl 16 136 0 1 0 0 empty empty empty 0 -9 0 10 #fcfcfc #000000 #000000 0 1;
#X obj 523 500 line~;
#X obj 603 333 vsl 16 136 0 1 0 0 empty empty empty 0 -9 0 10 #fcfcfc #000000 #000000 0 1;
#X obj 603 498 line~;
#X obj 684 331 vsl 16 136 0 1 0 0 empty empty empty 0 -9 0 10 #fcfcfc #000000 #000000 0 1;
#X obj 684 496 line~;
#X obj 523 521 *~ 400;
#X text 517 309 freq;
#X text 582 307 harmonicity;
#X text 669 307 mod index;
#X obj 603 519 *~ 5;
#X obj 684 517 *~ 5;
#X obj 555 565 fm_synth;
#X obj 765 329 vsl 16 136 0 1 0 0 empty empty empty 0 -9 0 10 #fcfcfc #000000 #000000 0 1;
#X obj 765 496 line~;
#X obj 523 260 unpack 0 0 0 0, f 35;
#X obj 555 595 *~;
#X obj 523 81 netreceive -u -b 6668;
#X obj 334 675 *~;
#X obj 331 712 dac~;
#X obj 403 684 hsl 162 19 0 1 0 0 empty empty empty -2 -10 0 12 #fcfcfc #000000 #000000 0 1;
#X obj 265 885 fluid.loudness~;
#X obj 265 960 dbtorms;
#X obj 265 935 + 100;
#X obj 265 910 unpack f;
#X obj 147 885 fluid.loudness~;
#X obj 147 960 dbtorms;
#X obj 147 935 + 100;
#X obj 147 910 unpack f;
#X floatatom 265 1026 5 0 0 0 - - - 0;
#X floatatom 147 1026 5 0 0 0 - - - 0;
#X obj 147 986 fluid.stats -history 350, f 12;
#X obj 265 986 fluid.stats -history 350, f 13;
#X obj 394 885 fluid.spectralshape~;
#X floatatom 394 1051 10 0 0 0 - - - 0;
#X obj 394 985 fluid.stats -history 50, f 13;
#X obj 394 1025 unpack 0;
#X obj 554 884 fluid.spectralshape~;
#X floatatom 626 1049 10 0 0 0 - - - 0;
#X obj 626 983 fluid.stats -history 50, f 13;
#X obj 626 1023 unpack 0;
#X obj 283 790 catch~ agent;
#X obj 473 794 catch~ target;
#X obj 394 909 unpack f f;
#X floatatom 496 1052 10 0 0 0 - - - 0;
#X obj 496 986 fluid.stats -history 50, f 13;
#X obj 496 1026 unpack 0;
#X floatatom 732 1048 10 0 0 0 - - - 0;
#X obj 732 982 fluid.stats -history 50, f 13;
#X obj 732 1022 unpack 0;
#X obj 554 908 unpack f f;
#X obj 861 898 fluid.mfcc~ 13 -maxnumcoeffs 40;
#X obj 861 925 array set \$0-mfcc.plot;
#X obj 861 960 fluid.mfcc~ 13 -maxnumcoeffs 40;
#X obj 861 988 array set \$0-mfcc-target.plot;
#N canvas 0 22 450 278 (subpatch) 0;
#X array \$0-mfcc.plot 13 float 3;
#A 0 -201.501 90.2916 32.038 24.6043 18.5155 14.0449 11.1254 7.9987 5.81051 3.26663 1.30785 -0.535262 -0.960966;
#X coords 0 1000 13 -1000 200 140 1 0 0;
#X restore 983 117 graph;
#N canvas 0 22 450 278 (subpatch) 0;
#X array \$0-mfcc-target.plot 13 float 3;
#A 0 -245.17 164.729 128.827 62.1473 31.5339 18.5006 6.65472 -7.28955 -8.99701 -11.4072 -10.4115 -8.10719 -2.04809;
#X coords 0 1000 13 -1000 200 140 1 0 0;
#X restore 982 317 graph;
#X obj 80 643 throw~ agent;
#X obj 579 639 throw~ target;
#X msg 93 480 \$1 5;
#X msg 173 478 \$1 5;
#X msg 254 476 \$1 5;
#X msg 335 474 \$1 5;
#X msg 523 479 \$1 5;
#X msg 603 477 \$1 5;
#X msg 684 475 \$1 5;
#X msg 765 473 \$1 5;
#X connect 0 0 1 0;
#X connect 1 0 5 0;
#X connect 2 0 7 0;
#X connect 4 0 0 0;
#X connect 5 0 2 0;
#X connect 7 0 24 0;
#X connect 9 0 92 0;
#X connect 10 0 15 0;
#X connect 11 0 93 0;
#X connect 12 0 19 0;
#X connect 13 0 94 0;
#X connect 14 0 20 0;
#X connect 15 0 21 0;
#X connect 19 0 21 1;
#X connect 20 0 21 2;
#X connect 21 0 25 0;
#X connect 22 0 95 0;
#X connect 23 0 25 1;
#X connect 24 0 9 0;
#X connect 24 1 11 0;
#X connect 24 2 13 0;
#X connect 24 3 22 0;
#X connect 25 0 51 0;
#X connect 25 0 90 0;
#X connect 26 0 27 0;
#X connect 27 0 30 0;
#X connect 28 0 31 0;
#X connect 30 0 28 0;
#X connect 31 0 48 0;
#X connect 33 0 96 0;
#X connect 34 0 39 0;
#X connect 35 0 97 0;
#X connect 36 0 43 0;
#X connect 37 0 98 0;
#X connect 38 0 44 0;
#X connect 39 0 45 0;
#X connect 43 0 45 1;
#X connect 44 0 45 2;
#X connect 45 0 49 0;
#X connect 46 0 99 0;
#X connect 47 0 49 1;
#X connect 48 0 33 0;
#X connect 48 1 35 0;
#X connect 48 2 37 0;
#X connect 48 3 46 0;
#X connect 49 0 51 0;
#X connect 49 0 91 0;
#X connect 50 0 26 0;
#X connect 51 0 52 0;
#X connect 51 0 52 1;
#X connect 53 0 51 1;
#X connect 54 0 57 0;
#X connect 55 0 65 0;
#X connect 56 0 55 0;
#X connect 57 0 56 0;
#X connect 58 0 61 0;
#X connect 59 0 64 0;
#X connect 60 0 59 0;
#X connect 61 0 60 0;
#X connect 64 0 63 0;
#X connect 65 0 62 0;
#X connect 66 0 76 0;
#X connect 68 0 69 0;
#X connect 69 0 67 0;
#X connect 70 0 83 0;
#X connect 72 0 73 0;
#X connect 73 0 71 0;
#X connect 74 0 58 0;
#X connect 74 0 66 0;
#X connect 74 0 84 0;
#X connect 75 0 54 0;
#X connect 75 0 70 0;
#X connect 75 0 86 0;
#X connect 76 0 68 0;
#X connect 76 1 78 0;
#X connect 78 0 79 0;
#X connect 79 0 77 0;
#X connect 81 0 82 0;
#X connect 82 0 80 0;
#X connect 83 0 72 0;
#X connect 83 1 81 0;
#X connect 84 0 85 0;
#X connect 86 0 87 0;
#X connect 92 0 10 0;
#X connect 93 0 12 0;
#X connect 94 0 14 0;
#X connect 95 0 23 0;
#X connect 96 0 34 0;
#X connect 97 0 36 0;
#X connect 98 0 38 0;
#X connect 99 0 47 0;
