#N canvas -1266 -216 1261 931 12;
#X obj 229 490 server-connector;
#X obj 565 130 FM4-agent;
#X obj 124 128 FM4-musician;
#X obj 894 643 adc~ 1;
#X obj 894 707 throw~ target;
#X obj 894 667 *~ 3;
#X floatatom 933 668 5 0 0 0 - - - 0;
#X text 886 585 MUSICIAN SOUND;
#X text 268 76 MUSICIAN;
#X text 719 79 AGENT;
#X connect 1 0 0 0;
#X connect 1 1 0 1;
#X connect 1 2 0 2;
#X connect 1 3 0 3;
#X connect 3 0 5 0;
#X connect 5 0 4 0;
#X connect 6 0 5 1;
