#N canvas -2477 134 1512 916 12;
#X declare -lib zexy;
#X msg 556 215 start;
#X floatatom 656 161 5 0 0 2 length\ [s] - - 0;
#X msg 621 211 stop;
#X obj 815 202 pack;
#X obj 621 183 del;
#X obj 656 183 * 1000;
#X obj 855 201 f \$0;
#X obj 556 123 bng 19 250 50 0 empty empty empty 0 -10 0 12 #fcfcfc #000000 #000000;
#X text 585 123 3 write to array;
#X msg 915 183 \; pd dsp 1;
#X obj 915 150 loadbang;
#X obj 815 176 t f b;
#X floatatom 758 141 5 0 0 0 - - - 0;
#X obj 757 202 / 44100;
#X obj 556 90 del 10;
#X text 785 94 N samples;
#X obj 758 113 receive N_samples;
#N canvas 121 159 450 278 (subpatch) 0;
#X array \$0-bufsource 4096 float 0;
#X coords 0 0.5 4095 -0.5 400 53 1 0 0;
#X restore 1183 232 graph;
#N canvas 121 159 450 278 (subpatch) 0;
#X array \$0-bufloudness-0 5 float 0;
#X coords 0 0.5 4 -100 400 53 1 0 0;
#X restore 1183 325 graph;
#X obj 556 247 tabwrite~ \$0-bufsource;
#N canvas 121 159 450 278 (subpatch) 0;
#X array \$0-bufloudness-1 5 float 0;
#X coords 0 0.5 4 -100 400 53 1 0 0;
#X restore 1182 404 graph;
#X obj 759 435 f \$0;
#X msg 759 462 \; \$1-bufloudness-0 xticks 0 0 0 \; \$1-bufloudness-1 xticks 0 0 0 \;;
#X obj 713 353 fluid.bufloudness -source \$0-bufsource -features \$0-bufloudness;
#X msg 815 229 \; \$2-bufsource resize \$1;
#X obj 461 551 array size \$0-bufloudness-0;
#X floatatom 461 579 5 0 0 0 - - - 0;
#X obj 461 602 until;
#X obj 461 630 f;
#X obj 497 630 + 1;
#X msg 514 601 0;
#X obj 461 659 tabread \$0-bufloudness-0;
#X obj 461 713 dbtorms;
#X obj 461 688 + 100;
#N canvas 0 22 450 278 (subpatch) 0;
#X array \$0-bufloudness-2 5 float 3;
#A 0 0.570793 0.562731 0.56605 0.418547 0.394797;
#X coords 0 1 5 -1 400 53 1 0 0;
#X restore 1180 490 graph;
#X obj 707 612 f \$0;
#X obj 654 638 pack f f;
#X obj 654 588 t f b;
#X obj 461 742 tabwrite \$0-bufloudness-2;
#X msg 654 666 \; \$2-bufloudness-2 resize \$1;
#X obj 713 402 t b b b;
#X msg 925 1049 disconnect;
#X text 1010 1115 UDP \, FUDI;
#X obj 906 1142 tgl 19 0 empty empty empty 0 -10 0 12 #dfdfdf #000000 #000000 0 1;
#X obj 906 1113 netsend -u -b;
#X msg 906 1019 connect localhost 6666;
#X obj 906 989 loadbang;
#X obj 931 1085 oscformat feats loudness;
#X obj 455 1070 array size \$0-bufloudness-0;
#X obj 455 1011 bng 19 250 50 0 empty empty empty 0 -10 0 12 #fcfcfc #000000 #000000;
#X floatatom 455 1098 5 0 0 0 - - - 0;
#X obj 455 1121 until;
#X obj 455 1149 f;
#X obj 491 1149 + 1;
#X msg 508 1120 0;
#X obj 219 1222 tabread \$0-bufloudness-0;
#X obj 93 108 oscparse;
#X obj 93 134 route list;
#X obj 93 186 symbol \$1;
#X text 134 56 OSC RECEIVE;
#X obj 93 82 netreceive -u -b 6667;
#X obj 93 160 route result;
#X obj 303 57 declare -lib zexy;
#X obj 93 211 s2l;
#X obj 238 1252 tabread \$0-bufloudness-1;
#X obj 257 1280 tabread \$0-bufloudness-2;
#X obj 106 1234 t b f;
#X obj 455 1040 t b b;
#N canvas 0 22 450 278 (subpatch) 0;
#X array \$0-bufmfcc_feats-0 5 float 2;
#X coords 0 300 5 -300 400 30 1 0 0;
#X restore 1655 306 graph;
#N canvas 0 22 450 278 (subpatch) 0;
#X array \$0-bufmfcc_feats-1 5 float 2;
#X coords 0 200 5 -200 400 30 1 0 0;
#X restore 1655 356 graph;
#N canvas 0 22 450 278 (subpatch) 0;
#X array \$0-bufmfcc_feats-2 5 float 2;
#X coords 0 100 5 -100 400 30 1 0 0;
#X restore 1655 405 graph;
#N canvas 0 22 450 278 (subpatch) 0;
#X array \$0-bufmfcc_feats-3 5 float 2;
#X coords 0 100 5 -100 400 30 1 0 0;
#X restore 1655 454 graph;
#N canvas 0 22 450 278 (subpatch) 0;
#X array \$0-bufmfcc_feats-4 5 float 2;
#X coords 0 100 5 -100 400 30 1 0 0;
#X restore 1655 503 graph;
#N canvas 0 22 450 278 (subpatch) 0;
#X array \$0-bufmfcc_feats-5 5 float 2;
#X coords 0 100 5 -100 400 30 1 0 0;
#X restore 1655 552 graph;
#N canvas 0 22 450 278 (subpatch) 0;
#X array \$0-bufmfcc_feats-6 5 float 2;
#X coords 0 300 5 -300 400 30 1 0 0;
#X restore 1655 602 graph;
#N canvas 0 22 450 278 (subpatch) 0;
#X array \$0-bufmfcc_feats-7 5 float 2;
#X coords 0 200 5 -200 400 30 1 0 0;
#X restore 1655 651 graph;
#N canvas 0 22 450 278 (subpatch) 0;
#X array \$0-bufmfcc_feats-8 5 float 2;
#X coords 0 100 5 -100 400 30 1 0 0;
#X restore 1655 701 graph;
#N canvas 0 22 450 278 (subpatch) 0;
#X array \$0-bufmfcc_feats-9 5 float 2;
#X coords 0 100 5 -100 400 30 1 0 0;
#X restore 1655 752 graph;
#N canvas 0 22 450 278 (subpatch) 0;
#X array \$0-bufmfcc_feats-10 5 float 2;
#X coords 0 100 5 -100 400 30 1 0 0;
#X restore 1655 802 graph;
#N canvas 0 22 450 278 (subpatch) 0;
#X array \$0-bufmfcc_feats-11 5 float 2;
#X coords 0 100 5 -100 400 30 1 0 0;
#X restore 1655 851 graph;
#N canvas 0 22 450 278 (subpatch) 0;
#X array \$0-bufmfcc_feats-12 5 float 2;
#X coords 0 100 5 -100 400 30 1 0 0;
#X restore 1655 901 graph;
#X obj 883 663 f \$0;
#X msg 883 690 \; \$1-bufmfcc_feats-0 xticks 0 0 0 \; \$1-bufmfcc_feats-1 xticks 0 0 0 \; \$1-bufmfcc_feats-2 xticks 0 0 0 \; \$1-bufmfcc_feats-3 xticks 0 0 0 \; \$1-bufmfcc_feats-4 xticks 0 0 0 \; \$1-bufmfcc_feats-5 xticks 0 0 0 \; \$1-bufmfcc_feats-6 xticks 0 0 0 \; \$1-bufmfcc_feats-7 xticks 0 0 0 \; \$1-bufmfcc_feats-8 xticks 0 0 0 \; \$1-bufmfcc_feats-9 xticks 0 0 0 \; \$1-bufmfcc_feats-10 xticks 0 0 0 \; \$1-bufmfcc_feats-11 xticks 0 0 0 \; \$1-bufmfcc_feats-12 xticks 0 0 0;
#X text 882 578 input -feature type and params;
#X obj 883 603 fluid.bufmfcc 13 -source \$0-bufsource -features \$0-bufmfcc_feats, f 27;
#X obj 428 1223 tabread \$0-bufmfcc_feats-0;
#X obj 446 1250 tabread \$0-bufmfcc_feats-1;
#X obj 458 1280 tabread \$0-bufmfcc_feats-2;
#X obj 476 1307 tabread \$0-bufmfcc_feats-3;
#X obj 636 1223 tabread \$0-bufmfcc_feats-4;
#X obj 654 1250 tabread \$0-bufmfcc_feats-5;
#X obj 667 1280 tabread \$0-bufmfcc_feats-6;
#X obj 685 1307 tabread \$0-bufmfcc_feats-7;
#X obj 879 1222 tabread \$0-bufmfcc_feats-8;
#X obj 897 1249 tabread \$0-bufmfcc_feats-9;
#X obj 925 1276 tabread \$0-bufmfcc_feats-10;
#X obj 943 1303 tabread \$0-bufmfcc_feats-11;
#X obj 948 1331 tabread \$0-bufmfcc_feats-12;
#N canvas 121 159 450 278 (subpatch) 0;
#X array \$0-bufspectral-0 5 float 0;
#X coords 0 10000 4 -10000 400 53 1 0 0;
#X restore 2078 315 graph;
#N canvas 121 159 450 278 (subpatch) 0;
#X array \$0-bufspectral-1 5 float 0;
#X coords 0 10000 4 -10000 400 53 1 0 0;
#X restore 2079 405 graph;
#N canvas 121 159 450 278 (subpatch) 0;
#X array \$0-bufspectral-2 5 float 0;
#X coords 0 10000 4 -10000 400 53 1 0 0;
#X restore 2078 502 graph;
#N canvas 121 159 450 278 (subpatch) 0;
#X array \$0-bufspectral-3 5 float 0;
#X coords 0 10000 4 -10000 400 53 1 0 0;
#X restore 2079 592 graph;
#N canvas 121 159 450 278 (subpatch) 0;
#X array \$0-bufspectral-4 5 float 0;
#X coords 0 10000 4 -10000 400 53 1 0 0;
#X restore 2081 687 graph;
#N canvas 121 159 450 278 (subpatch) 0;
#X array \$0-bufspectral-5 5 float 0;
#X coords 0 10000 4 -10000 400 53 1 0 0;
#X restore 2080 784 graph;
#N canvas 121 159 450 278 (subpatch) 0;
#X array \$0-bufspectral-6 5 float 0;
#X coords 0 10000 4 -10000 400 53 1 0 0;
#X restore 2081 874 graph;
#X text 134 234 SYNTH;
#X text 674 47 RECORD AUDIO;
#X obj 622 312 t b b b;
#X obj 1180 706 f \$0;
#X msg 1180 733 \; \$1-bufspectral-0 xticks 0 0 0 \; \$1-bufspectral-1 xticks 0 0 0 \; \$1-bufspectral-2 xticks 0 0 0 \; \$1-bufspectral-3 xticks 0 0 0 \; \$1-bufspectral-4 xticks 0 0 0 \; \$1-bufspectral-5 xticks 0 0 0 \; \$1-bufspectral-6 xticks 0 0 0 \;;
#X obj 1180 661 fluid.bufspectralshape -source \$0-bufsource -features \$0-bufspectral;
#X obj 1118 1233 tabread \$0-bufspectral-0;
#X obj 1139 1262 tabread \$0-bufspectral-1;
#X obj 1157 1298 tabread \$0-bufspectral-2;
#X obj 1178 1327 tabread \$0-bufspectral-3;
#X obj 1323 1232 tabread \$0-bufspectral-4;
#X obj 1341 1268 tabread \$0-bufspectral-5;
#X obj 1362 1297 tabread \$0-bufspectral-6;
#X obj 461 476 t b b b;
#X obj 366 703 sel 4;
#X obj 398 674 - 1;
#X obj 362 808 del 3;
#X obj 93 336 vsl 16 136 0 1 0 0 empty empty empty 0 -9 0 10 #fcfcfc #000000 #000000 0 1;
#X msg 93 480 \$1 20;
#X obj 93 501 line~;
#X obj 173 334 vsl 16 136 0 1 0 0 empty empty empty 0 -9 0 10 #fcfcfc #000000 #000000 0 1;
#X msg 173 478 \$1 20;
#X obj 173 499 line~;
#X obj 254 332 vsl 16 136 0 1 0 0 empty empty empty 0 -9 0 10 #fcfcfc #000000 #000000 0 1;
#X msg 254 476 \$1 20;
#X obj 254 497 line~;
#X obj 93 522 *~ 400;
#X text 87 310 freq;
#X text 152 308 harmonicity;
#X text 239 308 mod index;
#X obj 173 520 *~ 5;
#X obj 254 518 *~ 5;
#X obj 125 566 fm_synth;
#X obj 335 330 vsl 16 136 0 1 0 0 empty empty empty 0 -9 0 10 #fcfcfc #000000 #000000 0 1;
#X msg 335 474 \$1 20;
#X obj 335 497 line~;
#X obj 93 261 unpack 0 0 0 0, f 35;
#X obj 125 596 *~;
#X msg 299 148 0.2 0.3 0.7 0.5;
#X msg 300 118 0 0 0 0;
#X obj 106 1375 pack 0 f f f f f f f f f f f f f f f f f f f f f f f f f f f f, f 185;
#X obj 106 1403 unpack 0 f f f f f f f f f f f f f f f f f f f f f f f f f f f f, f 109;
#X obj 106 1433 pack f f f f f f f f f f f f f f f f f f f f f f f f f f f f, f 109;
#X msg 997 186 4096;
#X obj 556 156 del 2;
#X connect 0 0 19 0;
#X connect 1 0 5 0;
#X connect 2 0 19 0;
#X connect 3 0 24 0;
#X connect 4 0 2 0;
#X connect 4 0 107 0;
#X connect 5 0 4 1;
#X connect 6 0 3 1;
#X connect 7 0 149 0;
#X connect 10 0 9 0;
#X connect 10 0 148 0;
#X connect 11 0 3 0;
#X connect 11 1 6 0;
#X connect 12 0 13 0;
#X connect 12 0 11 0;
#X connect 13 0 1 0;
#X connect 14 0 7 0;
#X connect 16 0 12 0;
#X connect 21 0 22 0;
#X connect 23 0 40 0;
#X connect 25 0 26 0;
#X connect 25 0 37 0;
#X connect 25 0 120 0;
#X connect 26 0 27 0;
#X connect 27 0 28 0;
#X connect 28 0 29 0;
#X connect 28 0 31 0;
#X connect 28 0 38 1;
#X connect 28 0 119 0;
#X connect 29 0 28 1;
#X connect 30 0 28 1;
#X connect 31 0 33 0;
#X connect 32 0 38 0;
#X connect 33 0 32 0;
#X connect 35 0 36 1;
#X connect 36 0 39 0;
#X connect 37 0 36 0;
#X connect 37 1 35 0;
#X connect 40 1 118 0;
#X connect 40 2 21 0;
#X connect 41 0 44 0;
#X connect 44 0 43 0;
#X connect 45 0 44 0;
#X connect 46 0 45 0;
#X connect 47 0 44 0;
#X connect 48 0 50 0;
#X connect 49 0 67 0;
#X connect 50 0 51 0;
#X connect 51 0 52 0;
#X connect 52 0 53 0;
#X connect 52 0 55 0;
#X connect 52 0 64 0;
#X connect 52 0 65 0;
#X connect 52 0 66 0;
#X connect 52 0 85 0;
#X connect 52 0 97 0;
#X connect 52 0 96 0;
#X connect 52 0 95 0;
#X connect 52 0 94 0;
#X connect 52 0 93 0;
#X connect 52 0 92 0;
#X connect 52 0 91 0;
#X connect 52 0 90 0;
#X connect 52 0 89 0;
#X connect 52 0 88 0;
#X connect 52 0 87 0;
#X connect 52 0 86 0;
#X connect 52 0 111 0;
#X connect 52 0 117 0;
#X connect 52 0 116 0;
#X connect 52 0 115 0;
#X connect 52 0 114 0;
#X connect 52 0 113 0;
#X connect 52 0 112 0;
#X connect 53 0 52 1;
#X connect 54 0 52 1;
#X connect 55 0 145 6;
#X connect 56 0 57 0;
#X connect 57 0 61 0;
#X connect 58 0 63 0;
#X connect 60 0 56 0;
#X connect 61 0 58 0;
#X connect 63 0 14 0;
#X connect 63 0 141 0;
#X connect 64 0 145 7;
#X connect 65 0 145 8;
#X connect 66 0 145 0;
#X connect 66 1 145 5;
#X connect 67 0 48 0;
#X connect 67 1 54 0;
#X connect 81 0 82 0;
#X connect 84 0 81 0;
#X connect 85 0 145 9;
#X connect 86 0 145 10;
#X connect 87 0 145 11;
#X connect 88 0 145 12;
#X connect 89 0 145 13;
#X connect 90 0 145 14;
#X connect 91 0 145 15;
#X connect 92 0 145 16;
#X connect 93 0 145 17;
#X connect 94 0 145 18;
#X connect 95 0 145 19;
#X connect 96 0 145 20;
#X connect 97 0 145 21;
#X connect 107 0 84 0;
#X connect 107 1 23 0;
#X connect 107 2 110 0;
#X connect 108 0 109 0;
#X connect 110 0 108 0;
#X connect 111 0 145 22;
#X connect 112 0 145 23;
#X connect 113 0 145 24;
#X connect 114 0 145 25;
#X connect 115 0 145 26;
#X connect 116 0 145 27;
#X connect 117 0 145 28;
#X connect 118 1 25 0;
#X connect 118 2 30 0;
#X connect 119 0 121 0;
#X connect 120 0 119 1;
#X connect 121 0 49 0;
#X connect 122 0 123 0;
#X connect 123 0 124 0;
#X connect 124 0 131 0;
#X connect 125 0 126 0;
#X connect 126 0 127 0;
#X connect 127 0 135 0;
#X connect 128 0 129 0;
#X connect 129 0 130 0;
#X connect 130 0 136 0;
#X connect 131 0 137 0;
#X connect 135 0 137 1;
#X connect 136 0 137 2;
#X connect 137 0 142 0;
#X connect 138 0 139 0;
#X connect 139 0 140 0;
#X connect 140 0 142 1;
#X connect 141 0 122 0;
#X connect 141 0 145 1;
#X connect 141 1 125 0;
#X connect 141 1 145 2;
#X connect 141 2 128 0;
#X connect 141 2 145 3;
#X connect 141 3 138 0;
#X connect 141 3 145 4;
#X connect 142 0 19 0;
#X connect 143 0 14 0;
#X connect 143 0 141 0;
#X connect 144 0 14 0;
#X connect 144 0 141 0;
#X connect 145 0 146 0;
#X connect 146 1 147 0;
#X connect 146 2 147 1;
#X connect 146 3 147 2;
#X connect 146 4 147 3;
#X connect 146 5 147 4;
#X connect 146 6 147 5;
#X connect 146 7 147 6;
#X connect 146 8 147 7;
#X connect 146 9 147 8;
#X connect 146 10 147 9;
#X connect 146 11 147 10;
#X connect 146 12 147 11;
#X connect 146 13 147 12;
#X connect 146 14 147 13;
#X connect 146 15 147 14;
#X connect 146 16 147 15;
#X connect 146 17 147 16;
#X connect 146 18 147 17;
#X connect 146 19 147 18;
#X connect 146 20 147 19;
#X connect 146 21 147 20;
#X connect 146 22 147 21;
#X connect 146 23 147 22;
#X connect 146 24 147 23;
#X connect 146 25 147 24;
#X connect 146 26 147 25;
#X connect 146 27 147 26;
#X connect 146 28 147 27;
#X connect 147 0 47 0;
#X connect 148 0 12 0;
#X connect 149 0 0 0;
#X connect 149 0 4 0;
#X connect 149 0 19 0;
