#N canvas -1266 -216 1261 931 12;
#X obj 229 490 server-connector;
#X obj 565 130 FM4-agent;
#X obj 124 128 FM4-musician;
#X obj 174 1145 adc~ 1;
#X obj 193 1430 throw~ target;
#X obj 174 1169 *~ 3;
#X floatatom 213 1170 5 0 0 0 - - - 0;
#X text 166 1087 MUSICIAN SOUND;
#N canvas 92 130 1028 567 vst-amp 0;
#X obj 189 261 vstplugin~;
#N canvas 101 355 513 414 message-out 0;
#X obj 20 17 inlet;
#X obj 20 63 s \$0-program-data;
#X obj 20 40 route program_data bank_data, f 39;
#X obj 135 63 s \$0-bank-data;
#X obj 278 135 print;
#X obj 278 114 spigot 1;
#X obj 337 114 tgl 15 0 empty empty empty 17 7 0 10 #fcfcfc #000000 #000000 0 1;
#X text 358 113 print messages;
#X obj 251 86 s \$0-out;
#X obj 251 63 t a a;
#X msg 28 178 param_automated <index> <value>;
#X msg 28 204 latency <numsamples>;
#X msg 30 257 midi <bytes...>;
#X msg 29 284 sysex <bytes...>;
#X text 233 172 a parameter has been changed in the GUI (or by changing a linked parameter)., f 40;
#X text 162 204 the plugin's internal processing latency has changed;
#X text 139 257 a MIDI message sent by the plugin;
#X text 139 284 a SysEx message sent by the plugin;
#X text 28 153 events:;
#X text 163 222 NOTE: the value includes the additional latency caused by multithreading (see the "-t" flag for "open"), f 55;
#X msg 29 337 crash;
#X text 312 85 goes to vstpresetbrowser;
#X text 23 87 see [pd preset];
#X text 83 338 the plugin subprocess has crashed.;
#X text 84 356 This is only sent for bridged or sandboxed plugins \, because normal plugins would simply crash Pd., f 52;
#X msg 29 311 update;
#X text 87 312 multiple parameters have changed internally;
#X connect 0 0 2 0;
#X connect 2 0 1 0;
#X connect 2 1 3 0;
#X connect 2 2 9 0;
#X connect 5 0 4 0;
#X connect 6 0 5 1;
#X connect 9 0 8 0;
#X connect 9 1 5 0;
#X restore 256 287 pd message-out;
#X msg 59 261 param_list;
#X obj 171 339 outlet~;
#X obj 233 339 outlet~;
#X obj 549 106 loadbang;
#X msg 771 158 \; pd dsp 1;
#X msg 475 259 preset_list;
#X text 567 260 find out path of presets;
#X text 658 283 save current settings as preset;
#X msg 475 309 param_list;
#X text 563 309 print list of plugin parameters;
#X obj 549 151 del 5;
#X obj 460 151 del 10;
#X obj 191 70 inlet~;
#X obj 282 72 inlet~;
#X obj 461 333 s \$0-amp-msg;
#X obj 59 235 r \$0-amp-msg;
#X msg 549 174 open -e Archetype_Nolly;
#X text 163 211 ARCHETYPE NOLLY AMP;
#X msg 475 284 preset_save <Accordoni> 0;
#X msg 460 202 program_read /Users/vincemad/Library/Audio/Presets/Neural\ DSP/Archetype\ Nolly/_Accordoni_.fxp, f 63;
#X connect 0 0 3 0;
#X connect 0 1 4 0;
#X connect 0 2 1 0;
#X connect 2 0 0 0;
#X connect 5 0 6 0;
#X connect 5 0 12 0;
#X connect 5 0 13 0;
#X connect 7 0 16 0;
#X connect 10 0 16 0;
#X connect 12 0 18 0;
#X connect 13 0 21 0;
#X connect 14 0 0 0;
#X connect 15 0 0 1;
#X connect 17 0 0 0;
#X connect 18 0 16 0;
#X connect 20 0 16 0;
#X connect 21 0 16 0;
#X restore 169 1239 pd vst-amp;
#X obj 170 1334 *~;
#X obj 237 1305 *~;
#X obj 258 1279 hsl 162 19 0 1 0 0 empty empty guitar\ vol 10 10 0 12 #fcfcfc #000000 #000000 0 1;
#X obj 282 1242 r guitar-volume;
#X obj 177 1383 *~ 3;
#X floatatom 216 1384 5 0 0 0 - - - 0;
#X obj 606 1311 writesf~ 2;
#X msg 608 1249 start;
#X msg 668 1263 stop;
#X obj 786 1204 catch~ out-1;
#X obj 787 1238 catch~ out-2;
#X msg 592 1213 open FM4-agent.wav;
#X text 268 76 MUSICIAN;
#X text 719 79 AGENT;
#X obj 395 1097 ctlin 49;
#X obj 395 1121 / 127;
#X connect 1 0 0 0;
#X connect 1 1 0 1;
#X connect 1 2 0 2;
#X connect 1 3 0 3;
#X connect 3 0 5 0;
#X connect 5 0 8 0;
#X connect 6 0 5 1;
#X connect 8 0 9 0;
#X connect 8 1 10 0;
#X connect 9 0 13 0;
#X connect 10 0 13 0;
#X connect 11 0 10 1;
#X connect 11 0 9 1;
#X connect 12 0 11 0;
#X connect 13 0 4 0;
#X connect 14 0 13 1;
#X connect 16 0 15 0;
#X connect 17 0 15 0;
#X connect 18 0 15 0;
#X connect 19 0 15 1;
#X connect 20 0 15 0;
#X connect 23 0 24 0;
#X connect 24 0 11 0;
