#N canvas 0 38 1512 916 12;
#X declare -lib zexy;
#X obj 93 108 oscparse;
#X obj 93 134 route list;
#X obj 93 186 symbol \$1;
#X text 134 56 OSC RECEIVE;
#X obj 93 82 netreceive -u -b 6667;
#X obj 93 160 route result;
#X obj 315 80 declare -lib zexy;
#X obj 93 211 s2l;
#X text 134 234 SYNTH;
#X obj 93 336 vsl 16 136 0 1 0 0 empty empty empty 0 -9 0 10 #fcfcfc #000000 #000000 0 1;
#X msg 93 480 \$1 20;
#X obj 93 501 line~;
#X obj 173 334 vsl 16 136 0 1 0 0 empty empty empty 0 -9 0 10 #fcfcfc #000000 #000000 0 1;
#X msg 173 478 \$1 20;
#X obj 173 499 line~;
#X obj 254 332 vsl 16 136 0 1 0 0 empty empty empty 0 -9 0 10 #fcfcfc #000000 #000000 0 1;
#X msg 254 476 \$1 20;
#X obj 254 497 line~;
#X obj 93 522 *~ 400;
#X text 87 310 freq;
#X text 152 308 harmonicity;
#X text 239 308 mod index;
#X obj 173 520 *~ 5;
#X obj 254 518 *~ 5;
#X obj 125 566 fm_synth;
#X obj 335 330 vsl 16 136 0 1 0 0 empty empty empty 0 -9 0 10 #fcfcfc #000000 #000000 0 1;
#X msg 335 474 \$1 20;
#X obj 335 497 line~;
#X obj 93 261 unpack 0 0 0 0, f 35;
#X obj 125 596 *~;
#X obj 571 347 vsl 16 136 0 1 0 0 empty empty empty 0 -9 0 10 #fcfcfc #000000 #000000 0 1;
#X msg 571 491 \$1 20;
#X obj 571 512 line~;
#X obj 651 345 vsl 16 136 0 1 0 0 empty empty empty 0 -9 0 10 #fcfcfc #000000 #000000 0 1;
#X msg 651 489 \$1 20;
#X obj 651 510 line~;
#X obj 732 343 vsl 16 136 0 1 0 0 empty empty empty 0 -9 0 10 #fcfcfc #000000 #000000 0 1;
#X msg 732 487 \$1 20;
#X obj 732 508 line~;
#X obj 571 533 *~ 400;
#X text 565 321 freq;
#X text 630 319 harmonicity;
#X text 717 319 mod index;
#X obj 651 531 *~ 5;
#X obj 732 529 *~ 5;
#X obj 603 577 fm_synth;
#X obj 813 341 vsl 16 136 0 1 0 0 empty empty empty 0 -9 0 10 #fcfcfc #000000 #000000 0 1;
#X msg 813 485 \$1 20;
#X obj 813 508 line~;
#X obj 603 607 *~;
#X obj 393 715 *~;
#X obj 393 749 dac~;
#X obj 435 716 hsl 162 19 0 1 0 0 empty empty empty -2 -10 0 12 #fcfcfc #000000 #000000 0 1;
#X obj 570 209 ctlin 19;
#X obj 651 210 ctlin 23;
#X floatatom 570 233 5 0 0 0 - - - 0;
#X floatatom 651 234 5 0 0 0 - - - 0;
#X obj 570 256 / 127;
#X obj 651 257 / 127;
#X text 569 166 AUDIO IN - TARGET SOUND;
#X floatatom 732 233 5 0 0 0 - - - 0;
#X floatatom 813 234 5 0 0 0 - - - 0;
#X obj 732 256 / 127;
#X obj 813 257 / 127;
#X obj 732 209 ctlin 27;
#X obj 813 210 ctlin 31;
#X obj 505 1139 fluid.loudness~;
#X obj 505 1165 unpack f f, f 11;
#X floatatom 505 1226 5 0 0 2 loudness - - 0;
#X floatatom 578 1224 5 0 0 2 peak - - 0;
#X obj 622 1167 dbtorms;
#X floatatom 626 1224 5 0 0 2 loudness\ (RMS) - - 0;
#X obj 622 1139 + 100;
#X obj 1194 1069 fluid.loudness~;
#X obj 1194 1125 unpack f f;
#X floatatom 1194 1171 5 0 0 2 loudness - - 0;
#X floatatom 1261 1171 5 0 0 2 peak - - 0;
#X obj 1309 1135 dbtorms;
#X floatatom 1310 1171 5 0 0 2 loudness\ (RMS) - - 0;
#X obj 1309 1107 + 100;
#X msg 270 1278 disconnect;
#X text 355 1344 UDP \, FUDI;
#X obj 251 1371 tgl 19 0 empty empty empty 0 -10 0 12 #dfdfdf #000000 #000000 0 1;
#X obj 251 1342 netsend -u -b;
#X msg 251 1248 connect localhost 6666;
#X obj 251 1218 loadbang;
#X obj 537 1406 oscformat feats loudness;
#X obj 539 861 tgl 19 0 empty empty empty 0 -10 0 12 #fcfcfc #000000 #000000 0 1;
#X obj 539 885 metro 100;
#X obj 539 909 bng 19 250 50 0 empty empty empty 0 -10 0 12 #fcfcfc #000000 #000000;
#X floatatom 599 860 5 0 0 0 - - - 0;
#X obj 720 1134 list length;
#X obj 717 1073 fluid.mfcc~ 13 -maxnumcoeffs 40;
#X obj 718 1104 array set \$0-mfcc.plot;
#X obj 720 1156 array size \$0-mfcc.plot;
#X obj 645 1272 unpack f f f f f f f f f f f f f;
#X obj 1398 1080 list length;
#X obj 1399 1051 fluid.mfcc~ 13 -maxnumcoeffs 40;
#X obj 1140 1269 unpack f f f f f f f f f f f f f;
#X obj 1398 1127 array set \$0-mfcc-target.plot;
#X obj 1398 1102 array size \$0-mfcc-target.plot;
#X obj 915 1237 fluid.spectralshape~;
#X obj 915 1265 unpack 0 0 0 0 0 0 0;
#X floatatom 973 1083 10 0 0 0 - - - 0;
#X floatatom 973 1104 10 0 0 0 - - - 0;
#X floatatom 973 1125 10 0 0 0 - - - 0;
#X floatatom 973 1146 10 0 0 0 - - - 0;
#X floatatom 973 1167 10 0 0 0 - - - 0;
#X floatatom 973 1188 10 0 0 0 - - - 0;
#X floatatom 973 1209 10 0 0 0 - - - 0;
#X text 1048 1083 centroid(Hz):;
#X text 1048 1104 spread(Hz):;
#X text 1048 1125 skewness(ratio):;
#X text 1048 1146 kurtosis(ratio):;
#X text 1048 1167 rolloff(Hz):;
#X text 1048 1188 flatness(dB):;
#X text 1048 1209 crest(dB):;
#X obj 1489 1221 fluid.spectralshape~;
#X obj 1489 1257 unpack 0 0 0 0 0 0 0;
#X floatatom 1644 1130 10 0 0 0 - - - 0;
#X floatatom 1644 1151 10 0 0 0 - - - 0;
#X floatatom 1644 1172 10 0 0 0 - - - 0;
#X floatatom 1644 1193 10 0 0 0 - - - 0;
#X floatatom 1644 1214 10 0 0 0 - - - 0;
#X floatatom 1644 1235 10 0 0 0 - - - 0;
#X floatatom 1644 1256 10 0 0 0 - - - 0;
#X text 1719 1130 centroid(Hz):;
#X text 1719 1151 spread(Hz):;
#X text 1719 1172 skewness(ratio):;
#X text 1719 1193 kurtosis(ratio):;
#X text 1719 1214 rolloff(Hz):;
#X text 1719 1235 flatness(dB):;
#X text 1719 1256 crest(dB):;
#X obj 661 991 catch~ agent;
#X obj 1369 1000 catch~ target;
#X obj 98 662 throw~ agent;
#X obj 626 657 throw~ target;
#N canvas 0 22 450 278 (subpatch) 0;
#X array \$0-mfcc.plot 13 float 3;
#A 0 -304.712 94.0183 33.1297 24.2441 17.9611 14.2858 12.229 10.2833 9.25701 8.05266 7.41427 6.58462 6.13604;
#X coords 0 1000 13 -1000 200 140 1 0 0;
#X restore 1088 138 graph;
#N canvas 0 22 450 278 (subpatch) 0;
#X array \$0-mfcc-target.plot 13 float 3;
#A 0 -1980.04 1.42109e-14 2.70006e-13 -2.13163e-13 2.84217e-14 -1.7053e-13 8.52651e-14 -1.42109e-14 9.9476e-14 -5.25802e-13 1.13687e-13 -3.83693e-13 0;
#X coords 0 1000 13 -1000 200 140 1 0 0;
#X restore 1086 368 graph;
#X obj 539 1311 pack 0 f f f f f f f f f f f f f f f f f f f f f f f f f f f f f f f f f f f f f f f f f f f f f f f f f f, f 152;
#X obj 539 1341 unpack 0 f f f f f f f f f f f f f f f f f f f f f f f f f f f f f f f f f f f f f f f f f f f f f f f f f f, f 152;
#X obj 537 1376 pack f f f f f f f f f f f f f f f f f f f f f f f f f f f f f f f f f f f f f f f f f f f f f f f f f f, f 152;
#X obj 808 620 *~;
#X floatatom 842 622 5 0 0 0 - - - 0;
#X obj 808 596 adc~;
#X connect 0 0 1 0;
#X connect 1 0 5 0;
#X connect 2 0 7 0;
#X connect 4 0 0 0;
#X connect 5 0 2 0;
#X connect 7 0 28 0;
#X connect 9 0 10 0;
#X connect 10 0 11 0;
#X connect 11 0 18 0;
#X connect 12 0 13 0;
#X connect 13 0 14 0;
#X connect 14 0 22 0;
#X connect 15 0 16 0;
#X connect 16 0 17 0;
#X connect 17 0 23 0;
#X connect 18 0 24 0;
#X connect 22 0 24 1;
#X connect 23 0 24 2;
#X connect 24 0 29 0;
#X connect 25 0 26 0;
#X connect 26 0 27 0;
#X connect 27 0 29 1;
#X connect 28 0 9 0;
#X connect 28 0 139 47;
#X connect 28 1 12 0;
#X connect 28 1 139 48;
#X connect 28 2 15 0;
#X connect 28 2 139 49;
#X connect 28 3 25 0;
#X connect 28 3 139 50;
#X connect 29 0 50 0;
#X connect 29 0 135 0;
#X connect 30 0 31 0;
#X connect 31 0 32 0;
#X connect 32 0 39 0;
#X connect 33 0 34 0;
#X connect 34 0 35 0;
#X connect 35 0 43 0;
#X connect 36 0 37 0;
#X connect 37 0 38 0;
#X connect 38 0 44 0;
#X connect 39 0 45 0;
#X connect 43 0 45 1;
#X connect 44 0 45 2;
#X connect 45 0 49 0;
#X connect 46 0 47 0;
#X connect 47 0 48 0;
#X connect 48 0 49 1;
#X connect 49 0 136 0;
#X connect 49 0 50 0;
#X connect 50 0 51 0;
#X connect 50 0 51 1;
#X connect 52 0 50 1;
#X connect 53 0 55 0;
#X connect 54 0 56 0;
#X connect 55 0 57 0;
#X connect 56 0 58 0;
#X connect 57 0 30 0;
#X connect 58 0 33 0;
#X connect 60 0 62 0;
#X connect 61 0 63 0;
#X connect 62 0 36 0;
#X connect 63 0 46 0;
#X connect 64 0 60 0;
#X connect 65 0 61 0;
#X connect 66 0 67 0;
#X connect 67 0 68 0;
#X connect 67 1 69 0;
#X connect 68 0 72 0;
#X connect 68 0 139 1;
#X connect 69 0 139 2;
#X connect 70 0 71 0;
#X connect 71 0 139 3;
#X connect 72 0 70 0;
#X connect 73 0 74 0;
#X connect 74 0 75 0;
#X connect 74 0 139 24;
#X connect 74 1 76 0;
#X connect 75 0 79 0;
#X connect 76 0 139 25;
#X connect 77 0 78 0;
#X connect 78 0 139 26;
#X connect 79 0 77 0;
#X connect 80 0 83 0;
#X connect 83 0 82 0;
#X connect 84 0 83 0;
#X connect 85 0 84 0;
#X connect 86 0 83 0;
#X connect 87 0 88 0;
#X connect 88 0 89 0;
#X connect 89 0 139 0;
#X connect 90 0 88 1;
#X connect 91 0 94 0;
#X connect 92 0 91 0;
#X connect 92 0 93 0;
#X connect 92 0 95 0;
#X connect 95 0 139 4;
#X connect 95 1 139 5;
#X connect 95 2 139 6;
#X connect 95 3 139 7;
#X connect 95 4 139 8;
#X connect 95 5 139 9;
#X connect 95 6 139 10;
#X connect 95 7 139 11;
#X connect 95 8 139 12;
#X connect 95 9 139 13;
#X connect 95 10 139 14;
#X connect 95 11 139 15;
#X connect 95 12 139 16;
#X connect 96 0 100 0;
#X connect 97 0 96 0;
#X connect 97 0 98 0;
#X connect 97 0 99 0;
#X connect 98 0 139 27;
#X connect 98 1 139 28;
#X connect 98 2 139 29;
#X connect 98 3 139 30;
#X connect 98 4 139 31;
#X connect 98 5 139 32;
#X connect 98 6 139 33;
#X connect 98 7 139 34;
#X connect 98 8 139 35;
#X connect 98 9 139 36;
#X connect 98 10 139 37;
#X connect 98 11 139 38;
#X connect 98 12 139 39;
#X connect 101 0 102 0;
#X connect 102 0 103 0;
#X connect 102 0 139 17;
#X connect 102 1 104 0;
#X connect 102 1 139 18;
#X connect 102 2 105 0;
#X connect 102 2 139 19;
#X connect 102 3 106 0;
#X connect 102 3 139 20;
#X connect 102 4 107 0;
#X connect 102 4 139 21;
#X connect 102 5 108 0;
#X connect 102 5 139 22;
#X connect 102 6 109 0;
#X connect 102 6 139 23;
#X connect 117 0 118 0;
#X connect 118 0 119 0;
#X connect 118 0 139 40;
#X connect 118 1 120 0;
#X connect 118 1 139 41;
#X connect 118 2 121 0;
#X connect 118 2 139 42;
#X connect 118 3 122 0;
#X connect 118 3 139 43;
#X connect 118 4 123 0;
#X connect 118 4 139 44;
#X connect 118 5 124 0;
#X connect 118 5 139 45;
#X connect 118 6 125 0;
#X connect 118 6 139 46;
#X connect 133 0 66 0;
#X connect 133 0 92 0;
#X connect 133 0 101 0;
#X connect 134 0 73 0;
#X connect 134 0 97 0;
#X connect 134 0 117 0;
#X connect 139 0 140 0;
#X connect 140 1 141 0;
#X connect 140 2 141 1;
#X connect 140 3 141 2;
#X connect 140 4 141 3;
#X connect 140 5 141 4;
#X connect 140 6 141 5;
#X connect 140 7 141 6;
#X connect 140 8 141 7;
#X connect 140 9 141 8;
#X connect 140 10 141 9;
#X connect 140 11 141 10;
#X connect 140 12 141 11;
#X connect 140 13 141 12;
#X connect 140 14 141 13;
#X connect 140 15 141 14;
#X connect 140 16 141 15;
#X connect 140 17 141 16;
#X connect 140 18 141 17;
#X connect 140 19 141 18;
#X connect 140 20 141 19;
#X connect 140 21 141 20;
#X connect 140 22 141 21;
#X connect 140 23 141 22;
#X connect 140 24 141 23;
#X connect 140 25 141 24;
#X connect 140 26 141 25;
#X connect 140 27 141 26;
#X connect 140 28 141 27;
#X connect 140 29 141 28;
#X connect 140 30 141 29;
#X connect 140 31 141 30;
#X connect 140 32 141 31;
#X connect 140 33 141 32;
#X connect 140 34 141 33;
#X connect 140 35 141 34;
#X connect 140 36 141 35;
#X connect 140 37 141 36;
#X connect 140 38 141 37;
#X connect 140 39 141 38;
#X connect 140 40 141 39;
#X connect 140 41 141 40;
#X connect 140 42 141 41;
#X connect 140 43 141 42;
#X connect 140 44 141 43;
#X connect 140 45 141 44;
#X connect 140 46 141 45;
#X connect 140 47 141 46;
#X connect 140 48 141 47;
#X connect 140 49 141 48;
#X connect 140 50 141 49;
#X connect 141 0 86 0;
#X connect 143 0 142 1;
#X connect 144 0 142 0;
