#N canvas 658 156 300 343 12;
#X obj 111 89 *~;
#X obj 84 127 osc~ 40;
#X obj 105 158 *~;
#X obj 145 126 *~;
#X obj 69 182 +~;
#X obj 69 208 osc~;
#X obj 69 44 inlet~;
#X obj 129 44 inlet~;
#X obj 184 43 inlet~;
#X obj 69 232 outlet~;
#X connect 0 0 1 0;
#X connect 0 0 3 0;
#X connect 1 0 2 0;
#X connect 2 0 4 1;
#X connect 3 0 2 1;
#X connect 4 0 5 0;
#X connect 5 0 9 0;
#X connect 6 0 4 0;
#X connect 6 0 0 0;
#X connect 7 0 0 1;
#X connect 8 0 3 1;
