#N canvas 0 38 1512 916 12;
#X obj 832 488 fluid.loudness~;
#X obj 832 573 unpack f f, f 11;
#X floatatom 832 634 5 0 0 2 loudness - - 0;
#X floatatom 905 632 5 0 0 2 peak - - 0;
#X obj 949 575 dbtorms;
#X floatatom 953 623 5 0 0 2 loudness\ (RMS) - - 0;
#X obj 949 547 + 100;
#X obj 1518 506 fluid.loudness~;
#X obj 1518 564 unpack f f;
#X floatatom 1518 626 5 0 0 2 loudness - - 0;
#X floatatom 1585 626 5 0 0 2 peak - - 0;
#X obj 1633 590 dbtorms;
#X floatatom 1634 626 5 0 0 2 loudness\ (RMS) - - 0;
#X obj 1633 562 + 100;
#X msg 654 834 disconnect;
#X text 739 900 UDP \, FUDI;
#X obj 635 927 tgl 19 0 empty empty empty 0 -10 0 12 #dfdfdf #000000 #000000 0 1;
#X obj 635 898 netsend -u -b;
#X msg 635 804 connect localhost 6666;
#X obj 635 774 loadbang;
#X obj 891 835 oscformat feats loudness;
#X obj 151 146 tgl 30 0 empty empty START 0 -10 0 12 #ffc7c6 #000000 #000000 0 1;
#X obj 881 214 metro 100;
#X obj 252 156 bng 19 250 50 0 empty empty OSC-send 0 -10 0 12 #ffc7c6 #000000 #000000;
#X floatatom 200 156 5 0 0 2 METRO - - 0;
#X obj 1061 590 list length;
#X obj 1058 529 fluid.mfcc~ 13 -maxnumcoeffs 40;
#X obj 1059 560 array set \$0-mfcc.plot;
#X obj 1061 612 array size \$0-mfcc.plot;
#X obj 1008 704 unpack f f f f f f f f f f f f f;
#X obj 1744 572 list length;
#X obj 1744 545 fluid.mfcc~ 13 -maxnumcoeffs 40;
#X obj 1489 710 unpack f f f f f f f f f f f f f;
#X obj 1744 619 array set \$0-mfcc-target.plot;
#X obj 1744 594 array size \$0-mfcc-target.plot;
#X obj 1268 658 fluid.spectralshape~;
#X obj 1268 711 unpack 0 0 0 0 0 0 0;
#X floatatom 1310 492 10 0 0 0 - - - 0;
#X floatatom 1310 513 10 0 0 0 - - - 0;
#X floatatom 1310 534 10 0 0 0 - - - 0;
#X floatatom 1310 555 10 0 0 0 - - - 0;
#X floatatom 1310 576 10 0 0 0 - - - 0;
#X floatatom 1310 597 10 0 0 0 - - - 0;
#X floatatom 1310 618 10 0 0 0 - - - 0;
#X text 1385 492 centroid(Hz):;
#X text 1385 513 spread(Hz):;
#X text 1385 534 skewness(ratio):;
#X text 1385 555 kurtosis(ratio):;
#X text 1385 576 rolloff(Hz):;
#X text 1385 597 flatness(dB):;
#X text 1385 618 crest(dB):;
#X obj 1777 660 fluid.spectralshape~;
#X obj 1779 711 unpack 0 0 0 0 0 0 0;
#X floatatom 2024 607 10 0 0 0 - - - 0;
#X floatatom 2024 628 10 0 0 0 - - - 0;
#X floatatom 2024 649 10 0 0 0 - - - 0;
#X floatatom 2024 670 10 0 0 0 - - - 0;
#X floatatom 2024 691 10 0 0 0 - - - 0;
#X floatatom 2024 712 10 0 0 0 - - - 0;
#X floatatom 2024 733 10 0 0 0 - - - 0;
#X text 2099 607 centroid(Hz):;
#X text 2099 628 spread(Hz):;
#X text 2099 649 skewness(ratio):;
#X text 2099 670 kurtosis(ratio):;
#X text 2099 691 rolloff(Hz):;
#X text 2099 712 flatness(dB):;
#X text 2099 733 crest(dB):;
#X obj 1058 310 catch~ agent;
#X obj 1601 306 catch~ target;
#X obj 218 742 *~;
#X obj 414 436 hsl 162 19 0 1 0 0 empty empty agent-volume 10 10 0 12 #dfdfdf #000000 #000000 0 1;
#X obj 1008 676 fluid.stats history -100;
#X obj 1268 684 fluid.stats history -100;
#X obj 832 514 fluid.stats history -100;
#X obj 1518 537 fluid.stats history -100;
#X obj 1777 685 fluid.stats history -100;
#X obj 1489 684 fluid.stats history -100;
#N canvas 0 22 450 278 (subpatch) 0;
#X array \$0-mfcc.plot 13 float 3;
#A 0 -1980.04 1.42109e-14 2.70006e-13 -2.13163e-13 2.84217e-14 -1.7053e-13 8.52651e-14 -1.42109e-14 9.9476e-14 -5.25802e-13 1.13687e-13 -3.83693e-13 0;
#X coords 0 1000 13 -1000 200 70 1 0 0;
#X restore 396 243 graph;
#N canvas 295 333 450 278 (subpatch) 0;
#X array \$0-mfcc-target.plot 13 float 3;
#A 0 -1980.04 1.42109e-14 2.70006e-13 -2.13163e-13 2.84217e-14 -1.7053e-13 8.52651e-14 -1.42109e-14 9.9476e-14 -5.25802e-13 1.13687e-13 -3.83693e-13 0;
#X coords 0 1000 13 -1000 200 70 1 0 0;
#X restore 133 244 graph;
#X text 474 197 AGENT;
#X obj 433 348 vsl 19 64 0 1 0 0 empty empty empty 0 -9 0 12 #feffc6 #000000 #000000 0 1;
#X obj 414 348 vsl 19 64 -300 1 0 0 empty empty empty 0 -9 0 12 #feffc6 #000000 #000000 0 1;
#X obj 395 348 vsl 19 64 -200 1 0 0 empty empty empty 0 -9 0 12 #feffc6 #000000 #000000 0 1;
#X obj 201 343 vsl 19 64 0 2500 0 0 empty empty empty 0 -9 0 12 #c6ffc7 #000000 #000000 0 1;
#X obj 220 343 vsl 19 64 0 2500 0 0 empty empty empty 0 -9 0 12 #c6ffc7 #000000 #000000 0 1;
#X obj 239 343 vsl 19 64 0 50 0 0 empty empty empty 0 -9 0 12 #c6ffc7 #000000 #000000 0 1;
#X obj 258 343 vsl 19 64 0 100 0 0 empty empty empty 0 -9 0 12 #c6ffc7 #000000 #000000 0 1;
#X obj 277 343 vsl 19 64 0 2500 0 0 empty empty empty 0 -9 0 12 #c6ffc7 #000000 #000000 0 1;
#X obj 296 343 vsl 19 64 -100 1 0 0 empty empty empty 0 -9 0 12 #c6ffc7 #000000 #000000 0 1;
#X obj 315 343 vsl 19 64 0 50 0 0 empty empty empty 0 -9 0 12 #c6ffc7 #000000 #000000 0 1;
#X obj 171 343 vsl 19 64 0 1 0 0 empty empty empty 0 -9 0 12 #feffc6 #000000 #000000 0 1;
#X obj 152 343 vsl 19 64 -300 1 0 0 empty empty empty 0 -9 0 12 #feffc6 #000000 #000000 0 1;
#X obj 133 343 vsl 19 64 -200 1 0 0 empty empty empty 0 -9 0 12 #feffc6 #000000 #000000 0 1;
#X text 393 323 LOUDNESS;
#X text 480 322 SPECTRAL SHAPE;
#X text 131 320 LOUDNESS;
#X text 218 319 SPECTRAL SHAPE;
#X obj 1818 417 inlet;
#X obj 1949 416 inlet;
#X obj 445 740 *~;
#X obj 155 431 hsl 162 19 0 1 0 0 empty empty target-volume 10 10 0 12 #dfdfdf #000000 #000000 0 1;
#X obj 211 37 loadbang;
#X msg 211 61 100;
#X text 203 196 MUSICIAN;
#X obj 129 866 throw~ out-1;
#X obj 414 862 throw~ out-2;
#X obj 290 859 dac~;
#X obj 2028 417 inlet;
#X obj 473 347 vsl 19 64 0 2500 0 0 empty empty empty 0 -9 0 12 #c6ffc7 #000000 #000000 0 1;
#X obj 492 347 vsl 19 64 0 2500 0 0 empty empty empty 0 -9 0 12 #c6ffc7 #000000 #000000 0 1;
#X obj 511 347 vsl 19 64 0 50 0 0 empty empty empty 0 -9 0 12 #c6ffc7 #000000 #000000 0 1;
#X obj 530 347 vsl 19 64 0 100 0 0 empty empty empty 0 -9 0 12 #c6ffc7 #000000 #000000 0 1;
#X obj 549 347 vsl 19 64 0 2500 0 0 empty empty empty 0 -9 0 12 #c6ffc7 #000000 #000000 0 1;
#X obj 568 347 vsl 19 64 -100 1 0 0 empty empty empty 0 -9 0 12 #c6ffc7 #000000 #000000 0 1;
#X obj 587 347 vsl 19 64 0 50 0 0 empty empty empty 0 -9 0 12 #c6ffc7 #000000 #000000 0 1;
#X obj 219 772 limiter;
#X obj 445 771 limiter;
#X obj 893 741 pack 0 f f f f f f f f f f f f f f f f f f f f f f f f f f f f f f f f f f f f f f f f f f f f f f f f f f, f 152;
#X obj 893 770 unpack 0 f f f f f f f f f f f f f f f f f f f f f f f f f f f f f f f f f f f f f f f f f f f f f f f f f f, f 152;
#X obj 891 805 pack f f f f f f f f f f f f f f f f f f f f f f f f f f f f f f f f f f f f f f f f f f f f f f f f f f, f 152;
#X obj 2097 420 inlet;
#X connect 0 0 73 0;
#X connect 1 0 2 0;
#X connect 1 0 82 0;
#X connect 1 0 117 1;
#X connect 1 1 3 0;
#X connect 1 1 81 0;
#X connect 1 1 117 2;
#X connect 2 0 6 0;
#X connect 4 0 5 0;
#X connect 4 0 80 0;
#X connect 4 0 117 3;
#X connect 6 0 4 0;
#X connect 7 0 74 0;
#X connect 8 0 9 0;
#X connect 8 0 92 0;
#X connect 8 0 117 24;
#X connect 8 1 10 0;
#X connect 8 1 91 0;
#X connect 9 0 13 0;
#X connect 10 0 117 25;
#X connect 11 0 12 0;
#X connect 11 0 90 0;
#X connect 11 0 117 26;
#X connect 13 0 11 0;
#X connect 14 0 17 0;
#X connect 17 0 16 0;
#X connect 18 0 17 0;
#X connect 19 0 18 0;
#X connect 20 0 17 0;
#X connect 21 0 22 0;
#X connect 22 0 23 0;
#X connect 23 0 117 0;
#X connect 24 0 22 1;
#X connect 25 0 28 0;
#X connect 26 0 25 0;
#X connect 26 0 27 0;
#X connect 26 0 71 0;
#X connect 29 0 117 4;
#X connect 29 1 117 5;
#X connect 29 2 117 6;
#X connect 29 3 117 7;
#X connect 29 4 117 8;
#X connect 29 5 117 9;
#X connect 29 6 117 10;
#X connect 29 7 117 11;
#X connect 29 8 117 12;
#X connect 29 9 117 13;
#X connect 29 10 117 14;
#X connect 29 11 117 15;
#X connect 29 12 117 16;
#X connect 30 0 34 0;
#X connect 31 0 30 0;
#X connect 31 0 33 0;
#X connect 31 0 76 0;
#X connect 32 0 117 27;
#X connect 32 1 117 28;
#X connect 32 2 117 29;
#X connect 32 3 117 30;
#X connect 32 4 117 31;
#X connect 32 5 117 32;
#X connect 32 6 117 33;
#X connect 32 7 117 34;
#X connect 32 8 117 35;
#X connect 32 9 117 36;
#X connect 32 10 117 37;
#X connect 32 11 117 38;
#X connect 32 12 117 39;
#X connect 35 0 72 0;
#X connect 36 0 37 0;
#X connect 36 0 108 0;
#X connect 36 0 117 17;
#X connect 36 1 38 0;
#X connect 36 1 109 0;
#X connect 36 1 117 18;
#X connect 36 2 39 0;
#X connect 36 2 110 0;
#X connect 36 2 117 19;
#X connect 36 3 40 0;
#X connect 36 3 111 0;
#X connect 36 3 117 20;
#X connect 36 4 41 0;
#X connect 36 4 112 0;
#X connect 36 4 117 21;
#X connect 36 5 42 0;
#X connect 36 5 113 0;
#X connect 36 5 117 22;
#X connect 36 6 43 0;
#X connect 36 6 114 0;
#X connect 36 6 117 23;
#X connect 51 0 75 0;
#X connect 52 0 53 0;
#X connect 52 0 83 0;
#X connect 52 0 117 40;
#X connect 52 1 54 0;
#X connect 52 1 84 0;
#X connect 52 1 117 41;
#X connect 52 2 55 0;
#X connect 52 2 85 0;
#X connect 52 2 117 42;
#X connect 52 3 56 0;
#X connect 52 3 86 0;
#X connect 52 3 117 43;
#X connect 52 4 57 0;
#X connect 52 4 87 0;
#X connect 52 4 117 44;
#X connect 52 5 58 0;
#X connect 52 5 88 0;
#X connect 52 5 117 45;
#X connect 52 6 59 0;
#X connect 52 6 89 0;
#X connect 52 6 117 46;
#X connect 67 0 0 0;
#X connect 67 0 26 0;
#X connect 67 0 35 0;
#X connect 67 0 69 0;
#X connect 68 0 7 0;
#X connect 68 0 31 0;
#X connect 68 0 51 0;
#X connect 68 0 99 0;
#X connect 69 0 115 0;
#X connect 70 0 69 1;
#X connect 71 0 29 0;
#X connect 72 0 36 0;
#X connect 73 0 1 0;
#X connect 74 0 8 0;
#X connect 75 0 52 0;
#X connect 76 0 32 0;
#X connect 97 0 117 47;
#X connect 98 0 117 48;
#X connect 99 0 116 0;
#X connect 100 0 99 1;
#X connect 101 0 102 0;
#X connect 102 0 24 0;
#X connect 107 0 117 49;
#X connect 115 0 104 0;
#X connect 115 0 106 0;
#X connect 115 0 106 1;
#X connect 116 0 105 0;
#X connect 116 0 106 0;
#X connect 116 0 106 1;
#X connect 117 0 118 0;
#X connect 118 1 119 0;
#X connect 118 2 119 1;
#X connect 118 3 119 2;
#X connect 118 4 119 3;
#X connect 118 5 119 4;
#X connect 118 6 119 5;
#X connect 118 7 119 6;
#X connect 118 8 119 7;
#X connect 118 9 119 8;
#X connect 118 10 119 9;
#X connect 118 11 119 10;
#X connect 118 12 119 11;
#X connect 118 13 119 12;
#X connect 118 14 119 13;
#X connect 118 15 119 14;
#X connect 118 16 119 15;
#X connect 118 17 119 16;
#X connect 118 18 119 17;
#X connect 118 19 119 18;
#X connect 118 20 119 19;
#X connect 118 21 119 20;
#X connect 118 22 119 21;
#X connect 118 23 119 22;
#X connect 118 24 119 23;
#X connect 118 25 119 24;
#X connect 118 26 119 25;
#X connect 118 27 119 26;
#X connect 118 28 119 27;
#X connect 118 29 119 28;
#X connect 118 30 119 29;
#X connect 118 31 119 30;
#X connect 118 32 119 31;
#X connect 118 33 119 32;
#X connect 118 34 119 33;
#X connect 118 35 119 34;
#X connect 118 36 119 35;
#X connect 118 37 119 36;
#X connect 118 38 119 37;
#X connect 118 39 119 38;
#X connect 118 40 119 39;
#X connect 118 41 119 40;
#X connect 118 42 119 41;
#X connect 118 43 119 42;
#X connect 118 44 119 43;
#X connect 118 45 119 44;
#X connect 118 46 119 45;
#X connect 118 47 119 46;
#X connect 118 48 119 47;
#X connect 118 49 119 48;
#X connect 118 50 119 49;
#X connect 119 0 20 0;
#X connect 120 0 117 50;
#X coords 0 -1 1 1 550 380 1 100 100;
