#N canvas -955 146 617 496 12;
#X obj 253 245 vline~;
#X obj 67 326 *~ 2048;
#X obj 193 412 *~;
#X obj 189 245 / 1000;
#X obj 211 323 *~;
#X obj 189 272 sig~;
#X obj 189 149 f;
#X obj 179 122 bng 19 250 50 0 empty empty empty 0 -10 0 12 #fcfcfc #000000 #000000;
#X obj 179 49 inlet;
#X obj 193 439 outlet~;
#X obj 251 350 r \$0-my-start;
#X obj 42 153 s \$0-my-start;
#X obj 42 181 s \$0-my-pitch;
#X obj 42 208 s \$0-my-dur;
#X obj 253 272 *~ 1;
#X obj 291 272 r \$0-my-pitch;
#X obj 211 350 +~ 0;
#X text 302 121 global grain duration [ms];
#X text 400 271 global grain pitch [%];
#X text 361 347 global grain start [%];
#X obj 179 73 t b a;
#X obj 207 122 r \$0-my-dur;
#X obj 189 176 t f f;
#X obj 42 121 unpack f f f;
#X obj 211 383 tabread4~ \$2-buffer;
#X obj 67 352 tabread4~ \$2-env;
#X msg 253 218 0 \, 1 \$1 0;
#X connect 0 0 1 0;
#X connect 0 0 14 0;
#X connect 1 0 25 0;
#X connect 2 0 9 0;
#X connect 3 0 5 0;
#X connect 4 0 16 0;
#X connect 5 0 4 0;
#X connect 6 0 22 0;
#X connect 7 0 6 0;
#X connect 8 0 20 0;
#X connect 10 0 16 1;
#X connect 14 0 4 1;
#X connect 15 0 14 1;
#X connect 16 0 24 0;
#X connect 20 0 7 0;
#X connect 20 1 23 0;
#X connect 21 0 6 1;
#X connect 22 0 3 0;
#X connect 22 1 26 0;
#X connect 23 0 11 0;
#X connect 23 1 12 0;
#X connect 23 2 13 0;
#X connect 24 0 2 1;
#X connect 25 0 2 0;
#X connect 26 0 0 0;
