#N canvas 0 38 577 432 12;
#X obj 133 163 hsl 160 17 0 1 0 0 empty empty harmonicity 10 9 0 12 #fcfcfc #000000 #000000 0 1;
#X obj 133 188 hsl 160 17 0 1 0 0 empty empty mod\ index 10 9 0 12 #fcfcfc #000000 #000000 0 1;
#X obj 133 138 hsl 160 17 0 1 0 0 empty empty frequency 10 9 0 12 #fcfcfc #000000 #000000 0 1;
#X obj 130 42 inlet;
#X obj 359 138 *~ 400;
#X obj 419 137 *~ 5;
#X obj 460 184 *~ 5;
#X obj 401 172 *~;
#X obj 374 210 osc~ 40;
#X obj 395 241 *~;
#X obj 442 209 *~;
#X obj 359 265 +~;
#X obj 359 291 osc~;
#X obj 359 318 outlet~;
#X obj 130 72 unpack f f f;
#X obj 359 111 +~ 1;
#X msg 359 84 \$1 1.4;
#X msg 419 84 \$1 1.4;
#X msg 460 140 \$1 1.4;
#X connect 0 0 17 0;
#X connect 1 0 18 0;
#X connect 2 0 16 0;
#X connect 3 0 14 0;
#X connect 4 0 7 0;
#X connect 4 0 11 0;
#X connect 5 0 7 1;
#X connect 6 0 10 1;
#X connect 7 0 8 0;
#X connect 7 0 10 0;
#X connect 8 0 9 0;
#X connect 9 0 11 1;
#X connect 10 0 9 1;
#X connect 11 0 12 0;
#X connect 12 0 13 0;
#X connect 14 0 2 0;
#X connect 14 1 0 0;
#X connect 14 2 1 0;
#X connect 15 0 4 0;
#X connect 16 0 15 0;
#X connect 17 0 5 0;
#X connect 18 0 6 0;
#X coords 0 -1 1 1 230 150 1 100 100;
